<?xml version="1.0" encoding="UTF-8" standalone="no"?>
<svg
   xmlns:dc="http://purl.org/dc/elements/1.1/"
   xmlns:cc="http://creativecommons.org/ns#"
   xmlns:rdf="http://www.w3.org/1999/02/22-rdf-syntax-ns#"
   xmlns:svg="http://www.w3.org/2000/svg"
   xmlns="http://www.w3.org/2000/svg"
   xmlns:sodipodi="http://sodipodi.sourceforge.net/DTD/sodipodi-0.dtd"
   xmlns:inkscape="http://www.inkscape.org/namespaces/inkscape"
   version="1.0"
   width="173.000000pt"
   height="300.000000pt"
   viewBox="0 0 173.000000 300.000000"
   preserveAspectRatio="xMidYMid meet"
   id="svg4371"
   inkscape:version="0.91 r13725"
   sodipodi:docname="the-hermit-clean-lf.svg">
  <defs
     id="defs4547" />
  <sodipodi:namedview
     pagecolor="#ffffff"
     bordercolor="#666666"
     borderopacity="1"
     objecttolerance="10"
     gridtolerance="10"
     guidetolerance="10"
     inkscape:pageopacity="0"
     inkscape:pageshadow="2"
     inkscape:window-width="1072"
     inkscape:window-height="721"
     id="namedview4545"
     showgrid="false"
     inkscape:zoom="1.352"
     inkscape:cx="137.7108"
     inkscape:cy="157.07344"
     inkscape:window-x="0"
     inkscape:window-y="0"
     inkscape:window-maximized="0"
     inkscape:current-layer="svg4371" />
  <metadata
     id="metadata4373">
Created by potrace 1.10, written by Peter Selinger 2001-2011
<rdf:RDF>
  <cc:Work
     rdf:about="">
    <dc:format>image/svg+xml</dc:format>
    <dc:type
       rdf:resource="http://purl.org/dc/dcmitype/StillImage" />
    <dc:title></dc:title>
  </cc:Work>
</rdf:RDF>
</metadata>
  <g
     id="g4898"
     transform="matrix(1.0029843,0.02988106,-0.03007298,1.0094261,-194.28247,-65.288113)">
    <path
       id="path4377"
       transform="scale(0.8,0.8)"
       d="m 407.08789,69.244141 c -0.0105,0.138278 -0.0405,0.257643 -0.0645,0.382812 0.3926,0.141969 0.65851,0.303857 0.83398,0.470703 l 0.25,-0.0039 c -0.16511,-0.24289 -0.46171,-0.531543 -0.84375,-0.849609 l -0.17578,0 z m 40.40234,0.07813 c -0.005,0.02564 -0.0101,0.05156 -0.0156,0.07813 l 0.082,-0.002 c -0.006,-0.01359 -0.0115,-0.02748 -0.0176,-0.04102 -0.0167,-0.01202 -0.0319,-0.0228 -0.0488,-0.03516 z m -182.83398,0.589843 -0.0547,0.002 c -0.0263,0.517168 -0.0964,1.831054 -0.14453,2.746094 l 0.1582,-0.002 c -5.8e-4,-1.078369 0.021,-1.921669 0.041,-2.746094 z m 71.69336,0.203125 c 0.007,0.05004 0.0143,0.102001 0.0215,0.150391 0.006,-0.03889 0.012,-0.07538 0.0176,-0.115234 -0.0118,-0.0124 -0.0275,-0.02266 -0.0391,-0.03516 z m 0.0215,0.150391 c -0.017,0.114288 -0.0324,0.233881 -0.0488,0.355469 0.071,0.265182 0.13144,0.520512 0.20117,0.785156 0.0113,-2.04e-4 0.0199,2.01e-4 0.0312,0 -0.065,-0.328922 -0.12126,-0.720095 -0.1836,-1.140625 z m -57.52539,0.169922 c -0.0275,-0.04806 -0.42836,0.914594 -0.59961,1.255859 0.0496,-0.04533 0.0971,-0.09301 0.14649,-0.138672 0.20037,-0.385765 0.3722,-0.751461 0.4414,-1.03125 0.0131,-0.05295 0.0166,-0.07908 0.0117,-0.08594 z m 58.55469,0.486328 c -0.0344,0.156375 -0.0684,0.312157 -0.10351,0.470703 0.17574,-0.0031 0.30627,-0.0047 0.48242,-0.0078 -0.0166,-0.09135 -0.042,-0.19286 -0.0605,-0.28711 -0.11405,-0.0538 -0.21307,-0.116563 -0.31836,-0.175781 z m -1.3457,0.02539 c -0.0383,0.161063 -0.0698,0.316152 -0.10157,0.470703 0.0368,-6.57e-4 0.0646,-0.0012 0.10157,-0.002 -10e-4,-0.156304 9.3e-4,-0.312459 0,-0.46875 z m -77.97852,0.15039 c 0.0156,0.08455 0.0144,0.173947 0.0254,0.259766 0.0147,-0.07046 -0.006,-0.167797 -0.0254,-0.259766 z m 28.41797,0.201172 c -0.13594,0.03809 -0.068,0.478839 0.0723,0.996094 l 0.34961,-0.0059 c -0.005,-0.203805 -0.006,-0.4029 0,-0.671874 -0.0859,-0.07958 -0.14977,-0.153352 -0.24219,-0.234376 -0.0803,-0.07026 -0.13853,-0.09552 -0.17969,-0.08398 z m 0.9668,0.847656 c -0.0535,0.05091 -0.0838,0.08267 -0.13867,0.134766 l 0.26953,-0.0039 c -0.039,-0.04257 -0.09,-0.08776 -0.13086,-0.13086 z M 466.709,83.425785 c -0.002,0.14703 -0.003,0.383916 -0.006,0.533203 0.33914,-0.09426 0.66474,-0.180718 1.00391,-0.271484 -2e-4,-0.0153 1.8e-4,-0.02182 0,-0.03711 -0.31739,-0.06175 -0.66248,-0.147095 -0.99805,-0.22461 z m -92.125,8.861328 -8,0.75 c -4.375,0.375 -9.5,0.75 -11.375,0.75 -1.875,0.125 -6,1.625 -9.375,3.375 -13.375,7.249997 -12,6.874997 -13.875,3.499997 -1.75,-3.375007 -4.25,-3.999997 -6.125,-1.624997 -1.5,1.999997 -1,15.249997 1,24.499997 1.375,6.625 1.25,7 -1.5,9.125 -1.5,1.125 -3.75,1.875 -4.75,1.5 -1.125,-0.375 -0.75,0.25 0.875,1.5 1.625,1.125 3.25,1.75 3.625,1.375 0.5,-0.375 0,-0.75 -0.875,-0.75 -1.375,0 -1.375,-0.375 -0.25,-1.5 2.125,-2.125 4.125,0.25 3.25,3.75 -0.5,1.75 -1.75,2.75 -3.5,2.625 -2.5,0 -2.5,-0.125 -0.125,-1.125 2.375,-1 2.375,-1.125 -0.25,-1.125 -2.375,-0.125 -2.875,0.62505 -3,3.875 -0.125,2.25 -0.125,4.875 0,5.875 0.25,0.875 -0.25,1.25 -0.875,0.875 -0.625,-0.375 -3,-0.125 -5.125,0.5 -3.25,0.875 -3.875,0.875 -2.75,-0.5 0.75,-0.875 1,-1.875 0.625,-2.375 -0.375,-0.375 0.375,-0.375 1.875,0 1.5,0.375 2.625,0.125 2.625,-0.75 0,-0.75 -1.25,-1.375 -2.75,-1.375 -2.125,0 -2.375,-0.375 -1.25,-1.5 1.125,-1.125 1.875,-1.125 3,0 2.5,2.5 3.5,1.75 3.5,-2.75 0,-3.25 -0.625,-4.5 -2.625,-5.125 -2.5,-0.875 -2.5,-1 -0.375,-3.25 2.125,-2.25 2,-2.5 -0.25,-4.25 -1.5,-1.125 -1.75,-1.75 -0.75,-1.875 2.375,0 4.875,2.875 4.375,5 -0.375,1.125 0,1 0.875,-0.375 1.125,-1.75 1.875,-2 3.25,-0.75 1,0.75 2.125,1.125 2.625,0.625 1.125,-1 -3.375,-5.75 -5.5,-5.75 -0.875,0 -1.625,-0.5 -1.625,-1 0,-0.625 -2,-3.5 -4.5,-6.375 -3.5,-4 -4.875,-4.875 -5.75,-3.625 -0.625,1 -0.75,0.375 -0.25,-1.875 0.5,-2.125 0.25,-3.375 -0.625,-3.375 -0.75,0 -2.125,-1.375 -2.875,-3.125 -0.75,-1.875 -2.875,-3.5 -4.625,-3.875 -1.75,-0.375 -6.25,-1.5 -9.875,-2.624997 -7.625,-2.125 -13.75,-1.62501 -18.25,1.749997 -3.25,2.25 -4.5,7.875 -1.75,7.875 0.75,0 1.125,0.375 0.625,0.75 -1.875,2 7.25,7.5 9.5,5.75 0.875,-0.625 3.75,-1.625 6.375,-2.125 4.375,-0.75 4.75,-0.625 3.375,1.125 -1.125,1.375 -1.25,2.5 -0.125,4.375 0.75,1.5 1.875,2.625 2.375,2.625 0.625,0 1.5,2.25 2,5 0.5,2.75 1.375,5 2,5 0.625,0 1.125,1 1.125,2.25 0,1.25 0.625,2.875 1.25,3.5 0.75,0.75 1.375,8.875 1.5,19.375 0.125,17.75001 0.75,23.5 2.625,23.625 l 2.125,0 c 0.75,0 1.25,1.625 1.25,3.75 0,2 0.625,3.75 1.375,3.75 0.75,0 1,1 0.625,2.125 -0.25,1.25 -1,5.75 -1.375,10 -1,8.75 -0.625,9.125 9.75,11 4,0.75 4.5,0.5 5,-2.125 0.5,-3.125 -0.125,28.125 -1,48 -0.375,10.125 -0.25,12.25 1.25,12.25 1,0 1.875,1.125 1.875,2.375 0,1.375 0.75,3.25 1.625,4.125 1.625,1.75 1.625,1.625 2.75,28.5 1,21.375 1.875,24.25 7.625,23.125 3.25,-0.5 4.25,-0.25 4.75,1.5 0.875,3.25 1.875,17.75 2.875,42.25 0.875,23.25 0.875,26.75 0.125,27.5 -1.25,1.25 -9.875,-2.5 -13.5,-5.75 -4.5,-4.125 -7.5,-4.625 -7.5,-1.375 0,2.875 -5,7.75 -8,7.75 -1.25,0 -3.875,1.125 -5.75,2.5 -4.875,3.5 -10.25,4.25 -16.875,2.625 -3.875,-1 -6.375,-1 -8,-0.125 -1.75,0.875 -4,0.5 -8.875,-1.625 l -6.5,-2.875 -6.25,3 c -1.12185,0.54015 -2.16651,0.99115 -3.13671,1.38867 0.0113,0.0484 0.0156,0.10413 0.0215,0.1582 0.007,8.5e-4 0.0144,5.6e-4 0.0215,0.002 0.10063,0.0125 0.10125,0.30462 0,0.30273 -0.002,-6e-5 -0.006,-0.002 -0.01,-0.002 0.009,0.19264 0.01,0.42787 0.01,0.74805 3.30028,0.74658 4.17779,1.42985 3.76954,2.00195 2.35546,-0.99988 4.57606,-2.48016 4.82421,-3.22461 0.375,-1 2.625,-0.5 7.125,1.5 5.25,2.125 7.125,2.5 8.875,1.375 1.625,-1 3.625,-1 7,0 5.625,1.5 13.625,0.375 18,-2.5 1.75,-1.125 4,-1.875 5,-1.75 1.125,0.125 4.25,-1.875 6.875,-4.625 2.5625,-2.5625 4.28125,-3.875 5.82813,-4 1.54687,-0.125 2.92187,0.9375 4.79687,3.125 0.875,1.125 3.125,2 5.125,2 4.875,0 4.5,1.625 -0.875,4.125 -2.375,1.25 -4,2.75 -3.625,3.375 0.375,0.625 -1.125,2 -3.375,3.125 -1.97077,0.98539 -4.57129,2.30027 -6.39648,3.29687 0.72374,-0.0305 1.44998,0.0266 2.21484,0.0254 0.43637,-0.01 0.87212,-0.005 1.3086,-0.006 0.36602,-0.15693 0.85403,-0.30584 1.49804,-0.44141 0.90625,-0.15625 2.08594,-0.20312 3.34571,-0.16797 1.83496,0.0512 3.77043,0.2882 5.33593,0.60352 l 3.4629,0 c -0.27807,0.54767 0.78148,-0.26193 0.78515,0 0.004,0.27716 10e-4,0.45778 0.004,0.71875 0.11825,0.002 0.22449,0.0177 0.3125,0.0508 0.0132,-0.007 0.0276,-0.01 0.041,-0.0176 0.004,-0.018 0.0113,-0.0333 0.0156,-0.0508 0.0292,-0.25035 0.0457,-0.4375 0.0781,-0.70117 0.0128,-0.10325 0.20849,0 0.3125,0 -10e-4,0.081 -0.003,0.0768 -0.004,0.15625 0.11875,-0.073 0.26692,-0.11749 0.44336,-0.13477 8.3e-4,-0.007 5.6e-4,-0.0145 0.002,-0.0215 0.0113,-0.0971 0.29107,-0.0978 0.29297,0 1.7e-4,0.009 -0.002,0.0186 -0.002,0.0273 0.10537,0.0125 0.21557,0.0174 0.29687,0.0527 0.1215,-0.0528 0.26698,-0.0801 0.44336,-0.0801 l 1.33203,0 c -0.28829,0.57925 0.72758,-0.16906 0.87695,-0.0352 0.46395,-0.58614 0.94148,-0.46787 1.38282,0.0352 0.0758,-5.4e-4 0.28415,-2.3e-4 0.47851,0 0.4135,-0.1085 0.84044,-0.18555 1.26367,-0.18555 1.25,0 2.375,-0.625 2.375,-1.25 0,-1.625 -0.75,-1.625 -4,0.125 -2,1.125 -3.5,0.875 -6.75,-0.875 -2.375,-1.25 -4.25,-2.75 -4.25,-3.25 0,-1.875 9.25,-7.25 10.5,-6 2,2 5.125,1.5 8.625,-1.25 1.75,-1.375 4.5,-2.5 6,-2.5 2.75,0 2.625,0.25 -1.125,3.375 -3.75,3.125 -4,3.75 -2.375,5.875 1.625,2.25 2.125,2.25 12.875,0.125 6.125,-1.125 12.25,-2.5 13.625,-3.125 1.375,-0.625 4.125,-1.375 6,-1.875 2.375,-0.5 3.375,-1.375 3,-2.375 -0.5,-1.125 0,-1.5 1.375,-1.125 1.25,0.25 3.5,0 5.25,-0.75 1.3125,-0.51563 2.5896,-0.75073 3.9043,-0.69727 2.19116,0.0891 4.48633,0.97852 7.2207,2.69727 2.875,1.875 2.875,2 0.625,3.25 -3.625,1.875 -3.75,2.125 -1.75,3.375 3,1.875 1,2.25 -5.5,1.25 -5.875,-0.875 -14.5,0.625 -14.5,2.5 0,0.5 3,1.5 6.625,2.125 0.8595,0.1799 1.45983,0.33701 1.7793,0.47461 0.84854,-0.40344 1.93648,-0.65405 3.27344,-0.6543 l 0.002,0 1.84766,0 1.48047,0 c 0.18491,0 0.54546,-0.1847 0.55468,0 4e-4,0.007 -3.3e-4,0.0174 0,0.0254 0.0303,0.004 0.0614,0.008 0.0899,0.0137 10e-4,-0.0125 -2.7e-4,-0.0268 0.002,-0.0391 0.0298,-0.21621 0.38263,-0.0626 0.63672,-0.0215 -0.0559,-0.0573 -0.11462,-0.11313 -0.16602,-0.17383 -1.375,-1.75 -1.25,-2 1.375,-1.75 5.625,0.5 6.625,0.125 5.875,-2.5 -0.42187,-1.6875 -0.13265,-2.50544 0.58008,-2.4082 0.55435,0.0756 1.36524,0.70507 2.29492,1.9082 1.55148,1.81006 3.41906,3.01747 6.05664,3.88477 0.3142,-0.26113 0.84106,-0.0426 1.42969,0.41601 0.81513,0.21062 1.677,0.40593 2.63867,0.57422 1.7279,0.31677 2.89173,0.58207 3.60352,0.81055 l 0.25195,0 c 0.0754,-3e-5 0.55551,-2e-5 0.72852,0 -0.01,0.57738 0.003,-0.0693 -0.006,0.4414 0.006,0.01 0.0156,0.0155 0.0215,0.0254 0.001,-0.047 0.009,-0.45502 0.01,-0.46679 5.8e-4,-0.006 0.73119,-9e-4 0.99219,0 0.50775,-0.48987 1.18745,-0.90549 2.08007,-1.16602 -3.75036,-1.06589 -7.40067,-2.5646 -11.55664,-4.64258 -6.875,-3.375 -7.75,-6.25 -3,-10 3.25,-2.5 3.75,-2.625 6.375,-1 1.5,1 6.25,2.125 10.5,2.375 6.5,0.5 8.375,0.25 11.25,-1.875 l 3.5,-2.625 4.125,2.5 c 2.25,1.375 5.875,2.5 8,2.5 l 2.03711,0 0,-0.41601 c 0.0378,-0.32152 0.0436,-0.64877 0.0332,-0.97852 -1.1559,-0.38182 -3.8084,-1.54837 -6.57032,-2.98047 -7.625,-3.875 -7.75,-3.875 -12.125,-0.125 -2.5,2.125 -4.25,2.75 -5.375,2 -1,-0.625 -3.125,-0.875 -4.75,-0.375 -1.5,0.375 -3.5,0.125 -4.375,-0.5 -0.75,-0.75 -3.375,-1.875 -5.75,-2.75 -3.75,-1.25 -4.625,-1.125 -7.125,1.25 -1.75,1.625 -4,2.375 -6.25,2.125 -3.25,-0.375 -3.625,-0.875 -3.75,-5.375 -2.375,-57.25 -3.125,-240.75 -1,-247.25 0.375,-1.25 0,-5.125 -0.75,-8.625 -1.25,-4.75 -3,-7.74999 -7.125,-11.75 -3,-3 -6.5,-5.5 -7.625,-5.625 -7,-0.25 -8.75,-1 -12.375,-4.625 -2.125,-2.25 -3.625,-4 -3.375,-4 0.375,0 -0.25,-1.25 -1.25,-2.75 -1.375,-1.875 -1.625,-4.25 -1.125,-8.249994 l 0.75,-5.5 0,-0.002 z m 30.27735,319.734367 c -0.12313,0.98885 0.19693,2.35606 0.47461,3.65821 0.38263,-1.79453 0.66133,-3.43391 -0.47461,-3.65821 z m 0.47461,3.65821 c -0.0375,0.17588 -0.0693,0.34765 -0.10742,0.52539 l 0.21484,-0.002 c -0.0342,-0.1711 -0.07,-0.34816 -0.10742,-0.52343 z m -0.56446,-3.67188 c -0.0625,-0.007 -0.11512,-0.0254 -0.18554,-0.0254 -1.46788,0 -1.07021,1.76498 -0.54102,3.69922 0.35708,-1.3052 0.7685,-2.67811 0.72656,-3.67383 z m -0.72656,3.67383 c -0.0484,0.17708 -0.0959,0.35656 -0.14062,0.5293 l 0.28125,-0.002 c -0.0494,-0.17851 -0.0922,-0.35074 -0.14063,-0.52734 z m -61.73828,-2.87891 c -0.13269,0.0576 -0.23239,0.14976 -0.30859,0.26172 -0.007,0.124 -0.0216,0.25228 -0.0391,0.38477 0.002,10e-4 0.003,3.8e-4 0.006,0.002 0.0188,0.002 0.0442,0.0117 0.0606,0.0117 0.0421,0 0.12712,-0.0421 0.12695,0 -1.2e-4,0.0331 -0.009,0.07 -0.01,0.10352 0.0221,0.0151 0.0433,0.0311 0.0644,0.0469 0.15538,-0.0332 0.27578,-0.0415 0.1875,0.0156 -0.0257,0.0168 -0.0663,0.0322 -0.0957,0.0488 0.0876,0.0741 0.16177,0.15662 0.23047,0.24219 0.0744,-0.0971 0.16267,-0.17899 0.25781,-0.2539 -0.0326,-0.40955 -0.16466,-0.72607 -0.48047,-0.86329 z m -0.008,0.875 c -0.0276,-0.0234 -0.0622,-0.0422 -0.0918,-0.0645 -0.0255,0.005 -0.0428,0.006 -0.0703,0.0137 -10e-4,0.0464 -0.0101,0.0956 -0.0137,0.14258 0.0644,-0.03 0.12163,-0.0613 0.17578,-0.0918 z m -0.30078,-0.61328 c 0.008,-0.10737 0.0133,-0.21452 0.0117,-0.31445 -0.052,-0.006 -0.0881,-0.0273 -0.14649,-0.0273 -0.0559,0 -0.0957,0.0165 -0.14648,0.0215 -0.0231,0.19423 -0.0389,0.39628 -0.0605,0.59375 0.0646,0.0139 0.12978,0.0433 0.19531,0.0703 0.0301,-0.13323 0.0797,-0.24567 0.14649,-0.34375 z m -0.72461,-0.18554 c -0.0439,0.027 -0.0921,0.0501 -0.12891,0.084 0.005,0.0781 0.0179,0.2946 0.0234,0.39258 0.0317,-0.009 0.0636,-0.0125 0.0957,-0.0176 0.005,-0.22082 0.005,-0.22546 0.01,-0.45898 z m -0.12891,0.084 c -0.014,-0.2481 -0.0125,0.0288 -0.0156,0.0176 0.005,-0.005 0.01,-0.0125 0.0156,-0.0176 z m -0.0156,0.0176 c -0.116,0.11375 -0.19282,0.26508 -0.24219,0.44336 -0.001,0.016 -0.003,0.029 -0.004,0.0449 0.0815,-0.0435 0.16425,-0.0803 0.24805,-0.10547 -0.01,-0.4316 -0.006,-0.39666 -0.002,-0.38281 z m -81.53516,-9.14649 c -0.006,-7.6e-4 -0.013,-6.2e-4 -0.0195,-0.002 0.0127,0.0615 0.0236,0.13678 0.0293,0.22266 10e-4,-0.022 0.0117,-0.0355 0.0117,-0.0586 0,-0.0615 -0.0155,-0.10674 -0.0215,-0.16211 z m -0.0195,-0.002 c -0.0113,-0.0566 -0.0291,-0.0985 -0.0488,-0.13672 -0.0911,0.0371 -0.17492,0.0698 -0.26367,0.10547 0.104,0.0113 0.20857,0.0189 0.3125,0.0312 z M 366.36523,95.052734 c 2.75,0.07813 5.34375,0.484375 5.34375,1.109375 0,1.25 -7.125,3.25 -9.625,2.75 -0.875,-0.125 -1.625,0.37499 -1.625,1.125001 0,0.625 1.375,1.25 3.125,1.25 1.75,0 3.125,0.625 3.125,1.375 0,1.375 -2.25,1.25 -11.5,-0.875 -2.25,-0.5 -3.5,-0.25 -3.5,0.625 0,0.75 1.25,1.375 2.875,1.375 1.5,0 5.125,1.125 8.125,2.5 3,1.375 6,2.375 6.875,2.125 0.75,-0.125 1.625,1.125 1.875,2.875 0.375,2.5 0.25,2.75 -1.375,1.5 -1.5,-1.25 -2,-1.125 -2.625,0.375 -0.375,1.125 -1.375,1.625 -2,1.25 -1,-0.625 -0.875,-1.375 0.125,-2.625 0.75,-1 1.25,-2 1,-2.25 -1.5,-1.25 -17.125,-5.75 -20.25,-5.75 -5.375,0 -3,2 3.5,2.875 7.75,1.125 13.125,4.125 13.125,7.25 0,2 -0.5,2.375 -2.125,1.75 -5.75,-2.375 -12.125,-3.5 -12.5,-2.25 -0.25,0.75 -1.5,1.125 -2.75,0.75 -1.25,-0.375 -4.375,0 -6.875,0.625 l -4.5,1.25 0,-5.5 c 0,-5.25 0.125,-5.5 3.75,-5.5 2.25,0 3.625,-0.625 3.5,-1.5 -0.5,-2.25 9.125,-7.125001 13.75,-7.000001 2.125,0.125 4.375,-0.25 4.875,-0.625 0.625,-0.6875 3.53125,-0.9375 6.28125,-0.859375 z m 2.71875,3.734375 c 0.625,0 1.625,0.49999 2,1.250001 0.375,0.625 0.25,1.25 -0.5,1.25 -0.625,0 -1.625,-0.625 -2,-1.25 -0.375,-0.750011 -0.25,-1.250001 0.5,-1.250001 z m -40.66406,0.6875 c 0.92724,0.149964 2.17188,2.351561 2.66406,5.937501 0.75,5.75 3.125,27.25 3.125,28.625 0,0.625 -1,1 -2.125,1 -1.875,0 -2,-0.25 -0.375,-1.25 1.375,-0.875 1.375,-1.25 0.25,-1.25 -0.875,0 -1.25,-0.625 -0.875,-1.25 0.375,-0.75 0,-1.25 -0.875,-1.25 -1.125,0 -1.125,-0.375 0.25,-1.25 1.625,-1.125 1.625,-1.25 0,-1.25 -1.5,0 -1.625,-0.25 -0.125,-1.125 1.375,-0.875 1.375,-1.125 0,-1.75 -1.5,-0.5 -1.375,-0.875 0.125,-2 1.125,-0.75 1.25,-1.375 0.375,-1.375 -0.75,0 -2,-1.75 -2.75,-3.875 -1.625,-4.875 -1.625,-4.875 0,-4.875 0.625,0 1,0.5 0.5,1.125 -0.375,0.625 -0.125,1.5 0.625,2 0.625,0.375 1.25,-0.125 1.25,-1.25 0,-1 -0.875,-2.25 -1.875,-2.625 -1,-0.5 -1.875,-1.25 -1.875,-2 0,-0.625 0.625,-0.75 1.5,-0.25 0.875,0.625 1,0.375 0.375,-0.75 -0.5,-0.875 -1.125,-3.375 -1.25,-5.625 -0.16406,-2.67969 0.36475,-3.804138 1.08594,-3.687501 z m -47.96094,0.687501 c 1.25,0 1,0.375 -0.625,1.125 -2.125,0.875 -2.25,1.125 -0.25,1.125 1.125,0.125 3.25,-0.625 4.625,-1.375 2.125,-1.375011 3.375,-1.125011 8.25,1.375 5,2.75 5.625,3.375 4.875,6.25 -1.125,4.375 -1.5,4.625 -4.25,2.125 -1.5,-1.375 -2.625,-1.75 -3.25,-0.875 -1.375,2.375 -6.75,1.5 -8.25,-1.25 -1.25,-2.375 -1.125,-2.5 1.625,-1.625 3.625,1.25 7.25,1 8.875,-0.625 0.75,-0.75 -1.625,-1.125 -6.625,-1.25 -8.25,0 -12.125,-1.75 -8.75,-3.875 1,-0.625 2.75,-1.125 3.75,-1.125 z m -24.61523,0.66601 c -0.0705,-0.0647 -0.38035,0.18373 -0.75,0.47657 -0.16575,0.18309 -0.35373,0.38428 -0.61133,0.64648 0.15433,0.1378 0.29853,0.27398 0.46094,0.41602 0.3813,-0.38993 0.70509,-0.8138 0.88281,-1.32617 0.042,-0.12122 0.0447,-0.18795 0.0176,-0.2129 z m 210.62891,1.79297 c -3.5e-4,0.0443 -7.1e-4,0.0968 -0.002,0.14649 0.45278,0.081 0.90466,0.15317 1.33008,0.10547 0.0636,-0.007 0.0752,-0.0211 0.0977,-0.0332 -1.3e-4,-0.0165 2e-4,-0.0351 0,-0.0508 -0.44852,-0.0247 -0.93153,-0.0893 -1.42578,-0.16797 z m -193.24805,0.40039 c 0.35937,-0.0469 0.60937,0.26563 0.85937,0.89063 0.25,1 1.25,2.375 2.125,3.25 0.875,0.875 2.375,1.625 3.25,1.625 1.25,0 1.25,0.25 0.125,1 -1,0.625 -1.125,1.625 -0.375,2.75 1,1.625 1.25,1.625 1.25,0.125 0,-1 0.375,-1.5 0.75,-1 0.375,0.375 0.375,1.25 -0.125,2 -1.25,2.125 -5.75,-0.75 -4.875,-3 0.625,-1.375 0.125,-1.75 -1.5,-1.125 -1.75,0.5 -1.875,0.375 -0.75,-0.5 1.375,-0.875 1.125,-1.375 -1.125,-1.875 -2.375,-0.625 -2.625,-1 -1.125,-2.875 0.6875,-0.8125 1.15625,-1.21875 1.51563,-1.26563 z m 95.23437,0.76563 c 0.375,0 1,0.5 1.375,1.25 0.375,0.625 0.125,1.25 -0.5,1.25 -0.75,0 -1.375,-0.625 -1.375,-1.25 0,-0.75 0.25,-1.25 0.5,-1.25 z m 4.375,2.5 c 0.75,0 1.375,0.5 1.375,1.25 0,0.625 -0.25,1.25 -0.5,1.25 -0.375,0 -1,-0.625 -1.375,-1.25 -0.375,-0.75 -0.125,-1.25 0.5,-1.25 z m -72.25781,0.14062 c 0.58874,-0.0278 1.32813,0.51563 2.25781,1.60938 0.875,1 1,2.125 0.375,2.5 -0.625,0.375 -0.875,2.5 -0.75,4.875 0.25,2.5 -0.5,5.375 -1.5,6.625 -1.75,2.125 -1.875,1.75 -1.125,-4.25 0.375,-3.875 0.25,-6.375 -0.375,-6 -0.625,0.375 -0.875,-0.75 -0.5,-2.375 0.35157,-1.96875 0.86023,-2.94867 1.61719,-2.98438 z m 5.15235,4.04883 c 0.19185,-0.066 0.38671,0.63867 0.60546,2.06055 0.375,1.625 1.75,3.875 3,4.75 1.375,0.875 2.25,2.625 2.125,3.625 -0.25,1.125 0.375,2.25 1.375,2.625 1.25,0.375 1.5,0 0.875,-1.75 -0.625,-1.75 -0.5,-2 0.5,-1 1.125,1.125 1.125,2.125 0,4.25 -1.25,2.25 -1.125,3 0.875,4.5 2.125,1.625 2.125,1.625 0,1.75 -1.25,0 -1.875,0.5 -1.5,1.25 0.375,0.625 0.125,1.25 -0.625,1.25 -0.875,0 -1.125,-1 -0.625,-2.5 0.5,-1.375 0.25,-2.5 -0.5,-2.5 -0.875,0 -1.375,3.875 -1.375,10.625 0,7.125 -0.5,10.625 -1.375,10.625 -1.125,0 -1.25,-3 -0.625,-10.75 0.625,-7.375 0.5,-10.5 -0.375,-9.875 -0.875,0.375 -1,0 -0.625,-1.125 0.375,-1 1.5,-1.5 2.5,-1.125 1.25,0.5 1.5,0 1,-1.375 -1,-2.5 -1.125,-2.5 -3.5,0 -1.875,1.75 -2,1.75 -2,-0.25 0,-1.625 -0.375,-1.75 -1.75,-0.5 -1.75,1.375 -1.375,4.75 0.5,6.25 1,0.75 2.625,11.25 1.75,11.25 -1.25,0 -5.5,-8.375 -5.5,-10.75 0,-1.5 -1.125,-3.875 -2.5,-5.5 -2.5,-2.875 -3.25,-5 -1.75,-5 0.5,0 1.5,0.875 2.25,2 1.75,2.375 6,1 5.5,-1.75 -0.25,-1 0.375,-2.125 1.25,-2.375 0.875,-0.375 1.25,0.125 0.75,1.375 -0.5,1.375 -0.125,2 1.25,2 1.125,0 2,-0.375 2,-1 -0.125,-1.5 -3.375,-5.25 -4,-4.625 -0.25,0.375 -0.5,-0.625 -0.25,-2.25 0.28125,-2.74219 0.5229,-4.10068 0.76954,-4.18555 z m 69.50195,2.08008 c 0.73867,0.054 1.77148,0.69336 2.72851,1.85547 0.875,1.125 1.25,2.25 0.875,2.75 -1,0.875 -4.625,-1.875 -4.625,-3.5 0,-0.65625 0.28076,-1.01343 0.72461,-1.0918 0.0925,-0.0163 0.19137,-0.0214 0.29688,-0.0137 z m -78.52149,1.23047 c 0.75,0 1.25,0.25 1.25,0.5 0,0.375 -0.5,1 -1.25,1.375 -0.625,0.375 -1.25,0.125 -1.25,-0.5 0,-0.75 0.625,-1.375 1.25,-1.375 z m 53.48829,0.31836 c 0.3589,0.0183 0.79296,0.11914 1.26171,0.30664 1.125,0.5 3.25,1.25 4.625,1.625 1.375,0.375 4.625,2 7.25,3.625 3.75,2.375 5.25,2.75 6.5,1.625 1.25,-1.125 2.375,-1 4.5,0 2.125,1.25 2.5,1.125 2.125,-0.25 -0.375,-0.875 -3,-1.875 -6.125,-2.25 -3.625,-0.375 -4.625,-0.875 -3,-1.375 2.875,-0.75 6.375,0 10,2.25 2.125,1.375 2.25,1.75 0.625,2.875 -1,0.625 -2.75,0.875 -4,0.5 -1.125,-0.25 -2.375,0 -2.875,0.75 -0.375,0.625 0.25,1.375 1.5,1.375 5.375,0.375 11.625,2.375 11.625,3.75 0,0.625 1.5,0.75 3.5,0.375 3.75,-1 3.625,-0.75 -1.5,2.5 -3.375,2.125 -3.625,2.125 -2.875,0.125 0.625,-1.375 0.375,-1.875 -0.625,-1.5 -0.875,0.25 -1.5,1.375 -1.5,2.5 0.375,3.5 -4.375,3.5 -6.75,-0.125 -3.25,-5.125 -7.625,-8.375 -16.75,-12.875 -4.75,-2.25 -8.5,-4.625 -8.5,-5.25 0,-0.39063 0.39015,-0.58716 0.98829,-0.55664 z m -58.61329,0.93164 c 0.75,0 1.375,0.5 1.375,1.25 0,0.625 -0.25,1.25 -0.5,1.25 -0.375,0 -1,-0.625 -1.375,-1.25 -0.375,-0.75 -0.125,-1.25 0.5,-1.25 z m 48.49414,1.21289 c 2.97259,-0.10775 8.76368,1.56836 15.38086,4.66211 5.5,2.5 10,5.125 10,5.75 0,0.625 -0.75,0.5 -1.625,-0.25 -1,-0.75 -2.875,-1.5 -4.25,-1.75 -1.5,-0.25 -3.5,-1 -4.5,-1.875 -1,-0.875 -2.875,-1.125 -4,-0.625 -1.625,0.5 -2,0.375 -1.375,-0.625 0.5,-0.875 0.125,-1.625 -0.75,-1.75 -0.875,0 -2.125,-0.25 -2.875,-0.375 -0.625,-0.25 -2.75,-0.375 -4.625,-0.5 -2,0 -3.5,-0.75 -3.5,-1.375 0,-0.82031 0.76798,-1.23813 2.11914,-1.28711 z m -43.86914,1.28711 c 1,0 1.75,0.5 1.75,1.25 0,0.625 -1.125,1.25 -2.625,1.25 -1.375,0 -2.125,-0.625 -1.75,-1.25 0.375,-0.75 1.625,-1.25 2.625,-1.25 z m 84.95508,1.55859 c 0.36255,-0.0198 1.1543,0.0508 2.41992,0.19141 2.125,0.375 5.25,0.625 7.25,0.625 1.875,0.125 3.375,0.625 3.375,1.25 0,0.625 -1.75,1 -3.75,0.75 -2.5,-0.375 -3.5,0 -3,0.875 1.25,2 -2.25,3.5 -4.875,2 -1.75,-0.875 -2,-1.625 -1,-2.625 1.125,-1.125 1.75,-1 2.625,0.375 0.875,1.375 1.25,1.375 1.25,0.25 0,-0.875 -1.25,-2.125 -2.75,-2.75 -1.5625,-0.625 -2.14917,-0.90845 -1.54492,-0.94141 z m -47.20508,0.94141 4.75,0 c 4.625,0.125 4.75,0.25 2.5,1.875 -2.5,1.875 -2.5,1.875 0,3.75 3,2.25 4.25,2.375 4.25,0 0,-1.125 -0.75,-1.5 -1.875,-1.125 -3.25,1.25 -2,-1.5 1.375,-3 2.125,-1 2.875,-1.125 2.375,-0.125 -0.5,0.75 0.25,1.625 1.75,2 1.5,0.375 2.625,1.25 2.5,2.125 -0.375,3.75 1.875,6.75 6.125,8 3.5,1.125 4.75,1.125 5.5,-0.125 0.5,-0.875 1,-1 1,-0.375 0,0.625 0.875,0.375 1.875,-0.5 1.5,-1.25 2.375,-1.25 3.375,-0.25 0.875,0.875 1,1.875 0.5,2.375 -0.5,0.5 -1.5,0.125 -2.125,-0.875 -1.125,-1.5 -1.125,-1.375 -0.5,0.625 0.5,1.375 1,3 1.125,3.75 0.125,0.625 0.875,2.375 1.625,3.875 0.875,1.375 1,3.25 0.375,4.25 -0.75,1.25 -1.125,0.875 -1.5,-1.25 -0.375,-2.5 -0.75,-2.125 -3.25,2.875 -3.125,6.375 -4.75,7.625 -3.5,2.875 0.5,-2 0.125,-3.25 -1.125,-3.75 -1,-0.375 -1.875,-0.125 -1.875,0.625 0,0.75 -0.5,0.875 -1.25,0.5 -0.625,-0.375 -1.25,-1.375 -1.25,-2 0,-0.75 0.625,-0.875 1.5,-0.375 1,0.625 1.125,0.25 0.5,-1.375 -0.625,-1.75 -0.5,-1.875 0.875,-0.875 1,0.875 2.25,0.875 3.375,0.25 1.5,-1 1.5,-1.25 -0.5,-1.25 -1.625,0 -2.125,-0.625 -1.625,-2.375 0.375,-1.5 -0.125,-2.75 -1.25,-3.125 -1.375,-0.5 -1.625,-0.125 -1,1.75 0.5,1.375 0.25,2.5 -0.5,2.5 -0.75,0 -1.375,-1.375 -1.375,-3.125 0,-1.75 -0.625,-3.125 -1.25,-3.125 -0.75,0 -1,1.375 -0.5,3.25 0.75,3 0.625,3.25 -2,2.375 -2.375,-0.75 -2.75,-0.49995 -2.25,1.5 0.375,1.625 -0.25,3 -1.625,3.875 -2,1.25 -2.625,0.875 -4.375,-2.625 -2.125,-3.99995 -2,-4 0.375,-1.875 3.625,3.25 4.5,2.75 2.25,-1.5 -2.375,-4.625 -2.375,-4.375 0.75,-4.625 2.125,-0.25 2.25,0.125 1.125,1.625 -1.25,1.375 -1.125,1.75 0.375,1.75 2,0 3.75,-3.25 2.625,-5.125 -0.375,-0.625 -1.625,-0.625 -3.125,0.125 -1.875,1 -2.375,0.875 -2.375,-0.5 0,-1.125 0.75,-1.625 1.75,-1.25 1,0.375 2.125,0.125 2.625,-0.625 0.375,-0.875 -0.25,-1.375 -1.75,-1.375 -1.375,0 -3.125,1 -3.75,2.125 -1.25,2.125 -1.5,2.125 -3.25,-0.25 -1,-1.375 -2.25,-3.125 -2.875,-3.75 -0.625,-0.75 -2.125,-2.875 -3.25,-4.75 l -2.25,-3.375 z m -53.84375,3.05859 c -0.71802,0.0113 -1.51562,0.0352 -2.40625,0.0664 -4.25,0.125 -8.25,0.375 -8.625,0.5 -0.375,0 -2.5,2.625 -4.75,5.75 -2.75,3.875 -3.75,6.375 -3.125,7.875 2.25,5.375 1.5,6.5 -2.625,3.5 -1.01318,-0.69323 -1.61522,-1.362 -1.94531,-4.35156 -0.20954,-0.0336 -0.4824,-0.059 -0.72265,-0.0899 -0.67825,0.0871 -1.2583,0.18099 -1.70704,0.27539 l 0,6.00977 c 0.56434,-0.20446 1.15499,-0.23904 1.72657,-0.0801 0.17456,-1.23727 0.40793,-1.95933 0.64843,-1.63867 0.375,0.5 2,1.75 3.5,2.5 3.75,2.125 4.125,2 3.5,-0.875 -0.25,-1.37495 0,-2.5 0.75,-2.5 0.875,0 1.5,9.24999 1.5,25.625 0,3.50001 -0.375,4.375 -1.625,4.375 -0.75,0 -1,-1.62499 -0.625,-3.75 0.5,-3 0.25,-3.75 -1.625,-3.75 -1.25,0 -2.875,0.625 -3.75,1.5 -0.0284,0.0284 -0.0455,0.0523 -0.0723,0.0801 l 0,0.084 0,1.73828 0,0.36524 c 0.29845,0.22641 0.69116,0.46448 1.19726,0.73242 1.75,0.875 2.25,1.75 1.25,2.25 -0.75,0.5 -1.375,0.375 -1.375,-0.375 0,-0.58433 -0.45732,-0.85914 -1.07226,-0.77734 l 0,0.20898 0,1.18164 0,0.25781 c 0.20934,0.13693 0.44063,0.55528 0.69726,1.25391 0.5,1.25 1,1.25 2.375,0.125 1.375,-1.125 1.75,-1 1.75,0.125 0,1 0.375,1.375 0.75,0.875 0.5,-0.375 1.625,0.125 2.75,1.25 1.625,1.5 4,1.75 12.25,1.375 11.5,-0.625 14.875,-2.25 13.625,-6.875 -0.625,-2.75 -0.375,-2.875 3.375,-2.25 3.75,0.625 3.875,0.5 1.875,-1.125 -1.375,-1 -3,-1.625 -3.75,-1.25 -1,0.375 -1.625,-1.25 -1.875,-4.375 -0.25,-4.75 -0.125,-5 3.75,-5.5 l 4.125,-0.5 -3.875,-0.125 c -3.25,-0.25 -4.125,-0.875 -4.625,-3.75 -0.375,-1.875 -0.125,-4.125 0.625,-5 0.875,-1 0.875,-1.5 -0.125,-1.5 -2.375,0 -1.5,-2.25 1.125,-3.125 3,-1 3.25,-5.125 0.625,-8 -1,-1.125 -3.25,-3.5 -4.875,-5.25 -2.40625,-2.625 -3.56763,-3.14502 -8.59375,-3.06641 z m 73.92774,0.31836 c 0.31349,0.0425 0.75976,0.38867 1.41601,0.99805 1.125,1 2.875,1.875 3.875,1.875 2.75,0.125 7.875,3.375 6.5,4.125 -0.75,0.5 -2.375,0 -3.625,-1 -1.375,-1 -3.875,-1.375 -5.75,-1 -3.125,0.625 -3.5,0.375 -3.25,-2.5 0.15625,-1.79687 0.31153,-2.56885 0.83399,-2.49805 z m 38.69336,0.86914 c 0.39454,-0.0273 0.84765,-0.0273 1.34765,0.004 2.125,0.125 3.375,0.75 3,1.5 -0.25,0.875 -2.875,1.375 -5.75,1.375 -2.875,0 -4,-0.25 -2.375,-0.5 1.5,-0.375 2.5,-1 2.125,-1.5 -0.1875,-0.46875 0.46859,-0.79688 1.65235,-0.87891 z M 277.375,125.54102 c 0.17773,-0.0113 0.33398,0.0273 0.45898,0.12109 0.375,0.375 0,1.125 -0.75,1.625 -0.875,0.5 1.375,1.125 4.875,1.25 12,0.5 8.5,2.125 -4.625,2.125 -7.125,0 -12.25,-0.375 -11.5,-0.875 0.875,-0.5 3,-1 4.75,-1 1.875,0 4,-0.875 4.875,-1.875 0.65625,-0.84375 1.38282,-1.33594 1.91602,-1.37109 z m 122.36914,2.35351 c 0.15868,-0.0389 0.35547,0.002 0.58984,0.14258 0.625,0.375 1.375,2.125 1.625,3.875 0.5,2.5 0.375,2.875 -1,1.75 -1.64062,-1.3125 -2.32569,-5.49585 -1.21484,-5.76758 z m -6.14453,2.29102 c 1.06919,-0.10575 2.60156,1.21093 5.60937,4.47656 l 4.25,4.75 -0.5,36.875 c -0.25,20.25 -0.5,56.5 -0.375,80.625 0,24 -0.25,42.375 -0.75,40.75 -0.5,-1.75 -1.5,-3.25 -2.375,-3.625 -0.875,-0.25 -1.25,0.25 -0.875,1.25 0.625,1.5 -0.75,1.625 -6.875,1.25 -5.25,-0.375 -7.5,-0.125 -7.5,1 0,1 2.375,1.375 8.125,1 5.875,-0.25 8.125,0 8.125,1.125 0,0.875 0.75,1.625 1.625,1.625 0.75,0 0.5,0.625 -0.75,1.375 -1.625,1 -2.625,0.75 -4.125,-0.625 -2.125,-2.25 -10.5,-2.75 -10.5,-0.75 0,0.625 2,1.25 4.5,1.25 4.625,0 9.5,3.25 7.125,4.75 -0.75,0.5 -1.75,2.25 -2.25,3.75 -0.75,2.625 -0.5,2.875 1.75,2.125 1.5,-0.5 2.625,-0.25 2.625,0.5 0,0.75 -1.75,1.375 -3.875,1.375 -3.5,0 -3.875,-0.25 -3.125,-3.125 0.625,-2.5 0.375,-3.125 -1.5,-3.125 -4.125,0 -7.25,-4.875 -12.75,-19.375 -1.875,-4.875 -4,-8.625 -4.75,-8.5 -1.5,0.375 -3.125,-4.375 -5.25,-14.75 -1,-5.375 -2,-7.25 -3.75,-7.75 -1.375,-0.375 -2.5,-1.375 -2.5,-2.375 0,-1.25 0.25,-1.25 1.25,0.25 0.625,1 1.375,1.5 1.75,1.125 1.125,-1.125 -5,-40.25 -7,-44 -0.75,-1.375 -0.625,-2.125 0.375,-2.125 0.75,0 1.625,1.125 2,2.5 0.625,2.5 5.375,3.625 5.375,1.25 0,-0.75 -0.875,-1.25 -2,-1.25 -1.75,0 -2,-1.125 -1.5,-6.25 0.625,-6 0.5,-6.25 -2.625,-6.375 -1.75,-0.125 -4.25,0 -5.625,0.125 -1.5,0.125 -2,-0.375 -1.375,-1.25 0.625,-1 2.625,-1.25 5.5,-0.75 4,0.625 4.625,0.375 4.75,-1.875 0.125,-1.875 -0.25,-2.25 -1.25,-1.375 -1.875,1.375 -9.625,1.5 -9.625,0 0,-0.5 2.125,-1.125 4.75,-1.125 4.5,-0.125 4.5,-0.25 0.875,-1 -5.25,-1.25 -8.25,0.875 -7.25,4.875 1,3.875 2.25,4.75 5.875,4.125 3.375,-0.75 5.5,1.625 3.375,3.75 -1,1 -1.375,1 -1.375,-0.125 0,-0.875 -1.125,-1.5 -2.5,-1.5 -2.75,0 -3.375,2 -1,2.75 0.875,0.375 1,1.125 0.375,2.25 -0.875,1.375 -1.25,1.25 -2.375,-0.25 -1.75,-2.25 -5.75,-3.875 -5.75,-2.25 0,0.625 1,1.875 2.25,2.75 2.75,2.125 3.25,4.75 0.875,4.75 -1,0 -1.875,-0.875 -1.875,-1.875 0,-1 -0.625,-1.875 -1.5,-1.875 -3,0 2,58 5.25,60 2.25,1.375 4.25,0.25 2.75,-1.625 -2.25,-2.875 -3,-9.25 -3.5,-29.875 -0.5,-19.75 -0.375,-21.125 2,-23.5 3.125,-3.125 4.25,-3.125 3.375,0 -0.375,1.375 0.375,12 1.5,23.625 1.75,16.5 2.875,22.125 4.875,25.625 1.5,2.375 3,6.5 3.375,9.125 1.375,8 2,9.125 4.5,9.125 1.25,0 2.375,0.875 2.375,1.875 0,1 1.5,5.5 3.25,10 2.375,6 4.75,9.375 8.75,12.625 3.5,2.875 5.125,5.125 4.625,6.375 -0.375,1 0,2.375 1,3 1.375,0.875 1.375,1.125 0.125,1.125 -0.875,0 -1.25,0.625 -0.875,1.25 0.5,0.75 1.375,0.875 2.125,0.5 0.875,-0.5 1,-0.25 0.5,0.625 -0.5,0.75 -1.5,1.125 -2.125,0.75 -0.625,-0.5 -1.125,0.125 -1.125,1.125 0,2.375 1,2.5 5,0.125 4,-2.25 5,-2.25 5,-0.125 0,1 -2.125,2.125 -5.625,2.75 -4,0.875 -5.25,1.5 -4.625,2.75 0.875,1.25 2,1.125 5.625,-0.375 4.125,-1.75 4.625,-1.75 4.625,0 0,1 -1.125,1.875 -2.625,1.875 -1.375,0 -2.125,0.5 -1.75,1.25 0.5,0.75 -0.75,0.875 -3.25,0.375 -3.125,-0.625 -3.875,-0.375 -3.375,1 0.375,1 1.875,1.625 3.375,1.5 1.375,-0.25 2.625,0.25 2.625,0.875 0,0.75 -1.125,1.25 -2.5,1.25 -1.375,0 -2.5,0.625 -2.5,1.25 0,0.75 1.875,1 5,0.5 3.5,-0.625 5,-0.375 5,0.625 0,1 -1,1.25 -2.625,0.75 -1.875,-0.625 -2.375,-0.5 -1.875,0.5 0.5,0.75 1.625,1.375 2.625,1.375 1,0 1.625,1.125 1.5,2.375 -0.125,1.75 -1.375,2.625 -4.875,3.125 -4.125,0.625 -4.75,1.25 -4.75,4 0,2.625 0.375,3.125 2.25,2.375 4.375,-1.875 7.75,-2.125 7.75,-0.625 0,0.875 -1,1.125 -2.5,0.625 -1.375,-0.5 -2.5,-0.25 -2.5,0.5 0,0.75 1.125,1.375 2.5,1.375 1.375,0 2.5,0.5 2.5,1.25 0,0.75 -1.125,0.75 -3.25,0 -1.75,-0.75 -3.75,-1.25 -4.375,-1.25 -1.75,0 -1.375,4.75 0.5,5.375 1.125,0.5 1,1 -0.375,2 -1.625,1.125 -1.625,1.5 -0.125,2.5 1.375,0.875 1.25,1.375 -0.625,2.5 -2.25,1.25 -2.25,1.25 0.125,1.375 2.5,0.125 2.5,0.125 0,1.25 -2.5,1.125 -2.5,1.125 0,1.25 2.5,0.125 2.5,0.125 0,1.25 -2.5,1.125 -2.5,1.125 0,1.25 2.5,0.125 2.5,0.125 0.125,1.875 -2.5,1.875 -2.5,1.875 0,2 2.25,0 2.25,0.125 -0.125,1.25 -2.375,1.125 -2.375,1.125 0.25,0.625 3.625,-0.625 6.5,2.5 4.125,4.625 -1.25,1.25 -1.5,1.125 -0.875,-0.75 0.625,-1.625 0.125,-2.125 -2.625,-2 -1.875,0 -2.625,0.375 -1.75,0.75 0.75,0.25 1.5,1.375 1.5,2.25 0,0.875 0.75,2 1.625,2.25 0.75,0.375 -0.375,0.75 -2.625,0.75 -2.5,0.125 -3.875,-0.375 -3.375,-1.125 0.5,-0.75 1.5,-0.875 2.25,-0.375 1.125,0.625 1.125,0.375 0.125,-1 -0.875,-1 -1.75,-10.625 -2.25,-22.875 -0.5,-11.75 -1,-21.5 -1.25,-21.75 -0.375,-0.25 -1.875,0.25 -3.5,1.125 -2.5,1.375 -2.5,1.75 -0.625,2.125 1.125,0.25 2.125,1 2.125,1.75 0,0.75 -0.375,1 -0.875,0.625 -1,-1 -4.125,1.375 -4.125,3.125 0,0.75 1.125,1 2.5,0.625 1.375,-0.375 2.5,-0.125 2.5,0.5 0,0.625 -0.75,1.125 -1.75,1.125 -2.625,0 -3.625,3.75 -1,3.875 1.125,0.125 2.625,0.125 3.125,0 0.625,-0.125 0.75,0.375 0.25,1.125 -0.375,0.625 -2.25,1.375 -4.125,1.375 l -3.375,0.125 3.75,1 3.75,1 -3.75,0.25 c -3.25,0.125 -3.375,0.375 -1.25,1.25 2.375,1 2.375,1.125 -0.375,1.125 -1.625,0.125 -2.625,0.625 -2.25,1.25 0.375,0.625 1.875,0.875 3.125,0.5 1.25,-0.375 2.75,0 3.125,0.75 0.625,0.875 -0.375,1.375 -2.625,1.5 -3.125,0 -3.25,0.125 -1,1.125 2.5,1.125 2.5,1.125 0,1.25 -1.875,0.125 -1.625,0.5 1.125,1.25 2,0.625 4.125,0.875 4.75,0.5 0.5,-0.375 1,0 1,0.625 0,0.75 -0.5,1.375 -1.25,1.375 -0.625,0 -1.25,2.625 -1.25,5.75 0,4.125 0.375,5.375 1.625,4.875 0.75,-0.5 0.5,0 -0.625,1 -1.5,1.125 -1.75,2.25 -1,3.125 0.875,1.125 0.875,1.125 -0.25,0.25 -0.875,-0.75 -2.625,-1.25 -4.125,-1.125 -2.375,0 -2.375,0.125 0.375,1.125 3.375,1.5 3.625,2.5 0.25,1.625 -1.375,-0.375 -2.5,-0.125 -2.5,0.625 0,0.625 1.125,1.5 2.5,1.875 1.875,0.5 2.5,1.75 2.5,4.5 0,3 -0.375,3.625 -2.125,3 -1.25,-0.5 -1.75,-0.25 -1.25,0.5 0.5,0.75 -0.25,1.625 -1.625,2 -1.375,0.375 -2.5,0.125 -2.5,-0.5 0,-0.625 0.625,-1.125 1.375,-1.125 0.625,0 0.875,-0.625 0.375,-1.5 -0.5,-0.875 -0.375,-1 0.5,-0.5 0.875,0.5 1.5,0.25 1.5,-0.375 0,-2.25 -4,-1.5 -4.625,0.875 -0.25,1.125 -1.75,3 -3.25,4.125 -3.5,2.5 -13.75,4 -13,2 0.625,-2 10,-8.25 11.125,-7.625 0.625,0.375 1.75,0.25 2.625,-0.375 2.625,-1.625 6.125,-1.75 7.875,-0.25 1.875,1.5 2.375,0.125 0.75,-2.125 -1.375,-2.25 -4.375,-2.75 -7.125,-1.375 -2.125,1.125 -2.25,1 -0.875,-0.625 1.25,-1.625 1.25,-2.125 0,-2.625 -1.25,-0.5 -1.25,-1 -0.125,-1.75 2.75,-2 2.5,-10.375 -0.25,-10.375 -1,0 -1.875,-0.875 -1.875,-1.875 0,-1 0.5,-1.875 1.125,-1.875 1.875,0 2.25,-4.125 0.875,-6.875 -1.75,-3.125 -3.375,-4.375 -5.75,-4.375 -1.375,0.125 -1.25,0.5 0.5,1.875 2.375,1.875 2.375,1.875 -0.25,1.875 -2,0 -2.75,-0.75 -2.75,-2.625 0,-2.25 0.625,-2.625 3.75,-2.125 2.125,0.375 3.75,0.25 3.875,-0.125 0.75,-5.75 0.375,-7.5 -1.875,-8.125 -1.375,-0.375 -2.75,-0.375 -3.125,-0.125 -0.25,0.375 0.125,0.625 0.875,0.625 0.875,0 1.5,0.875 1.5,2 0,1.25 -0.75,1.75 -1.875,1.25 -1,-0.375 -1.875,-0.125 -1.875,0.375 0,0.625 0.75,1.5 1.625,1.75 0.75,0.375 0.25,0.75 -1.375,0.75 -2.75,0.125 -2.875,-0.25 -2,-3.875 0.5,-2.25 0.875,-5.125 0.75,-6.375 -0.125,-2.25 0.875,-2.625 4.25,-1.25 2,0.75 2,0.875 -0.25,1.75 -2.125,0.875 -2.125,1 0.5,1 1.875,0.125 2.75,-0.625 2.75,-2.125 0,-2.875 -2.375,-5.25 -5.25,-5.25 -2.875,0 -3,-2.5 0,-2.625 2,-0.125 2,-0.25 0,-0.75 -1.25,-0.25 -2.25,-1.125 -2.25,-1.75 0,-0.75 0.625,-0.875 1.25,-0.5 0.75,0.375 1.25,0.125 1.25,-0.5 0,-0.75 -0.5,-1.375 -1.25,-1.375 -0.625,0 -1.25,-0.5 -1.25,-1.25 0,-0.625 0.75,-0.875 1.625,-0.5 0.875,0.25 1.625,-0.5 1.75,-2 0.25,-2.75 -1.625,-3.5 -2.5,-1 -0.25,0.875 -0.875,1.25 -1.375,0.875 -0.5,-0.5 0,-1.75 1.125,-2.875 1.125,-1.125 1.5,-2 0.75,-2 -0.75,0 -1.375,-0.625 -1.375,-1.375 0,-0.625 0.625,-0.875 1.25,-0.5 0.75,0.375 1.25,0.25 1.25,-0.5 0,-0.625 -0.5,-1.375 -1.125,-1.625 -0.75,-0.25 -1.5,-2.25 -2,-4.375 -0.5,-3.125 -0.25,-4.125 1.25,-4.125 1,0 1.875,-0.625 1.875,-1.375 0,-0.75 -0.875,-1.125 -1.875,-0.625 -1.5,0.5 -1.875,-0.625 -1.875,-6.125 0,-7 -0.5,-7.75 -3.75,-5.625 -1.625,1 -1.625,1.375 -0.125,2.375 1,0.625 1.5,1.875 1.125,2.75 -0.375,1 -0.375,7.25 0.125,14 0.375,6.625 0.25,12.125 -0.25,12.125 -0.625,0 -0.125,0.875 0.875,2 2.25,2.125 1.5,4.5 -1.125,4 -1,-0.25 -1.75,0.125 -1.75,0.875 -0.125,0.625 0.75,1.25 1.625,1.25 1,0 2.25,0.5 2.875,1.125 0.5,0.625 0.375,0.75 -0.5,0.25 -0.875,-0.5 -1.625,-0.25 -1.625,0.375 0,1.125 -3.625,2.125 -3.875,1 0,-0.125 -0.25,-10.625 -0.5,-23.375 -0.75,-27.875 -1.625,-38.75 -3.375,-38.75 -0.875,0 -1,9.875 -0.375,31.5 0.5,17.375 1.125,31.875 1.375,32.125 0.25,0.25 2.125,0.5 4.25,0.5 2,0 3.75,0.625 3.75,1.25 0,0.625 -2.125,0.875 -5.125,0.5 -3.5,-0.5 -4.875,-0.25 -4.5,0.75 0.25,0.875 2.375,1.625 4.75,1.875 2.375,0.25 4.875,1 5.5,1.75 0.875,0.875 0,1 -2.75,0.375 -3.25,-0.625 -4.25,-0.375 -5.5,2 -1.125,2.125 -1.125,3 0,3.375 2.5,0.875 1.5,2.5 -1.125,1.875 -1.375,-0.375 -2.5,-1.625 -2.5,-2.75 -0.125,-2.125 -1.875,-36.5 -3.125,-58.25 -0.375,-6.875 -1.375,-20.375 -2.125,-30 -3.125,-39.5 -3.5,-53.625 -1.25,-55.875 0.875,-0.875 1.5,-2.375 1.375,-3.375 0,-1.375 -0.25,-1.5 -0.75,-0.5 -1.125,3 -2.5,1.625 -2.375,-2.125 0.125,-3.125 0.375,-3.5 1.5,-1.875 1.375,1.875 5.5,1.375 5.5,-0.75 0,-0.5 -0.75,-0.75 -1.75,-0.375 -1,0.375 -2.125,0.125 -2.625,-0.625 -0.375,-0.75 0.25,-1.375 1.5,-1.375 1.75,-0.125 1.625,-0.5 -0.875,-1.875 -3,-1.75 -3,-1.75 -0.375,-1.875 1.875,0 2.625,-0.625 2.125,-1.75 -0.375,-1 -1.5,-1.5 -2.5,-1.125 -1.25,0.5 -1.75,-0.5 -1.75,-3.75 0,-2.375 -0.5,-4.625 -1.125,-4.875 -0.5,-0.25 -1.375,-6.5 -1.625,-13.875 -0.75,-15.62503 1.25,-16.50003 2.75,-1.25 1.25,11.875 3.125,20.25 4.875,22 2.125,2.125 3.125,-0.125 1.5,-3.625 -0.75,-1.75 -1.75,-9.375 -2.25,-16.875 l -0.75,-13.5 -3.75,-1.375 c -2.125,-0.625 -4.5,-2.375 -5.5,-3.75 -2.125,-3 -7.875,-3.375 -7.875,-0.625 0,1 -1.125,1.875 -2.5,1.875 -1.375,0 -2.5,0.625 -2.5,1.375 0,0.75 1.125,1.125 2.5,0.75 1.375,-0.375 2.5,-0.125 2.5,0.5 0,0.625 -1.125,1.125 -2.5,1.125 -3.875,0 -3,2.5 1,2.625 l 3.375,0.25 -3.375,0.5 c -4.5,0.75 -4.5,2.875 0,3 2.5,0.125 2.75,0.25 0.875,0.75 -4.25,1 -5.125,2.875 -1.5,2.875 1.875,0 3.375,0.625 3.375,1.375 0,0.75 -1.125,1.125 -2.5,0.75 -1.375,-0.375 -2.875,-0.125 -3.25,0.5 -0.375,0.625 0.75,1.125 2.5,1.125 1.75,0 3.25,0.5 3.25,1.25 0,0.625 -1.125,1.25 -2.5,1.25 -3.375,0 -3.125,2.25 0.375,2.875 2.375,0.5 2.25,0.5 -0.625,0.75 -4.75,0.25 -4.375,2.625 0.375,2.625 2,0 3.5,0.5 3.125,1.125 -0.375,0.625 -1.875,0.875 -3.25,0.5 -1.375,-0.375 -2.5,-0.125 -2.5,0.625 0,0.75 1.25,1.5 2.75,1.75 3.75,0.5 4.25,3 0.75,4.125 l -2.875,1 2.875,0.5 c 3.25,0.625 3,3.625 -0.25,3.375 -2.375,-0.25 -2.625,0.875 -0.5,3 1.125,1.125 1.125,1.5 0,1.5 -0.875,0 -1.5,0.5 -1.5,1.25 0,0.625 1.5,1.25 3.25,1.25 1.875,0 2.875,0.5 2.375,1.25 -0.5,0.75 -2,1 -3.375,0.5 -2.125,-0.625 -2.5,-0.375 -1.875,1.375 0.5,1.125 0.875,2.625 0.875,3.25 0,0.625 1.125,1.125 2.5,1.125 1.375,0 2.5,0.625 2.5,1.375 0,0.75 -1.125,1.125 -2.5,0.75 -1.375,-0.375 -2.5,-0.125 -2.5,0.5 0,1 1.875,1.625 4.125,1.25 0.5,0 0.875,0.5 0.875,1.25 0,0.875 -1.25,1.125 -3.125,0.625 -4.625,-1.125 -3.75,1.125 1,2.75 l 4,1.25 -3.5,0.125 c -3.875,0.125 -3.5,2.625 0.5,2.625 1.25,0 2.375,0.625 2.375,1.375 0,0.875 -1.25,1.125 -3.125,0.875 -3.875,-0.75 -4.125,1.125 -0.25,2.875 l 2.75,1.25 -2.75,-0.625 c -1.875,-0.375 -2.875,0.125 -2.875,1.125 0,1 1.5,2 3.5,2.25 3,0.375 2.875,0.5 -1,0.75 -4.125,0.25 -4.25,0.25 -2,2 1.375,1 1.75,1.875 0.875,1.875 -0.875,0 -1.25,0.5 -0.875,1.125 0.375,0.625 1.875,0.875 3.125,0.5 1.25,-0.375 2.75,0 3.125,0.75 0.625,0.875 -0.75,1.375 -3.875,1.5 -4.75,0.125 -4.75,0.125 -1.125,1.125 2,0.625 4.125,0.875 4.75,0.5 0.5,-0.375 1,0 1,0.625 0,0.75 -1.625,1.375 -3.75,1.375 -2,0 -3.75,0.5 -3.75,1.25 0,0.625 1.75,1.25 3.75,1.25 2.125,0 3.75,0.5 3.75,1.25 0,0.625 -1.625,0.875 -3.625,0.5 -3.25,-0.75 -3.625,-0.5 -3,1.875 0.5,1.875 1.625,2.625 4.375,2.625 2.25,0 3.375,0.5 2.75,1.375 -0.375,0.75 -1.875,1.125 -3.125,0.75 -1.375,-0.375 -2.375,-0.125 -2.375,0.5 0,0.625 0.625,1.25 1.25,1.25 1.25,0.25 3,0.625 4.75,1.125 0.5,0.125 -0.5,0.625 -2.25,1.25 l -3.125,0.875 3.125,1.375 c 3.125,1.375 3.125,1.375 0.25,1.375 -1.75,0.125 -2.625,0.625 -2.125,1.5 0.5,0.75 1.625,1 2.625,0.625 1,-0.375 1.75,-0.125 1.75,0.5 0,0.75 -1.125,1.25 -2.5,1.25 -3.875,0 -3,2.5 1,2.625 1.875,0 2.5,0.375 1.5,0.75 -5.375,1.75 -5.5,2 -1.875,2.875 3,0.75 3.125,1 1,1.125 -3.5,0.125 -3.875,2.625 -0.375,2.625 1.375,0 2.5,0.5 2.5,1.25 0,0.625 -0.875,1.25 -1.875,1.25 -1,0 -1.875,0.5 -1.875,1.25 0,0.625 0.875,1.25 1.875,1.25 1,0 1.875,0.625 1.875,1.375 0,0.75 -1.125,1.125 -2.5,0.75 -1.625,-0.375 -2.5,0 -2.5,1.125 0,1 0.75,1.75 1.625,1.875 1.25,0 1.25,0.25 0,0.75 -2.875,1.125 -1.875,3.875 1.25,3.375 2.5,-0.5 2.375,-0.375 -0.375,0.75 l -3.125,1.375 3.125,1.75 3.125,1.75 -2.875,0.125 c -1.875,0 -2.75,0.625 -2.375,1.5 0.25,0.875 1.75,1.5 3.125,1.25 1.5,-0.25 2.75,0.25 2.75,0.875 0,0.75 -1.375,1.375 -3.125,1.375 -1.75,0 -3.125,0.5 -3.125,1.25 0,0.625 1.375,1.25 3.125,1.25 1.75,0 3.125,0.5 3.125,1.25 0,0.625 -1.375,1.25 -3.125,1.25 -1.75,0 -3.125,0.5 -3.125,1.25 0,0.625 1.375,1.25 3.125,1.25 1.75,0 3.125,0.5 3.125,1.25 0,0.625 -1.5,1.25 -3.25,1.25 -1.75,0 -2.875,0.5 -2.375,1.25 0.375,0.625 1.875,1.25 3.25,1.25 1.25,0 2.375,0.5 2.375,1.25 0,0.625 -1.375,1.25 -3.125,1.25 -1.75,0 -3.125,0.625 -3.125,1.375 0,0.875 1.25,1.125 3.125,0.875 2.125,-0.5 3.125,-0.125 3.125,1 0,1 -0.625,1.625 -1.375,1.375 -0.75,-0.125 -1.75,0.5 -2,1.5 -0.5,1.25 0.125,1.375 2.25,0.75 2.625,-0.875 2.75,-0.75 0.875,1.125 -2.25,2.125 -6.625,2.625 -7.875,0.875 -0.375,-0.625 -0.875,-9 -1.25,-18.5 -0.75,-18.625 -1.625,-32.5 -2.5,-38.5 -0.25,-2.125 -0.625,-8.375 -0.75,-14.125 -0.125,-9.75 -1.25,-11.875 -2.75,-5.875 -0.375,1.375 -0.5,-11.25 -0.25,-28.125 0.625,-34.50001 0.25,-38.75 -3.25,-38.75 -1.375,0 -2.375,-0.625 -2.375,-1.25 0,-0.75 1.125,-1.25 2.5,-1.25 1.375,0 2.5,-0.625 2.5,-1.375 0,-0.75 -1.125,-1 -2.625,-0.5 -2,0.625 -2.5,0.375 -2.125,-0.75 0.375,-1 1.625,-1.625 2.75,-1.625 1.25,0.125 2,-0.75 2,-2.125 0,-1.375 -0.75,-2.375 -1.5,-2.5 -1.125,0 -1.125,-0.25 -0.25,-0.625 1,-0.375 1.25,-3.25 0.75,-8.625 -0.375,-5.875 -0.125,-8.125 0.875,-8.125 0.875,0 1.125,0.5 0.75,1.25 -1.5,2.375 3,1.25 4.625,-1.125 1,-1.375 3.375,-2.625 5.375,-3 3.25,-0.375 3,-0.5 -1.125,-0.75 -5.625,-0.125 -4.875,-2.125 1.125,-3 2.875,-0.375 2.5,-0.5 -1.75,-0.75 -6.125,-0.125 -6.125,-1.125 0.125,-2.75 l 4.125,-1 -4.75,0.25 c -2.875,0.25 -4.5,-0.125 -4.25,-0.875 0.25,-0.75 2.5,-1.5 5,-1.75 4.25,-0.375 4.75,5e-5 9.125,6.5 l 4.625,7 2.25,-2.75 c 1.375,-1.375 2.375,-2.375 2.5,-2.125 0,0.25 0.375,1.625 0.625,3 1,3.875 0.5,11.12499 -0.75,12.375 -0.75,0.75 -1.25,5.25 -1.25,10.25 l 0,8.875 6.625,1.25 6.5,1.25 -6.5,0.25 c -3.625,0 -6.625,0.625 -6.625,1.375 0,1.25 4.125,1.75 10,1.25 4.25,-0.375 4.875,-0.875 4.125,-3.625 -0.5,-1.875 -2.125,-2.625 -6.75,-3.25 -4.125,-0.625 -6.125,-1.5 -6.125,-2.75 0,-1 0.5,-1.5 1.125,-1 0.625,0.375 3.75,1.125 6.875,1.75 4.5,0.875 5.75,0.75 5.75,-0.625 0,-1 0.375,-1.75 1,-1.75 0.5,0 0.75,5.37499 0.5,11.875 -0.25,7.375 0,11.875 0.875,11.875 2.5,0 2.625,-4.875 1.125,-31.125 -0.25,-3.25 -1.125,-5.75 -2,-6.125 -1.25,-0.375 -1.5,0.5 -0.875,3.875 0.5,2.62501 0.375,4.625 -0.5,5.125 -0.875,0.625 -1.375,-1.12499 -1.375,-5.375 0,-6.87501 1.125,-7.75001 5.25,-3.875 3.625,3.375 4.5,3.125 5.875,-1.625 0.625,-2.125 1.25,-3.25 1.25,-2.5 0.125,0.875 0.625,1.625 1.25,1.625 1.875,0 2.75,-4.375 1.625,-7.625 -0.875,-2.125 -0.625,-3.875 0.75,-5.75 1.375,-2.25 1.375,-2.875 0.25,-2.875 -1.25,0 -1.125,-0.625 0.25,-2.25 1,-1.125 2.25,-3 2.625,-4.25 0.375,-1.125 2.375,-2.375 4.5,-2.875 2.125,-0.5 4.125,-1.375 4.5,-2 0.39063,-0.58594 0.77963,-0.92849 1.26563,-0.97656 z m -57.82813,0.10156 c 0.125,-0.0625 0.3125,0.1875 0.5625,0.75 0.375,0.875 2,2.125 3.625,2.75 3.375,1.375 4.125,4.125 0.875,2.875 -3.625,-1.25 -5.375,-3 -5.25,-5.25 0,-0.6875 0.0625,-1.0625 0.1875,-1.125 z m -60.3125,1 c 0.75,0 1.25,0.5 1.25,1.25 0,0.625 -0.5,1.25 -1.25,1.25 -0.625,0 -1.25,-0.625 -1.25,-1.25 0,-0.75 0.625,-1.25 1.25,-1.25 z m 7.43946,0.48633 c 2.24562,0.053 2.88867,0.76367 3.43554,3.38867 0.375,2 1.25,3.625 1.75,3.625 0.625,0 0.25,1.375 -0.75,3 -1.375,2 -1.625,3.25 -0.625,3.875 0.75,0.375 0.875,1.375 0.5,2.125 -0.5,0.625 -0.75,3.75 -0.75,6.75 0.125,4 -0.375,5.5 -1.625,5.5 -1.375,0 -1.875,-1.625 -1.875,-6.25 0,-5.125 0.375,-6.25 2.25,-6.375 1.875,-0.125 1.875,-0.25 -0.125,-0.75 -1.375,-0.375 -2,-1.25 -1.625,-2.375 0.5,-1.25 -0.5,-2.375 -3,-3.25 -2.125,-0.625 -3.75,-2 -3.75,-3 0,-1 -0.625,-1.75 -1.375,-1.75 -0.625,0 -0.875,0.625 -0.375,1.5 0.625,0.875 0.25,1.125 -1.125,0.625 -1.125,-0.375 -2.25,-0.125 -2.625,0.75 -0.25,0.875 -0.625,0.25 -0.625,-1.375 -0.125,-2.375 0.5,-2.75 4.25,-2.75 3.375,0 4.375,0.5 4.375,2.25 0,1.375 1,2.25 2.5,2.375 2,0.125 2.5,-0.25 1.875,-2.25 -0.5,-1.375 -0.25,-2.375 0.625,-2.375 0.75,0 1.125,-0.5 0.75,-1.125 -0.375,-0.5 -2.125,-0.75 -3.875,-0.375 -1.75,0.25 -3.125,0 -3.125,-0.5 0,-0.625 1.75,-1.125 3.875,-1.25 0.39063,-0.0156 0.74366,-0.0213 1.06446,-0.0137 z m 4.58203,0.61328 0,0.002 c 0.853,0.10588 2.15039,0.95704 2.47851,2.02344 0.5,1 1.25,1.5 1.875,1.125 1.25,-0.75 1.5,1.125 0.375,2.375 -0.75,0.75 -5.5,-3.625 -5.5,-5 0,-0.3125 0.17188,-0.47656 0.4375,-0.52149 0.0996,-0.0169 0.21214,-0.0184 0.33399,-0.004 z m -17.89649,0.15039 4,0.125 -3.5,1.875 c -2.875,1.5 -3.125,2.125 -1.75,3.5 1,1.125 1.5,3.50005 1.125,6.25 -0.625,5.625 -1.25,5.375 -1.875,-0.875 -0.25,-2.49995 -1.25,-5.375 -2,-6.375 -2.25,-2.75 -0.625,-4.5 4,-4.5 z m 43.25,2.5 c 0.75,0 1.625,0.5 2,1.25 0.375,0.625 -0.125,1.25 -1.125,1.25 -1.125,0 -2,-0.625 -2,-1.25 0,-0.75 0.5,-1.25 1.125,-1.25 z m 59.25,0.40625 c 0.3125,0.0312 0.625,0.34375 1,0.96875 0.5,0.875 0.625,2.125 0.375,2.625 -0.375,0.5 0,1 0.625,1 0.75,0 1.375,-0.625 1.375,-1.25 0,-0.75 0.625,-1.25 1.25,-1.25 2.25,0 1.25,2.25 -1.25,3.125 -1.5,0.5 -2.125,1.37505 -1.75,2.25 0.5,0.875 0.5,1.125 0,0.625 -0.5,-0.375 -0.75,-1 -0.5,-1.375 0.25,-0.24995 -0.375,-1.375 -1.25,-2.5 -1,-1.125 -1.375,-2.625 -0.875,-3.5 0.375,-0.5 0.6875,-0.75 1,-0.71875 z m -55.6289,2.82031 c 0.64455,-0.0234 1.1914,0.0548 1.5039,0.27344 0.25,0.25 -0.25,0.875 -1.25,1.5 -2.375,1.5 -5,1.625 -5,0.125 0,-0.84375 2.81254,-1.82813 4.7461,-1.89844 z m 149.81445,0.61719 c -0.006,10e-4 -0.0112,0.003 -0.0176,0.004 -2e-4,0.0439 -7e-4,0.0892 -0.002,0.13281 0.0125,0.006 0.0249,0.0136 0.0371,0.0195 0.002,-0.0285 0.002,-0.0602 -0.008,-0.11719 -0.002,-0.0132 -0.006,-0.0262 -0.01,-0.0391 z m -192.76562,1.8457 c 0.17363,-0.0113 0.3562,-0.008 0.54297,0.01 1.24513,0.11962 2.6621,0.86333 2.6621,1.80078 0,0.875 -1.625,0.875 -4.75,0.125 -0.25,-0.125 -0.125,-0.625 0.375,-1.375 0.21094,-0.35156 0.64903,-0.5256 1.16993,-0.56055 z m 78.2207,0.56055 c 0.0781,-0.0625 0.60937,0.31255 1.60937,1.125 1.625,1.375 2.125,1.375 2.125,0.125 0,-0.99995 0.375,-1.375 0.75,-0.875 0.5,0.375 0.25,2.5 -0.5,4.5 -1.25,3.625 -1.25,3.875 1.875,3.875 2.375,0 3,0.5 2.375,2.125 -0.5,1.125 -0.125,2.5 0.75,3.125 1.125,0.625 0.375,1 -2.125,1.125 -3.25,0 -3.375,0.25 -1.25,1.125 2.375,1 2.375,1.125 -0.25,1.125 -3.125,0.125 -3.75,-2.25 -1.25,-4.75 1.25,-1.25 1.125,-1.75 -0.625,-2.75 -1.25,-0.625 -1.75,-2.125 -1.375,-3.625 0.375,-1.375 -0.125,-3.5 -1,-4.75 -0.8125,-0.93745 -1.1875,-1.4375 -1.10937,-1.5 z m -72.51563,1.25 c 0.75,0 1.125,0.5 0.75,1.125 -0.5,0.625 -0.875,5.875 -0.875,11.625 -0.125,9.625 -0.25,10.25 -2,7.5 -1.125,-1.5 -2.875,-2.75 -4.125,-2.75 -1.875,0 -2.25,-1.125 -2.25,-6.25 0,-3.375 0.5,-6 1,-5.625 1.75,1.125 4.75,-0.75 5.375,-3.25 0.375,-1.25 1.25,-2.375 2.125,-2.375 z m 97.625,0 c 0.625,0 1.125,0.75 1.125,1.625 0,1 -0.75,1.75 -1.75,1.75 -1,0 -1.5,-0.75 -1.125,-1.75 0.375,-0.875 1.125,-1.625 1.75,-1.625 z m -53.17187,0.0195 c 1.37466,0.003 3.05469,0.71484 3.54687,1.98047 0.375,1.125 0.75,3.125 0.75,4.625 0,2.125 -0.25,2.375 -1.125,1 -0.625,-1 -2,-1.375 -3.125,-1 -1.25,0.5 -2,0.125 -2,-1 0,-1 0.875,-1.875 2,-1.875 1,0 1.5,-0.625 1.125,-1.25 -0.5,-0.75 -1.375,-1 -2,-0.625 -0.625,0.5 -1.125,0.125 -1.125,-0.5 0,-0.92968 0.88394,-1.35738 1.95313,-1.35547 z m -20.96094,0.85938 c 0.59875,-0.27604 1.28125,4.31641 1.63281,10.99609 0.5,6.875 0.375,13 -0.125,13.5 -1.25,1.375 -2.875,-22.5 -1.625,-24.375 0.039,-0.0625 0.0773,-0.10259 0.11719,-0.12109 z m -29.74219,0.87109 c 1.375,0 2.5,0.375 2.5,0.75 0,1.625 -1.5,2.375 -3.25,1.625 -2.625,-1 -2.125,-2.375 0.75,-2.375 z m -10.25,2 c -0.625,0 -1,1.625 -1,3.75 0,3.125 -0.5,3.75 -3.125,3.75 -1.75,0 -3.125,-0.625 -3.125,-1.25 0,-0.75 1.125,-1.25 2.5,-1.25 1.375,0 2.5,-0.625 2.5,-1.375 0,-0.59378 -0.70947,-0.86606 -1.68554,-0.70899 -0.0891,0.16732 -0.29091,0.18374 -0.60352,0.14454 -0.0707,0.0221 -0.13866,0.0381 -0.21094,0.0645 -1.28865,0.42955 -1.9096,0.41698 -2.16796,-0.51367 -0.17347,-0.0289 -0.41976,-0.0538 -0.61329,-0.082 -0.38185,0.0558 -0.6629,0.0959 -0.96875,0.15234 l 0,9.98633 c 0.0759,0.0201 0.152,0.0398 0.22852,0.0605 0.39635,-0.1075 0.789,-0.2092 1.15625,-0.28906 l -0.13477,-3.68945 4.125,0 c 3.75,0 4,-0.25 4,-4.375 0,-2.375 -0.375,-4.375 -0.875,-4.375 z m 109.46875,0.29687 c 0.25,-0.0781 0.34375,0.64063 0.53125,2.07813 0.25,1.625 -0.125,3.5 -0.875,4.25 -2.25,2.25 -2.875,0.125 -1.125,-3.625 0.8125,-1.75 1.21875,-2.625 1.46875,-2.70313 z m -4.59375,2.20313 c 0.25,0 0,1.5 -0.375,3.375 -0.875,3.75 -3,6.875 -3,4.375 0,-1.5 2.625,-7.75 3.375,-7.75 z m 8.32813,0.26562 c 0.23437,0.0469 0.48437,0.60938 0.92187,1.73438 0.5,1.25 1,2.75 1,3.25 0.125,0.625 -0.5,1 -1.25,1 -0.625,0 -0.875,-0.625 -0.5,-1.25 0.375,-0.75 0.25,-1.25 -0.5,-1.25 -0.75,0 -0.875,-1 -0.5,-2.125 0.375,-0.9375 0.59375,-1.40625 0.82813,-1.35938 z m -68.20313,2.23438 c 2.375,0 2.75,0.75 2.75,5.75 0,3.75 -0.5,5.375 -1.375,4.75 -0.75,-0.375 -1,-2 -0.625,-3.375 0.375,-1.5 -0.25,-3.625 -1.375,-4.875 -1.875,-2.125 -1.875,-2.25 0.625,-2.25 z m 11.875,0.125 c 0.625,0 0.75,0.375 0.375,1 -1,1.5 -6.875,2.5 -7.625,1.25 -0.375,-0.5 0.875,-1.25 2.75,-1.5 2,-0.25 4,-0.625 4.5,-0.75 z m -52.375,1.125 c 0.375,0 1,0.5 1.375,1.25 0.375,0.625 0.125,1.25 -0.5,1.25 -0.75,0 -1.375,-0.625 -1.375,-1.25 0,-0.75 0.25,-1.25 0.5,-1.25 z m 67.5625,1.29687 c 1,-0.0469 2,0.26563 2.4375,0.95313 0.25,0.5 0.875,3 1.375,5.625 0.75,4 0.625,4.625 -1.375,4.75 -2.25,0.125 -2.25,0.125 -0.125,0.75 1.875,0.5 2.25,1.375 1.625,4.5 -1.125,6 -0.75,33.875 0.5,38 0.75,2.375 1,-0.125 0.625,-8.375 -0.375,-9.75 -0.25,-10.625 0.625,-5 1.625,10.75 1.5,19.75 -0.25,20.5 -1.125,0.5 -1.125,1 -0.25,1.375 0.75,0.375 1.125,3.875 1,8.5 -0.25,4.875 0.25,8 1.125,8.625 1.125,0.75 1.125,1 0,1 -0.875,0 -1.625,0.625 -1.625,1.375 0,0.625 0.5,1 1,0.625 0.625,-0.375 0.875,1.625 0.625,4.5 -0.25,2.75 0,8.875 0.75,13.375 2,12.125 3.625,46.875 4.375,87.125 0,6.375 0.625,11.25 1.125,10.875 0.625,-0.375 0.875,0.5 0.625,1.875 -0.25,1.375 0.75,3.75 2,5.125 3,3.25 3.125,4 3.375,17 0.25,11.625 1.25,14.375 5.5,14.375 1.75,0 3.125,0.625 3.125,1.375 0,0.625 1,1.125 2.25,1 4.75,-0.375 5.875,0.25 2.75,1.875 -1.75,0.875 -5.375,1.375 -8.375,1 l -5.25,-0.5 -0.75,-8.25 c -2.5,-26.75 -2.375,-25.875 -5,-26.125 -1.375,-0.25 -1.75,0 -0.875,0.375 0.75,0.375 1.25,1.25 0.75,1.875 -0.375,0.625 0.125,1.125 1,1.125 1.125,0 1.125,0.375 -0.25,1.25 -1.625,1 -1.625,1.25 0,1.25 1.375,0 1.375,0.375 0.25,1.5 -1,1 -1.125,1.875 -0.125,3.125 1.125,1.25 0.875,1.625 -0.875,1.625 -2.25,0.125 -2.25,0.125 0.125,2 2.125,1.625 2.25,2 0.625,3 -1.625,1 -1.5,1.25 0.375,1.25 1.125,0 2.125,0.625 2.125,1.375 0,0.75 -0.875,1.125 -1.875,0.625 -2.5,-0.875 -2.375,1.375 0.125,2.75 1.125,0.625 1.5,1.5 0.875,1.875 -1.625,1 -0.5,8.375 1.25,8.375 0.625,0 0.25,1.125 -1,2.5 -3.375,3.625 -4.25,3.125 -3.5,-2.125 0.5,-2.875 0.25,-4.25 -0.5,-3.75 -0.75,0.5 -1.25,-6.25 -1.375,-18.875 -0.125,-10.75 -0.5,-22.5 -0.875,-25.875 -0.75,-8.375 -1.75,-25.75 -2.5,-41.875 -1,-23.75 -2,-40.5 -3.125,-52.5 -0.625,-6.5 -1.5,-17 -1.875,-23.125 -0.375,-6.25 -1.25,-16.875 -1.875,-23.75 -0.625,-6.875 -1.5,-20.375 -2,-30 -0.375,-9.625 -1,-17.875 -1.375,-18.5 -0.25,-0.5 -0.125,-1.5 0.25,-2.125 0.4375,-0.75 1.4375,-1.15625 2.4375,-1.20313 z m 39.07813,0.0781 c 0.32812,0 0.35937,0.375 0.35937,1.125 0,0.625 -1,1.25 -2.125,1.25 -1.875,0 -2,-0.25 -0.375,-1.25 1.1875,-0.75 1.8125,-1.125 2.14063,-1.125 z m -55.16406,1.62109 c 1.29028,0.0207 1.08593,0.59766 0.14843,2.00391 -0.75,1.25 -2.375,2 -3.875,1.75 -1.5,-0.375 -1.875,-0.125 -1,0.25 1.25,0.625 1.25,1.125 0.125,2.5 -1.25,1.5 -0.875,1.75 1.5,1.5 2.375,-0.25 2.875,0.125 2.625,2 -0.375,2.25 -0.25,2.375 1.875,0.625 2,-1.625 2.125,-1.5 0.625,0.375 -0.875,1.125 -3,2.375 -4.625,2.75 -1.75,0.5 -3.125,1.375 -3.125,2.125 0,0.75 1.125,1.125 2.5,0.75 1.375,-0.375 2.25,-0.125 1.75,0.5 -0.375,0.625 -1.625,1.125 -2.75,1.25 -1.375,0 -1.5,0.375 -0.5,0.75 2,0.75 2,2.875 -0.125,2.875 -0.875,0 -1.625,1.25 -1.75,2.75 -0.25,2.625 -0.125,2.75 1.375,0.625 2.125,-2.75 3.375,-2.75 2.375,0 -0.5,1.375 -0.375,1.75 0.625,1.125 0.875,-0.5 1.5,-0.375 1.5,0.375 0,0.625 1.125,1 2.5,0.75 1.375,-0.25 2.5,0.125 2.5,0.75 0,1 -12.125,0.375 -13.5,-0.75 -0.625,-0.5 -0.375,-4.5 0.5,-9.75 0.625,-3.875 0.375,-4.625 -1.375,-4.625 -1.75,0 -2,0.75 -1.375,4.375 0.625,3.375 0.5,4.375 -0.875,4.375 -2.125,0 -2.5,-5.625 -0.625,-9.125 0.875,-1.75 1.625,-1.875 3.5,-0.875 2.375,1.25 2.5,0.875 2.5,-4.875 0,-5.50001 0.375,-6.25 2.875,-6.625 2.01563,-0.32813 3.32739,-0.51634 4.10157,-0.50391 z m 147.52148,0.8086 c -1.7e-4,0.0594 1.6e-4,0.13004 0,0.18945 0.43728,-0.029 0.75554,-0.0504 1.24805,-0.0879 -0.41053,-0.0314 -0.81997,-0.0642 -1.24805,-0.10156 z m 1.24805,0.10156 c 0.27689,0.0211 0.52736,0.0422 0.78906,0.0605 -2e-4,-0.04 1.8e-4,-0.085 0,-0.125 -0.26797,0.0223 -0.52949,0.0446 -0.78906,0.0645 z m -1.24805,0.12891 c -7e-5,0.0203 5e-5,0.0442 0,0.0644 0.30843,-0.009 0.8604,-0.023 1.24805,-0.0332 -0.38781,-0.01 -0.77594,-0.0192 -1.24805,-0.0312 z m 1.24805,0.0312 c 0.24522,0.006 0.57591,0.0138 0.78906,0.0195 -7e-5,-0.0125 5e-5,-0.0266 0,-0.0391 -0.2784,0.007 -0.54397,0.0132 -0.78906,0.0195 z m -95.10742,0.96484 c 0.38723,0.0681 0.61132,0.73827 0.61132,1.96875 0,1 -0.625,1.5 -1.25,1.125 -0.75,-0.50001 -1,-1.375 -0.625,-2 0.42188,-0.65625 0.79127,-1.01418 1.0879,-1.08594 0.0618,-0.015 0.12049,-0.0178 0.17578,-0.008 z m -103.76954,1.78516 c 0.0761,0.0195 0.16211,0.12113 0.25586,0.30859 0.25,0.875 0.25,2.375 0,3.125 -0.375,0.875 -0.625,0.25 -0.625,-1.5 0,-1.31251 0.14063,-1.99218 0.36914,-1.93359 z m -14.14062,0.52539 c -0.0779,0.0198 -0.15083,0.0351 -0.22852,0.0547 l 0,1.3086 c 0.43772,0.006 0.87214,-0.004 1.30079,-0.0312 0.0736,-0.009 0.10449,-0.0113 0.17382,-0.0195 l -0.0371,-1.02344 c -0.39133,-0.0854 -0.79723,-0.18481 -1.20898,-0.28906 z m 102.84375,1.01757 c 0.30461,0.009 0.61523,0.0546 0.92773,0.14063 2.5,0.625 2.5,0.75 0.375,2.375 -1.875,1.25 -2.5,1.25 -3.375,0 -0.625,-1 -1,-0.75 -1,0.875 0,1.875 0.625,2.125 3.75,1.5 3.75,-0.75 4.375,0 3,3.5 -0.75,2 -3.75,2.625 -7.25,1.25 -4.45312,-1.75781 -0.99713,-9.77795 3.57227,-9.64063 z m -85.19727,0.39063 c 1.125,0 2.625,1.125 3.375,2.625 0.875,1.375 1.125,2.875 0.75,3.375 -0.375,0.375 -0.75,-0.125 -0.75,-1.125 0,-1.375 -0.25,-1.375 -1,-0.125 -0.75,1.12501 -2,1.25001 -4,0.5 -2.375,-0.875 -2.625,-1.25 -0.875,-1.875 1.25,-0.5 2.125,-0.25 2.125,0.5 0,0.75 0.625,0.875 1.5,0.375 0.875,-0.625 0.625,-1.375 -0.875,-2.625 -2.125,-1.375 -2.125,-1.625 -0.25,-1.625 z m -10.58984,2.50781 c 0.60406,0.0401 1.08984,0.64844 1.08984,1.74219 0,1 -0.75,1.5 -1.75,1.125 -0.875,-0.375 -1.25,-1.125 -0.875,-1.75 0.375,-0.65625 0.83742,-1.01465 1.26954,-1.09961 0.09,-0.0178 0.17932,-0.0234 0.26562,-0.0176 z m 24.14063,0.14844 c 0.0336,-0.01 0.0752,-0.008 0.125,0.006 0.23878,0.0659 0.66796,0.40039 1.32421,0.96289 1.125,0.875 1.75,2.125 1.375,2.75 -0.375,0.625 0,1.125 0.875,1.125 2.75,0 0.25,1.375 -4.125,2.375 -4.125,1 -4.25,0.875 -4.25,-3 0,-2.875 0.5,-3.875 1.625,-3.5 0.875,0.375 1.375,1.125 1,1.625 -0.375,0.5 0.25,1.375 1.375,1.75 1.5,0.625 1.75,0.12501 1,-2 -0.41015,-1.36719 -0.55981,-2.0244 -0.32421,-2.09375 z m 180.55078,2.75 c -7e-5,0.0277 6e-5,0.0562 0,0.084 0.26161,0.001 0.56926,-0.002 0.81054,0 -0.23136,-0.0211 -0.55924,-0.0596 -0.81054,-0.084 z m 2.10156,0.0449 c -0.11063,0.01 -0.2666,0.0294 -0.37305,0.0391 0.11663,-0.001 0.25184,-0.002 0.37305,-0.004 -6e-5,-0.0118 3e-5,-0.0235 0,-0.0352 z m -188.84375,0.86133 c 0.57812,0.0312 1.01562,0.3125 1.01562,0.8125 0,0.625 -0.5,1.75 -1.125,2.625 -0.875,1.375 -1.125,1.375 -1.75,-0.125 -0.375,-1 -0.375,-2.25 0,-2.625 0.5625,-0.5 1.28125,-0.71875 1.85938,-0.6875 z m -9.61524,0.83984 c 0.87525,-0.01 1.67774,0.20703 2.00586,0.72266 0.375,0.5 1.5,0.875 2.375,0.625 0.875,-0.25 1.875,0.375 2.125,1.125 0.375,1 -0.375,1.625 -1.75,1.625 -3.5,0 -7.875,-1.375 -7.875,-2.5 0,-0.9375 1.66044,-1.58178 3.11914,-1.59766 z m 90.82032,5.45313 c 1.32105,0.0222 2.60742,0.48828 2.93554,1.14453 0.875,1.5 -0.25,1.5 -3.75,0 -2.375,-1 -2.375,-1.125 0.25,-1.125 0.1875,-0.0156 0.37573,-0.0228 0.56446,-0.0195 z m -103.9336,7.24219 c -0.27913,0.19351 -0.53453,0.39971 -0.76172,0.62304 0.25514,0.0727 0.50259,0.18875 0.74219,0.33399 0.006,-0.318 0.0113,-0.67592 0.0195,-0.95703 z m -2.50586,0.45507 0,0.24219 c 0.0825,-0.0299 0.16234,-0.0736 0.2461,-0.0957 -0.0793,-0.0475 -0.14582,-0.0884 -0.2461,-0.14649 z m 57.66016,5.06055 c 0.1743,0.01 0.37109,0.0586 0.58984,0.13672 1.125,0.375 2.5,0.75 3.125,0.75 0.625,0 1.125,0.5 1.125,1.25 0,0.625 -0.75,0.875 -1.75,0.5 -1,-0.375 -2.125,-0.125 -2.625,0.625 -0.75,1.375 1.5,1.875 5.875,1.5 1.125,-0.125 2.375,0.375 2.875,1.125 0.5,0.75 -0.875,1.25 -3.625,1.25 -2.375,0 -4.75,0.625 -5.125,1.25 -0.5,0.875 0.25,1.125 2.375,0.5 4,-1 4.25,0.375 0.375,1.875 -1.625,0.625 -2.875,2.25 -3,3.75 -0.25,2.5 1.375,3.125 6.875,3 0.875,-0.125 1.375,0.5 1.125,1.375 -0.25,0.75 -1.375,1.25 -2.625,1 -1.125,-0.25 -2,0.25 -2,1 0,0.625 -0.875,1.25 -1.875,1.25 -2.25,0 -2.5,-2 -0.25,-2.875 0.875,-0.375 0.625,-0.75 -0.625,-0.75 -2,-0.125 -2.25,-1.5 -2.25,-9.625 0,-7.10938 0.18992,-8.95507 1.41016,-8.88672 z m 8.33984,2.13672 c 1.5,0 2.75,0.5 2.75,1.25 0,1.625 -1.375,1.625 -3.75,0 -1.5,-1 -1.375,-1.25 1,-1.25 z m 48.36914,1.86133 c 0.0761,-0.01 0.16211,0.0761 0.25586,0.26367 0.25,0.875 0.25,2.625 0,3.75 -0.375,1.25 -0.625,0.5 -0.625,-1.5 0,-1.59375 0.14073,-2.48437 0.36914,-2.51367 z m -46.71484,4.50586 c 0.76758,0.0704 1.0957,0.35156 0.7207,0.63281 -0.375,0.375 -1.5,0.5 -2.375,0.125 -1,-0.375 -0.625,-0.75 0.75,-0.75 0.34375,-0.0312 0.64843,-0.0312 0.9043,-0.008 z m -0.2793,2.38281 c 1.375,0 1.375,0.375 0.125,1.875 -1.125,1.25 -1.125,1.875 -0.125,1.875 0.75,0 1.375,1 1.25,2.125 0,1.375 -0.375,1.625 -0.75,0.625 -0.25,-0.75 -1.375,-1.5 -2.25,-1.5 -1,0 -2.125,-0.625 -2.625,-1.375 -0.875,-1.5 1.625,-3.625 4.375,-3.625 z m 146.79102,4.15625 c -0.5108,0.17455 -1.04405,0.21497 -1.5625,0.0937 0.33945,0.53919 0.6985,0.73596 1.62695,0.66797 -8.5e-4,-0.2522 0,-0.4688 -0.002,-0.7207 -0.0205,-0.0136 -0.0419,-0.0274 -0.0625,-0.041 z m -1.80859,18.1875 c 0.18552,0.46442 0.16453,0.42898 0.58398,1.4082 1.57725,0.99726 0.55744,-0.0357 -0.58398,-1.4082 z m -209.95508,2.21094 c -0.0428,0.0182 -0.0714,0.0235 -0.11328,0.041 0.0396,0.0528 0.0765,0.0983 0.11523,0.14844 -3.2e-4,-0.0642 -1.6e-4,-0.12857 -0.002,-0.18945 z m 77.47265,10.44531 c 0.75,0 1.375,0.5 1.375,1.25 0,0.625 -0.25,1.25 -0.5,1.25 -0.375,0 -1,-0.625 -1.375,-1.25 -0.375,-0.75 -0.125,-1.25 0.5,-1.25 z m 131.99414,9.01562 c -6e-5,0.2107 2.4e-4,0.4155 0,0.6211 0.0436,-0.0299 0.082,-0.0521 0.12696,-0.084 -0.045,-0.17836 -0.086,-0.35748 -0.12696,-0.53711 z m -141.27734,9.34766 c 0.27165,-0.0998 0.63477,2.62499 1.0332,8.13672 0.25,4 0,7.25 -0.625,7.25 -0.5,0 -1,-3.75 -0.875,-8.5 0.0586,-4.51173 0.2271,-6.79869 0.4668,-6.88672 z m -67.90234,14.69922 c -0.024,0.0188 -0.0491,0.043 -0.0723,0.0586 0.0234,0.006 0.0494,0.0112 0.0723,0.0176 -8e-5,-0.0249 7e-5,-0.0493 0,-0.0742 l 0,-0.002 z m 69.03711,3.41211 c 0.0859,-0.0215 0.17968,0.0254 0.27343,0.15039 0.375,0.375 0.5,1.5 0.125,2.375 -0.375,1 -0.75,0.625 -0.75,-0.75 -0.0937,-1.03125 0.0937,-1.71094 0.35157,-1.77539 z m -71.78907,1.25586 c -5e-5,0.0175 4e-5,0.0354 0,0.0527 0.0333,0.0179 0.0651,0.0351 0.0977,0.0527 0.003,-3e-5 0.005,2e-5 0.008,0 -0.0358,-0.034 -0.0695,-0.0716 -0.10547,-0.10547 z m 211.82813,31.99609 c -10e-4,0.57108 -0.003,0.98326 -0.006,1.55078 0.0113,-0.32138 0.008,-0.63558 0.006,-0.9707 -10e-4,-0.17023 -1.8e-4,-0.36028 0.002,-0.58008 l -0.002,0 z m -63.93359,2.86914 c 0.50993,0.0665 0.91796,0.80274 0.91796,2.2793 0,1.25 -0.75,2.625 -1.625,3 -1.25,0.5 -1.625,-0.25 -1.125,-2.375 0.35157,-1.96875 1.17644,-2.98974 1.83204,-2.9043 z m 64.67578,0.20899 c -0.16664,0.0314 -0.33693,0.0543 -0.50196,0.0898 0.0486,0.2414 0.0971,0.48353 0.11914,0.72852 0.13258,-0.10113 0.25465,-0.18074 0.38282,-0.27149 0,-0.1822 -3e-5,-0.36469 0,-0.54687 z m -0.38282,0.81836 c -0.0113,0.009 -0.0235,0.0183 -0.0351,0.0273 0.0289,0.0801 0.0502,0.11889 0.043,0.0254 -10e-4,-0.0178 -0.007,-0.035 -0.008,-0.0527 z m -0.0351,0.0273 c -0.0504,-0.13966 -0.12685,-0.41287 -0.19531,-0.64062 -0.0498,0.0596 -0.0999,0.12025 -0.14258,0.18359 -8.8e-4,0.26662 -0.003,0.46857 -0.004,0.73437 0.11275,-0.0946 0.22582,-0.18814 0.3418,-0.27734 z m -0.19531,-0.64062 c 0.0309,-0.037 0.0593,-0.0752 0.0918,-0.11133 -0.0379,0.009 -0.0775,0.0113 -0.11523,0.0195 -0.005,10e-4 -0.006,-0.0133 -0.01,-0.0176 0.01,0.0297 0.0225,0.0738 0.0332,0.10938 z m 0.0918,-0.11133 c 0.006,-0.001 0.0132,-0.003 0.0195,-0.004 -0.001,-0.005 1.8e-4,-0.01 -0.002,-0.0156 -0.006,0.006 -0.0112,0.013 -0.0176,0.0195 z m -63.61133,5.85156 c 0.375,0 0.375,1.375 0.125,3.125 -0.375,1.75 -0.25,3.125 0.125,3.125 0.5,0 1,1.375 1.125,3.125 0.125,1.75 -0.375,3.125 -1.125,3.125 -0.75,0 -1.125,-0.75 -0.75,-1.625 0.375,-1 0.125,-2.5 -0.5,-3.5 -0.875,-1.375 -1.125,-1.375 -1.125,-0.125 0,1 -1.125,1.5 -2.75,1.25 -4,-0.625 -4.125,-3 -0.125,-2.875 2.75,0 3.625,-0.625 3.875,-2.875 0.25,-1.5 0.75,-2.75 1.125,-2.75 z m 0.71875,13.84375 c 0.21875,0 0.40625,0.34375 0.65625,1.03125 0.25,0.875 0.125,1.875 -0.25,2.25 -1.25,1.25 -2.375,-0.625 -1.25,-2.25 0.375,-0.6875 0.625,-1.03125 0.84375,-1.03125 z m 0.041,5.28711 c 0.26366,-0.0449 0.52148,0.0254 0.74023,0.24414 0.25,0.375 -0.125,1.375 -0.875,2.125 -0.875,0.875 -1.5,1 -1.5,0.25 0,-1.3125 0.84375,-2.48438 1.63477,-2.61914 z m -4.00977,0.86914 c 0.625,0 1.125,1.125 1.125,2.5 0,1.375 -0.25,2.5 -0.5,2.5 -0.25,0 -0.75,-1.125 -1.125,-2.5 -0.375,-1.375 -0.125,-2.5 0.5,-2.5 z m 3.625,3.75 c 0.75,0 1.25,0.5 1.25,1.25 0,0.625 -0.5,1.25 -1.25,1.25 -0.625,0 -1.25,-0.625 -1.25,-1.25 0,-0.75 0.625,-1.25 1.25,-1.25 z m 0.38477,4.13086 c 0.26366,-0.0449 0.52148,0.0254 0.74023,0.24414 0.25,0.375 -0.125,1.375 -0.875,2.125 -0.875,0.875 -1.5,1 -1.5,0.25 0,-1.3125 0.84374,-2.48438 1.63477,-2.61914 z m -0.38477,4.61914 c 0.75,0 1.25,0.5 1.25,1.25 0,0.625 -0.5,1.25 -1.25,1.25 -0.625,0 -1.25,-0.625 -1.25,-1.25 0,-0.75 0.625,-1.25 1.25,-1.25 z m 62.84766,0.22461 0,0.002 c -0.004,0.004 -0.008,0.007 -0.0117,0.01 -2e-5,0.002 3e-5,0.009 0,0.0117 0.009,-0.009 0.0135,-0.014 0.0215,-0.0215 -0.004,-5e-4 -0.006,-7e-4 -0.01,-0.002 z m 1.98242,0.45117 c 0.0225,0.006 0.044,0.0112 0.0664,0.0176 10e-4,-0.004 0.003,-0.006 0.004,-0.01 -0.0215,-0.002 -0.0486,-0.005 -0.0703,-0.008 z m -1.99804,0.44727 c -0.001,0.23303 -0.003,0.52161 -0.004,0.79296 0.34014,-0.056 0.70767,-0.13545 1.08008,-0.2207 -0.31289,-0.4158 -0.70151,-0.56766 -1.07617,-0.57226 z m -97.67774,0.24414 c 0.76758,0.0704 1.0957,0.35156 0.7207,0.63281 -0.375,0.375 -1.5,0.5 -2.375,0.125 -1,-0.375 -0.625,-0.75 0.75,-0.75 0.34375,-0.0312 0.64843,-0.0312 0.9043,-0.008 z m 30.7832,2.41601 c 0.9375,0 1.5625,0.40625 1.5625,1.21875 0,0.625 -1.5,1.25 -3.375,1.25 -2.75,0 -3.125,-0.25 -1.625,-1.25 1.25,-0.8125 2.5,-1.21875 3.4375,-1.21875 z m 4.8125,3.71875 c 1,0 1.5,0.5 1.125,1.25 -0.375,0.625 -1.25,1.25 -2,1.25 -0.625,0 -1.125,-0.625 -1.125,-1.25 0,-0.75 0.875,-1.25 2,-1.25 z m -42.5,2.5 c 1,0 1.75,0.5 1.75,1.25 0,0.625 -1.125,1.25 -2.625,1.25 -1.375,0 -2.125,-0.625 -1.75,-1.25 0.375,-0.75 1.625,-1.25 2.625,-1.25 z m 41.625,1.25 c 0.75,0 1.375,0.5 1.375,1.25 0,0.625 -0.25,1.25 -0.5,1.25 -0.375,0 -1,-0.625 -1.375,-1.25 -0.375,-0.75 -0.125,-1.25 0.5,-1.25 z m -147.11523,2.55274 c -0.0179,0.0841 -0.0284,0.17668 -0.0488,0.25781 0.22604,0.117 0.45164,0.23422 0.67969,0.34766 1.1e-4,-0.007 -1.1e-4,-0.0141 0,-0.0215 -0.20745,-0.1984 -0.41758,-0.39245 -0.63086,-0.58398 z m 143.32813,1.38476 0,0.002 c 0.29394,0.009 0.5996,0.0273 0.9121,0.0586 3.5,0.25 4.25,0.75 3.875,2.5 -0.375,1.25 -0.25,2.25 0.25,2.25 0.5,0 0.875,1.125 1,2.5 0.25,3 -3.625,5.375 -7.5,4.625 -2.375,-0.375 -2.125,-0.625 1.25,-1.5 3.5,-0.75 4,-1.375 3.75,-4.5 -0.25,-3.375 -1.25,-4.125 -5.5,-4 -0.875,0.125 -1.625,-0.375 -1.625,-1 0,-0.54688 1.53028,-0.99879 3.5879,-0.93555 z m -39.58399,2.30274 c 1.17,0.0693 2.52734,0.76756 3.62109,2.13476 1.5,1.75 1.5,2 0,1 -1.75,-1 -1.75,-1.125 0.25,7.75 0.375,1.625 0.25,3.125 -0.375,3.5 -0.625,0.375 -0.75,1.875 -0.125,3.5 1,2.5 0.75,2.875 -2.5,3.125 -2.875,0.25 -3.625,-0.25 -3.625,-2.125 0,-1.25 0.875,-2.75 2,-3.125 1,-0.375 1.5,-1.25 1.125,-2 -0.375,-0.75 0.125,-1.625 1.25,-2 1.5,-0.625 1.75,-1.125 0.5,-1.75 -0.875,-0.625 -1.5,-2.75 -1.375,-4.875 0.125,-4.125 -1.75,-5.25 -2.625,-1.75 -0.5,1.75 -0.625,1.5 -0.75,-0.625 -0.0704,-1.89845 1.12459,-2.84875 2.62891,-2.75976 z m 25.06836,0.29687 c 0.219,0.022 0.64648,0.18164 1.30273,0.46289 1.25,0.375 1.875,1.125 1.5,1.5 -0.375,0.375 -1.375,0 -2.25,-0.875 -0.70312,-0.78125 -0.91773,-1.12451 -0.55273,-1.08789 z m 81.14063,0.70899 c -8.2e-4,0.10512 -2e-5,0.22142 -0.002,0.32617 0.74073,-0.004 1.1454,7.5e-4 1.76953,0 -0.75866,-0.0768 -1.3804,-0.18406 -1.76757,-0.32617 z m -67.7129,0.2539 c 1.375,0 2.5,0.125 2.5,0.375 0,0.125 -1.125,1.25 -2.5,2.5 -2.375,2 -2.5,2 -2.5,-0.375 0,-1.625 0.875,-2.5 2.5,-2.5 z m 2.625,2.5 c 0.625,0 1.125,0.5 1.125,1.25 0,0.625 -0.875,1.25 -2,1.25 -1,0 -1.5,-0.625 -1.125,-1.25 0.375,-0.75 1.25,-1.25 2,-1.25 z m -42.625,2.5 c 0.75,0 1.25,0.5 1.25,1.25 0,0.625 -0.5,1.25 -1.25,1.25 -0.625,0 -1.25,-0.625 -1.25,-1.25 0,-0.75 0.625,-1.25 1.25,-1.25 z m 9.25,0 c 1,0 2.25,0.5 2.625,1.25 0.375,0.625 -0.125,1.25 -1.125,1.25 -1,0 -2.25,-0.625 -2.625,-1.25 -0.375,-0.75 0.125,-1.25 1.125,-1.25 z m -1.01562,3.1875 c 0.45312,-0.0625 1.07812,0 1.76562,0.1875 1.375,0.375 2.125,1.125 1.875,1.75 -0.875,1.25 -4.375,0.125 -4.375,-1.375 0,-0.3125 0.28125,-0.5 0.73438,-0.5625 z m -8.23438,0.5625 c 0.75,0 1.25,0.5 1.25,1.25 0,0.625 -0.5,1.25 -1.25,1.25 -0.625,0 -1.25,-0.625 -1.25,-1.25 0,-0.75 0.625,-1.25 1.25,-1.25 z m 46.25,0 c 0.75,0 1.25,0.5 1.25,1.25 0,0.625 -0.5,1.25 -1.25,1.25 -0.625,0 -1.25,-0.625 -1.25,-1.25 0,-0.75 0.625,-1.25 1.25,-1.25 z m -37.76562,2.53125 c 0.64062,0 1.57812,0.40625 2.76562,1.21875 1.5,1 1.375,1.25 -0.875,1.25 -1.625,0 -2.875,-0.625 -2.875,-1.25 0,-0.8125 0.34375,-1.21875 0.98438,-1.21875 z m 30.56445,0.0527 c 0.1829,-0.01 0.38695,-0.007 0.61328,0.004 0.60352,0.0292 1.36914,0.13086 2.33789,0.28711 2.5,0.375 4.875,1.125 5.25,1.5 0.375,0.375 0.25,1 -0.125,1.5 -0.5,0.5 -1.5,0.25 -2.25,-0.5 -1.5,-1.5 -4.875,-0.875 -4.875,1 0,0.5 0.875,0.75 1.875,0.375 1,-0.5 1.875,-0.125 1.875,0.625 0,1.5 -1.375,1.75 -4.25,0.625 -1.125,-0.375 -2,-1.875 -2,-3.25 0,-1.47657 0.26863,-2.09221 1.54883,-2.16406 l 0,-0.002 z m -31.0664,3.89843 c 0.84552,-0.0487 2.27539,0.30468 4.51757,1.01563 3.125,1 3.125,1 -0.625,1.25 -2,0.125 -2.875,0.5 -1.625,0.875 1.375,0.375 2.125,2.25 2.5,5.875 0.25,4 0,5.25 -1.125,4.875 -0.875,-0.375 -1.625,-1.375 -1.625,-2.375 0,-1 -1.25,-1.875 -2.75,-1.875 -1.625,-0.125 -3.375,-0.25 -4.125,-0.5 -0.625,-0.125 -2,-0.375 -2.75,-0.375 -0.875,-0.125 -1.625,-0.875 -1.625,-1.5 0,-1.625 6.5,-1.125 7.75,0.625 0.625,0.75 1,0.5 1,-0.625 0,-1.625 0.125,-1.625 1.25,0 1,1.625 1.25,1.5 1.25,-0.375 0,-1.125 -0.5,-2.125 -1.125,-2.125 -0.625,0 -1.375,-1.125 -1.75,-2.5 -0.35156,-1.47656 -0.22967,-2.20298 0.85743,-2.26563 z m 39.51757,1.01563 c 0.75,0 1.25,0.5 1.25,1.125 0,0.75 -0.5,1.625 -1.25,2 -0.625,0.375 -1.25,-0.125 -1.25,-1.125 0,-1.125 0.625,-2 1.25,-2 z m -5,2.5 c 0.75,0 1.25,0.5 1.25,1.25 0,0.625 -0.5,1.25 -1.25,1.25 -0.625,0 -1.25,-0.625 -1.25,-1.25 0,-0.75 0.625,-1.25 1.25,-1.25 z m 4.25,2.5 c 1.125,0 2,0.5 2,1.25 0,0.625 -0.5,1.25 -1.125,1.25 -0.75,0 -1.625,-0.625 -2,-1.25 -0.375,-0.75 0.125,-1.25 1.125,-1.25 z m -5.69531,1.70312 c 1.27808,-0.0464 2.92969,0.53125 3.94531,1.54688 0.875,0.875 0.125,1.125 -2.5,0.75 -2,-0.25 -3.5,-1 -3.125,-1.5 0.28125,-0.51563 0.91284,-0.76903 1.67969,-0.79688 z m 66.41602,0.19922 c -0.0314,2.1 -0.0635,3.55668 -0.0957,5.10743 0.21268,-0.67272 0.52508,-1.32264 0.63477,-2.01954 0.0475,-0.30165 -0.12273,-0.59807 -0.17773,-0.89843 -0.0838,-0.4577 -0.15937,-0.91645 -0.23829,-1.375 -0.047,-0.27299 -0.0839,-0.54341 -0.12304,-0.81446 z m -74.26758,3.08203 c 1.60937,0.0781 3.23437,0.51563 3.67187,1.26563 0.5,0.75 -0.875,1.25 -3.25,1.25 -4.875,0 -4.375,0.875 0.75,1.75 2.125,0.25 3.875,0.625 4.125,0.625 0.25,0.125 0,0.75 -0.5,1.5 -0.5,1 -1.125,1 -2.125,0 -0.75,-0.75 -2.5,-1.375 -3.875,-1.25 -1.5,0 -1.875,0.375 -1.125,0.75 1.25,0.375 1.25,1 -0.125,2.375 -1,1 -2.25,1.75 -2.625,1.75 -0.75,0 0.375,-7.25 1.5,-9.125 0.375,-0.6875 1.96875,-0.96873 3.57813,-0.89063 z m 13.67187,1.26563 c 1,0 1.875,0.5 1.875,1.25 0,0.625 -0.875,1.25 -1.875,1.25 -1,0 -1.875,-0.625 -1.875,-1.25 0,-0.75 0.875,-1.25 1.875,-1.25 z m -4.2207,0.11719 c 0.76758,0.0703 1.0957,0.35156 0.7207,0.63281 -0.375,0.375 -1.5,0.5 -2.375,0.125 -1,-0.375 -0.625,-0.75 0.75,-0.75 0.34375,-0.0312 0.64843,-0.0312 0.9043,-0.008 z m -0.6543,2.38281 c 0.25,0 0.5,0.5 0.5,1.25 0,0.625 -0.625,1.25 -1.375,1.25 -0.625,0 -0.875,-0.625 -0.5,-1.25 0.375,-0.75 1,-1.25 1.375,-1.25 z m -144.77929,8.38086 c -3e-4,0.14322 1.7e-4,0.28646 0,0.42969 0.10712,-0.0309 0.20945,-0.0571 0.3164,-0.0879 l 0.0664,-0.0742 c 0.0466,0.005 0.13781,-6e-4 0.20312,0 0.0395,-0.0112 0.0779,-0.0221 0.11719,-0.0332 -2e-5,-0.0125 3e-5,-0.0346 0,-0.0469 -0.23499,-0.0635 -0.47677,-0.13259 -0.70312,-0.1875 z m 0.25781,1.10937 c -0.086,0.0494 -0.17325,0.091 -0.25977,0.13868 -2e-5,0.13346 -1e-5,0.26692 0,0.40039 0.2422,0.0415 0.47524,0.0761 0.71485,0.11523 -0.001,-0.15356 -0.003,-0.28937 -0.004,-0.45898 -0.14185,-0.082 -0.29381,-0.14398 -0.45117,-0.19532 z m -0.25977,0.55274 c 2e-5,0.0788 -1e-5,0.15755 0,0.23633 0.0743,-0.01 0.1551,-0.0261 0.23047,-0.0371 -0.0795,-0.0674 -0.16212,-0.13777 -0.23047,-0.19922 z m 0,0.36133 0,0.18945 0,0.041 c 0.1195,0.0276 0.24885,0.0652 0.3711,0.0957 0.1215,-0.0226 0.22762,-0.0375 0.34961,-0.0625 -9e-5,-0.006 1e-4,-0.0164 0,-0.0234 -0.0426,-0.0341 -0.0779,-0.0623 -0.11914,-0.0957 -0.21688,-0.0494 -0.38919,-0.0925 -0.60157,-0.14453 z m 0.73633,1.08984 c -0.1333,0.009 -0.27864,0.0147 -0.42187,0.0215 0.14486,0.0392 0.28848,0.0804 0.43164,0.12305 -0.002,-0.0617 -0.007,-0.0704 -0.01,-0.14453 z m 2.77149,0 c -0.31859,0.1225 -0.60132,0.22683 -0.875,0.32227 0.10962,0.15805 0.22178,0.30999 0.33398,0.46289 0.79339,0.0505 1.35737,-0.10288 1.44141,-0.68164 -0.27252,-0.007 -0.57891,-0.0465 -0.90039,-0.10352 z m -3.50782,0.25781 0,0.002 c 3e-5,0.0423 -2e-5,0.0939 0,0.13476 2e-5,0.29034 0,0.58067 0,0.8711 0.39483,0.40923 0.73059,0.94424 0.98438,1.60351 0.30734,-0.40546 0.72245,-0.61328 1.29687,-0.61328 0.375,0 0.67994,0.0698 0.89454,0.19727 0.005,-0.002 0.009,-0.005 0.0137,-0.008 0.0633,-0.10726 0.12082,-0.21615 0.18164,-0.32422 0.01,0.0755 0.0281,0.15087 0.0332,0.22657 0.25513,-0.15018 0.35006,-0.3395 0.1875,-0.625 -0.0682,0.13395 -0.14642,0.26455 -0.2207,0.39648 -0.0781,-0.55964 -0.29618,-1.09465 -0.75,-1.30273 -0.0645,-0.0296 -0.18324,-0.0642 -0.25977,-0.0957 0.11234,0.0168 0.22738,0.0352 0.33399,0.0469 -0.1276,-0.11313 -0.24738,-0.22342 -0.38672,-0.33985 -0.13566,0.0446 -0.27523,0.0914 -0.39453,0.12696 0.14301,0.0545 0.30567,0.1083 0.42968,0.16015 -0.19337,-0.029 -0.39651,-0.0681 -0.60156,-0.10742 -0.50796,0.14356 -0.88709,0.22035 -0.96094,0.14649 -0.009,-0.0135 -0.0125,-0.2534 -0.0195,-0.34375 -0.259,-0.0559 -0.50753,-0.10076 -0.76172,-0.15235 z m 3.4043,2.08985 c -0.0605,0.0356 -0.13628,0.0677 -0.21484,0.0996 -0.002,0.004 -0.003,0.006 -0.006,0.01 0.0935,0.0569 0.16207,0.12914 0.21875,0.20703 0.005,-0.10659 0.008,-0.20671 0.002,-0.3164 z m 2.26172,1.55859 c -0.60517,0.13555 -1.25443,0.25258 -1.92773,0.34766 -0.0113,0.14417 -0.0215,0.23495 -0.0312,0.33007 0.40666,-0.089 1.10222,-0.33944 1.95898,-0.67773 z m -2.07227,0.36719 c -0.19565,0.0267 -0.39072,0.0532 -0.58593,0.0762 -0.0405,0.24587 0.11587,0.34008 0.53515,0.27148 0.0232,-0.1279 0.0337,-0.2245 0.0508,-0.34765 z m 137.9375,0.60742 c 1.75,0 4,0.5 5,1.125 1.625,1.125 1.625,1.25 0,1.125 -1,-0.125 -3.25,-0.625 -5,-1.125 l -3.125,-1 3.125,-0.125 z m 41.94336,3.86719 c 0.004,0.061 0.003,0.12008 0.01,0.18359 0.006,-0.084 0.003,-0.0283 0.0137,-0.17969 -0.008,-10e-4 -0.0156,-0.003 -0.0234,-0.004 z m -41.91992,0.39453 c -0.71461,0.0845 -1.89959,0.15135 -3.33984,0.20898 0.0841,0.25507 0.15375,0.52626 0.19531,0.82031 l 0.14258,0 1.26562,0 0.82618,0 c 0.21893,-0.37346 0.51669,-0.72338 0.91015,-1.02929 z m -56.21484,0.29101 c 9.4e-4,0.0962 -7.5e-4,0.17159 0,0.26563 0.0952,-0.0875 0.19215,-0.16598 0.29297,-0.22656 -0.0921,-0.0195 -0.18413,-0.0378 -0.29297,-0.0391 z m 0.38281,0.0508 c 0.11125,0.0566 0.18214,0.1541 0.23828,0.26563 -6.6e-4,-0.0275 -0.004,-0.12584 -0.004,-0.15234 -0.0722,-0.0443 -0.14517,-0.0876 -0.23438,-0.11329 z m 0.28711,0.14063 c 0.002,0.0396 0.005,0.097 0.008,0.13867 0.004,-0.0435 0.006,-0.0875 0.01,-0.13086 -0.005,-0.004 -0.0126,-0.004 -0.0176,-0.008 z m 121.82812,0.13086 c -0.0405,0.0193 -0.0715,0.0356 -0.11132,0.0547 0.003,0.016 0.007,0.0328 0.01,0.0488 0.0912,0.0232 0.17135,0.039 0.26758,0.0664 0.004,-0.004 0.008,-0.01 0.0117,-0.0137 -0.0105,-0.028 -0.0186,-0.0581 -0.0293,-0.0859 -0.0374,-0.0141 -0.0539,-0.0266 -0.0137,-0.0391 -0.004,-0.0102 -0.008,-0.0211 -0.0117,-0.0312 l -0.12305,0 z m 0.16602,0.16992 c -0.0386,0.0393 -0.0842,0.0874 -0.12109,0.125 0.0157,0.004 0.0246,0.0211 0.0391,0.0274 0.0316,-0.0488 0.073,-0.0838 0.10742,-0.12891 -0.002,-0.006 -0.004,-0.0132 -0.006,-0.0195 -0.007,-0.002 -0.0126,-0.002 -0.0195,-0.004 z m 0.0254,0.0234 c 0.01,0.0269 0.0194,0.0549 0.0293,0.082 0.032,-0.0313 0.0569,-0.0418 0.0879,-0.0703 -0.0388,-0.0116 -0.0674,-0.0144 -0.10547,-0.0254 -0.004,0.005 -0.008,0.009 -0.0117,0.0137 z m 0.11719,0.0117 c 0.017,0.005 0.0297,0.007 0.0469,0.0117 0.0136,-0.0256 0.0393,-0.0685 0.0508,-0.0918 -0.0334,0.0282 -0.0629,0.048 -0.0977,0.0801 z m 0.0977,-0.0801 c 0.004,-0.003 0.008,-0.006 0.0117,-0.01 -0.002,-3.2e-4 -0.004,3.3e-4 -0.006,0 -10e-4,0.002 -0.005,0.007 -0.006,0.01 z m -0.32227,0.19727 c -0.0367,0.0566 -0.0684,0.12042 -0.10156,0.18164 0.001,0.007 0.004,0.0143 0.006,0.0215 0.05,-0.0539 0.10232,-0.11516 0.15039,-0.16406 -0.0177,-0.0142 -0.0343,-0.0303 -0.0547,-0.0391 z m -0.0391,-0.0274 c -0.0299,-0.007 -0.0693,0.008 -0.10352,0.01 0.005,0.0265 0.0123,0.0535 0.0176,0.0801 0.0254,-0.0261 0.0596,-0.063 0.0859,-0.0899 z m -120.3125,-0.25195 c -0.0669,0.0286 -0.1338,0.0703 -0.20117,0.10742 0.0913,0.11725 0.16189,0.24707 0.22265,0.38281 0.0186,-0.15715 0.0362,-0.31113 0.0371,-0.45117 -0.0179,-0.0138 -0.0413,-0.0252 -0.0586,-0.0391 z m 21.62304,0 c -0.12523,0.002 -0.22519,0.005 -0.34961,0.008 -0.18867,0.12375 -0.37077,0.25664 -0.55468,0.38672 -0.0547,0.5667 0.1483,1.0575 0.48632,1.59375 0.1686,-0.39878 0.35343,-0.85853 0.54883,-1.39648 -0.0489,-0.2063 -0.0886,-0.39821 -0.13086,-0.5918 z m 0.13086,0.5918 c 0.015,0.0634 0.0284,0.12325 0.041,0.18164 0.0379,-0.0999 0.0661,-0.20159 0.11523,-0.29883 0.0135,-0.16805 0.0266,-0.31565 0.0391,-0.46875 -0.0651,0.18982 -0.13228,0.41232 -0.19532,0.58594 z m -0.54883,1.39648 c -0.112,0.26496 -0.15729,0.36936 -0.2539,0.58203 l 0.63672,-0.004 c -0.13893,-0.20252 -0.26666,-0.39398 -0.38282,-0.57812 z m -0.25,-1.97266 c -0.056,0.001 -0.10237,0.003 -0.1582,0.004 -0.032,0.11112 -0.0634,0.22372 -0.0762,0.32812 0.073,-0.10575 0.16803,-0.23254 0.23437,-0.33203 z m 16.01954,0.043 c -0.0306,0.004 -0.0563,0.0153 -0.0762,0.0352 -0.009,0.009 -0.0149,0.0206 -0.0234,0.0293 0.0731,0.0306 0.14706,0.0588 0.2207,0.0879 0.0251,-0.0342 0.0521,-0.0709 0.0781,-0.10547 -0.0732,-0.0272 -0.1453,-0.0534 -0.19922,-0.0469 z m -37.23633,0.0801 c -0.13499,0.0786 -0.27016,0.16623 -0.40625,0.26367 -0.0309,0.2224 -0.0933,0.4587 -0.13867,0.6875 0.0365,0.1811 0.0845,0.37387 0.13086,0.56446 0.0376,-0.60409 0.15047,-1.13901 0.41406,-1.51563 z m 37.30859,0.13477 c -0.13613,0.0519 -0.2499,0.0987 -0.3418,0.13867 -0.009,0.0417 -0.0266,0.0833 -0.0371,0.125 0.0748,-0.0119 0.14927,-0.027 0.22265,-0.0449 0.0484,-0.0707 0.10383,-0.14621 0.15625,-0.21875 z m 60.44141,0.006 c -0.11457,0.12006 -0.20275,0.23896 -0.29492,0.35937 0.0374,0.15958 0.0689,0.31186 0.10742,0.47266 0.0679,-0.28341 0.12567,-0.55529 0.1875,-0.83203 z m -0.1875,0.83203 c -0.0172,0.0718 -0.0298,0.13926 -0.0469,0.21093 0.039,0.0378 0.0789,0.0756 0.11914,0.11328 -0.0261,-0.10998 -0.0458,-0.21384 -0.0723,-0.32421 z m 3.81836,-0.69336 c -0.13178,0.0798 -0.26845,0.16218 -0.41407,0.24804 0.0785,0.0673 0.14079,0.12153 0.22266,0.19141 0.0544,-0.14886 0.11079,-0.29635 0.19141,-0.43945 z m -80.46875,0.0254 c -0.19863,0.14221 -0.40075,0.28086 -0.58985,0.43554 -0.15025,0.12288 -0.24123,0.7224 -0.12304,0.56836 0.29597,-0.38587 0.48582,-0.67813 0.71289,-1.0039 z m -12.93946,0.13086 c -0.126,0.0911 -0.22394,0.23278 -0.30273,0.4082 -10e-4,0.0939 -0.003,0.18742 -0.006,0.28125 0.0776,0.0817 0.15659,0.17853 0.23633,0.27148 0.0395,-0.33791 0.0719,-0.6662 0.0723,-0.96093 z m 111.22657,0.0254 c 10e-4,0.007 0.003,0.0129 0.004,0.0195 0.004,-0.002 0.01,-0.006 0.0137,-0.008 -0.004,0.006 -0.008,0.0116 -0.0117,0.0176 0.006,0.0324 0.0108,0.063 0.0176,0.0957 0.0176,0.009 0.0351,0.0184 0.0527,0.0273 0.006,-0.01 0.0148,-0.0178 0.0215,-0.0273 6e-5,-0.026 -5e-5,-0.0521 0,-0.0781 -0.0324,-0.0176 -0.0652,-0.0304 -0.0977,-0.0469 z m -112.40821,0.0957 c -0.0535,0.002 -0.10562,0.0188 -0.15625,0.043 0.14005,0.57227 0.31128,1.19495 0.48829,1.84961 0.12949,-0.47903 0.24498,-0.95123 0.33203,-1.39844 -0.002,-0.0471 -0.003,-0.0915 -0.006,-0.13672 -0.2338,-0.21707 -0.45657,-0.36686 -0.65821,-0.35742 z m 0.66407,0.49414 c 0.009,0.1702 0.0125,0.29745 0.0215,0.49414 0.0165,-0.10887 0.0385,-0.20911 0.0625,-0.30664 3.1e-4,-0.0256 -2.9e-4,-0.062 0,-0.0879 -0.01,-0.061 -0.0201,-0.12113 -0.0293,-0.18164 -0.01,-0.01 -0.0209,-0.0173 -0.0312,-0.0273 -0.006,0.035 -0.0164,0.0739 -0.0234,0.10937 z m -0.33203,1.39844 c -0.005,0.0166 -0.009,0.0322 -0.0137,0.0488 l 0.0273,0 c -0.005,-0.0166 -0.009,-0.0322 -0.0137,-0.0488 z m -0.69141,-1.67383 c -0.0134,0.0169 -0.0279,0.0277 -0.041,0.0469 -0.0531,0.0776 -0.0962,0.16105 -0.14648,0.24023 -0.004,0.12658 -0.008,0.25009 -0.0117,0.37695 0.006,0.0924 0.0381,0.49213 0.0488,0.64453 0.017,0.0144 0.034,0.0285 0.0508,0.043 0.033,-0.46518 0.0432,-0.5673 0.0996,-1.35156 z m -0.19922,0.66406 c -0.004,-0.0456 -0.0211,-0.28646 -0.0234,-0.31836 -0.0199,0.0318 -0.0391,0.0637 -0.0586,0.0957 0.0137,0.31016 0.024,0.45033 0.0371,0.78515 0.01,0.007 0.018,0.0156 0.0273,0.0234 0.006,-0.19595 0.0112,-0.38876 0.0176,-0.58594 z m -20.42773,-0.65625 c -5.8e-4,0.0257 6.1e-4,0.0543 0,0.0801 0.0113,-0.006 0.0239,-0.01 0.0351,-0.0156 0.002,-0.0191 0.005,-0.0392 0.008,-0.0586 -0.013,-0.002 -0.03,-0.003 -0.043,-0.006 z m -22.14454,0.13282 c -0.0704,10e-4 -0.14076,0.003 -0.21093,0.006 0.23921,0.5085 0.40285,0.76506 0.45703,0.77344 8.6e-4,-0.0384 0.004,-0.0895 0.004,-0.12109 -0.0235,-0.12138 -0.10812,-0.34625 -0.25,-0.6582 z m 39.01954,0.0527 c 1.3e-4,0.004 -1.3e-4,0.006 0,0.01 3.2e-4,-0.002 7e-4,-0.006 0.002,-0.01 l -0.002,0 z m -0.16407,0.002 c 4e-5,0.0511 2e-5,0.11175 0,0.16211 0.021,0.0157 0.048,0.0289 0.0684,0.0449 -0.0113,-0.0664 -0.0183,-0.13928 -0.0312,-0.20312 -0.0147,-2.5e-4 -0.023,-0.004 -0.0371,-0.004 z m -49.16406,0.0742 c -0.0733,3.8e-4 -0.14318,7e-4 -0.2168,0.002 0.0368,0.13367 0.0699,0.26169 0.10547,0.39454 0.0152,-0.01 0.0375,-0.0271 0.0488,-0.0332 0.0217,-0.1215 0.0364,-0.23753 0.0625,-0.36328 z m -0.0625,0.36328 c -0.009,0.0489 -0.0135,0.0926 -0.0215,0.14063 10e-4,0.006 0.003,0.0129 0.006,0.0195 0.0716,-0.13409 0.0841,-0.19718 0.0156,-0.16016 z m -0.0156,0.16016 c -10e-4,0.002 -0.0105,0.0145 -0.0117,0.0176 -0.0686,0.42483 -0.11999,0.83207 -0.0996,1.16797 l 0.38476,-0.002 c -0.0733,-0.379 -0.16515,-0.77425 -0.27343,-1.18359 z m 166.45703,-0.48438 c -0.0582,0.0901 -0.11209,0.18123 -0.15039,0.27149 0.0152,0.007 0.0222,0.011 0.0371,0.0176 0.0269,-0.032 0.0533,-0.0619 0.0801,-0.0937 0.0112,-0.0727 0.0224,-0.12825 0.0332,-0.19532 z m -0.11328,0.28907 c -0.0118,0.014 -0.0233,0.027 -0.0352,0.041 0.0108,0.0804 0.0222,0.15913 0.0332,0.23633 0.008,-0.005 0.0134,-0.008 0.0215,-0.0137 0.0154,-0.10437 0.0249,-0.1449 0.0391,-0.23828 -0.0224,-0.01 -0.0355,-0.0152 -0.0586,-0.0254 z m -0.0371,-0.0176 c -0.002,-7.1e-4 -0.002,-0.001 -0.004,-0.002 -3.7e-4,10e-4 -0.002,0.002 -0.002,0.004 3.6e-4,0.003 0.002,0.005 0.002,0.008 10e-4,-0.003 0.003,-0.007 0.004,-0.01 z M 341.16797,415.0918 c -0.0325,0.16497 -0.0623,0.32662 -0.10938,0.50586 0.0378,0.16123 0.0881,0.33749 0.13086,0.5039 -0.006,-0.29565 -0.0157,-0.76495 -0.0215,-1.00976 z m 0.0215,1.00976 c 0.002,0.0933 0.003,0.21992 0.006,0.31836 0.002,-0.0832 0.005,-0.18243 0.008,-0.26953 -0.004,-0.0161 -0.008,-0.0327 -0.0117,-0.0488 l -0.002,0 z m 0.006,0.31836 -0.002,0.0859 0.004,0 -0.002,-0.0859 z m -35.35937,-1.21484 c -10e-4,-0.001 -0.0113,0.002 -0.0137,0.002 -0.0131,0.0546 -0.0246,0.10812 -0.0371,0.16211 0.058,-0.082 0.0803,-0.13944 0.0508,-0.16406 z m 54.58789,0.0351 c -0.0739,0.12615 -0.13092,0.29555 -0.0879,0.21485 0.0353,-0.0661 0.0561,-0.14552 0.0879,-0.21485 z m -15.33008,0.0566 c -0.0331,0.0657 -0.0576,0.14301 -0.0879,0.21289 -8.5e-4,0.23605 7.5e-4,0.4737 -0.002,0.6914 -0.004,-0.0486 -0.006,-0.0871 -0.01,-0.13476 0.002,0.124 0.003,0.22045 0.006,0.35156 9.3e-4,-0.0744 0.004,-0.12667 0.006,-0.19922 0.005,0.0691 0.009,0.1248 0.0156,0.19922 0.0272,-0.30595 0.056,-0.61824 0.0899,-0.96289 -0.007,-0.0511 -0.0101,-0.10778 -0.0176,-0.1582 z m -0.0723,1.12109 c -0.002,0.0262 -0.003,0.0444 -0.006,0.0703 l 0.0117,0 c -0.002,-0.0265 -0.003,-0.0441 -0.006,-0.0703 z m 69.28125,-1.11328 c -0.078,0.29433 -0.1453,0.58246 -0.20507,0.85742 l 0.6289,-0.004 c -0.047,-0.17822 -0.0932,-0.34988 -0.14258,-0.52929 -0.0833,-0.11584 -0.1838,-0.21878 -0.28125,-0.32422 z m -109.00195,0.0879 c -0.0254,0.0139 -0.0512,0.0261 -0.0762,0.041 0.013,0.15372 0.027,0.30734 0.041,0.46094 0.043,-0.0381 0.0897,-0.077 0.12891,-0.11328 -0.0312,-0.1292 -0.0602,-0.25732 -0.0937,-0.38867 z m 134.59961,0.20312 c -0.0343,0.14938 -0.069,0.29995 -0.0996,0.44532 l 0.16992,-0.002 c -0.0309,-0.15285 -0.044,-0.2937 -0.0703,-0.44336 z m -134.98633,0.0449 c -0.0986,0.0764 -0.19645,0.15345 -0.29101,0.24024 -0.0301,0.20031 -0.0351,0.37632 -0.043,0.55469 0.106,-0.0804 0.21973,-0.15469 0.31836,-0.23438 0.005,-0.18685 0.0113,-0.3737 0.0156,-0.56055 z m 134.59766,0.0938 c 0.002,0.01 0.003,0.0196 0.006,0.0293 -0.002,-0.011 -0.004,-0.0182 -0.006,-0.0293 z m 11.88672,0.004 c -0.0127,0.009 -0.0244,0.0187 -0.0371,0.0273 -0.02,0.0745 -0.0409,0.14899 -0.0606,0.22266 l 0.16406,-0.004 c -0.023,-0.0831 -0.0443,-0.16423 -0.0664,-0.2461 z m -90.42969,0.0762 c -0.111,0.0125 -0.0438,0.26435 0.0996,0.59766 l 0.0156,0 0.78125,-0.004 c -0.24271,-0.19916 -0.49204,-0.38851 -0.76367,-0.54882 -0.0582,-0.0344 -0.10176,-0.0483 -0.13281,-0.0449 z m -64.26758,0.26367 c -0.0308,0.21682 -0.0613,0.43271 -0.082,0.63868 l 0.23633,0 c -0.0433,-0.20565 -0.0991,-0.42204 -0.1543,-0.63868 z m 48.29492,0.33985 c 4.2e-4,0.009 0.002,0.016 0.002,0.0234 2.3e-4,-0.008 -1.1e-4,-0.0147 0,-0.0234 l -0.002,0 z m 0.002,0.0234 c -4.7e-4,0.0151 -10e-4,0.0296 -0.002,0.0469 l 0.004,0 c -2.1e-4,-0.0176 -0.001,-0.032 -0.002,-0.0469 z m -79.01758,0.22851 c -0.44195,-0.0192 -0.69566,0.0369 -0.60742,0.19727 l 0.72265,-0.004 c -0.0305,-0.0602 -0.0523,-0.12725 -0.082,-0.18945 -0.009,-4.5e-4 -0.0241,-0.004 -0.0332,-0.004 z m 202.44922,7.32617 c -0.13345,0.002 -0.26694,0.006 -0.40039,0.008 0.13764,0.0217 0.26727,0.034 0.40039,0.0508 2.6e-4,-0.0196 -2.6e-4,-0.0388 0,-0.0586 z M 255.2404,433.6465 c -0.5126,0.1075 -1.02341,0.21377 -1.53906,0.32422 0.40778,0.0871 0.7882,0.14575 1.16406,0.20118 0.12422,-0.0164 0.24926,-0.0314 0.36133,-0.0488 0.005,-0.15758 0.01,-0.31582 0.0137,-0.47657 z m -1.53906,0.32422 c -0.17911,-0.0382 -0.35733,-0.0765 -0.53515,-0.11328 -0.13748,0.0389 -0.26888,0.0728 -0.40625,0.11133 l -0.004,0.19922 c 0.30019,-0.0515 0.62824,-0.12937 0.94531,-0.19727 z m 214.43164,5.51758 c -0.0862,6.5e-4 -0.15373,0.001 -0.24219,0.002 0.0771,0.009 0.16706,0.0317 0.24024,0.0371 8e-4,-0.0118 10e-4,-0.0274 0.002,-0.0391 z m -15.25,2.04102 c -4.7e-4,0.006 0.002,0.0134 0.002,0.0195 0.002,-0.002 0.004,-0.004 0.006,-0.006 -0.003,-0.004 -0.005,-0.009 -0.008,-0.0137 z m 2.00196,0.0664 -0.29883,0.0723 c -0.0147,0.0167 -0.0329,0.0351 -0.0469,0.0508 0.12523,-0.0439 0.19704,-0.0705 0.34571,-0.12305 z m 6.19531,0.64063 c -0.0459,0.01 -0.0908,0.0215 -0.13672,0.0312 l 0.006,0.0879 c 0.0415,0.0297 0.0786,0.06 0.11914,0.0898 0.005,-0.0775 0.008,-0.14201 0.0117,-0.20898 z m -0.21094,0.0469 c -0.005,9.7e-4 -0.009,9.9e-4 -0.0137,0.002 0.006,0.004 0.0113,0.009 0.0176,0.0137 -10e-4,-0.005 -0.003,-0.0104 -0.004,-0.0156 z m -0.21094,0.0469 c -0.0791,0.0171 -0.15747,0.0352 -0.23632,0.0527 0.0112,0.0155 0.0223,0.0295 0.0351,0.0469 l 0,0.002 c -0.10925,0.0631 -0.21922,0.12388 -0.29687,0.18359 -0.0135,-0.0534 -0.0426,-0.10673 -0.0606,-0.16015 -0.0245,0.006 -0.0497,0.01 -0.0742,0.0156 0.009,0.0874 0.007,0.1772 0.0117,0.26563 0.0378,-0.0391 0.0666,-0.0764 0.11914,-0.11719 l 0.002,-0.002 c 0.0202,0.081 0.0282,0.16136 0.0371,0.24219 -0.004,-0.006 -0.008,-0.0169 -0.0117,-0.0234 0.002,0.0156 0.013,0.0421 0.0156,0.0586 -9e-4,-0.01 -2.5e-4,-0.0207 -0.002,-0.0312 0.0752,0.12213 0.14954,0.27635 0.22461,0.43555 0.0362,0.0254 0.0752,0.0468 0.11132,0.0723 0.13175,-0.0884 0.2353,-0.16422 0.40625,-0.26757 -0.0265,-0.0367 -0.0528,-0.0738 -0.0781,-0.10938 -0.0219,-0.002 0.002,-0.005 -0.004,-0.008 -0.12875,-0.1809 -0.2475,-0.35158 -0.39844,-0.55469 0.0567,-0.0327 0.1312,-0.0673 0.19922,-0.10156 z m 0.28125,0.77344 c 0.0247,0.0344 0.0498,0.0674 0.0742,0.10156 l -0.0117,-0.13867 0,-0.002 c -0.0226,0.0135 -0.0405,0.0261 -0.0625,0.0391 z m 0.0625,-0.0391 c 0.009,-0.005 0.0259,-0.0139 0.0352,-0.0195 8.4e-4,-0.0143 0,-0.0286 0.002,-0.043 -0.006,-4.5e-4 -0.0353,-0.003 -0.041,-0.004 l 0.004,0.0645 0,0.002 z m 0.0352,-0.0195 c -0.004,0.0599 -0.006,0.11963 -0.01,0.17969 0.0273,0.038 0.0553,0.0777 0.082,0.11523 l 0.008,-0.10156 c -0.0191,-0.0699 -0.0337,-0.13711 -0.0527,-0.20703 l -0.0273,0.0137 z m 0.0801,0.19336 c 0.007,0.0285 0.0158,0.0555 0.0234,0.084 -0.004,-0.0826 -0.006,-0.16539 -0.01,-0.24805 l -0.0137,0.16406 z m 0.0234,0.084 c 9.5e-4,0.0209 -9e-5,0.0416 0.002,0.0625 0.007,0.01 0.0144,0.0214 0.0215,0.0312 -0.009,-0.0315 -0.0147,-0.0623 -0.0234,-0.0937 z m 0.0234,0.0937 c 0.0234,0.0858 0.0435,0.16865 0.0664,0.2539 l 0.0391,0 c 0.006,-0.0261 0.0147,-0.0521 0.0215,-0.0781 -0.039,-0.0555 -0.0866,-0.11901 -0.12696,-0.17578 z m -0.96484,-0.52149 c 0.007,0.0861 0.0115,0.17188 0.004,0.25781 0.0252,0.0171 0.0491,0.0335 0.0742,0.0508 -0.0284,-0.10649 -0.0648,-0.22209 -0.0781,-0.30859 z m 0.77734,-0.20508 0.0215,0.28907 c 0.009,-10e-4 0.0327,1.6e-4 0.0449,-0.002 6e-4,-0.01 7e-4,-0.0195 0.002,-0.0293 -0.0236,-0.0872 -0.0451,-0.17084 -0.0684,-0.25782 z m -7.40625,0.24219 c -0.007,4.5e-4 -0.0143,0.002 -0.0215,0.002 -0.18361,0.27409 -0.31762,0.49608 -0.39258,0.66016 0.11246,-0.004 0.12211,-0.004 0.23828,-0.008 0.002,-0.003 0.007,-0.007 0.01,-0.01 0.11407,-0.12694 0.27561,-0.22068 0.45898,-0.29687 -0.10181,-0.11738 -0.20436,-0.23549 -0.29297,-0.34766 z m 10.3418,0.006 c 0.16305,0.23987 0.32237,0.49507 0.48828,0.72852 l 0.01,0 c -0.13927,-0.2184 -0.33066,-0.49161 -0.48828,-0.72852 -0.004,10e-6 -0.006,-2e-5 -0.01,0 z m -1.15039,0.008 c -0.0186,0.11675 -0.0393,0.19747 -0.0566,0.32617 0.0404,0.1325 0.0849,0.2646 0.11914,0.39649 l 0.11133,0 c -0.007,-0.21845 -1.6e-4,-0.48901 -0.004,-0.72266 -0.0531,5e-4 -0.11819,-4.9e-4 -0.16992,0 z m -2.71094,0.10742 c 9.8e-4,0.17886 -0.005,0.35933 -0.0156,0.54102 0,0 0,0.002 0,0.002 -0.001,0.0254 -0.002,0.0507 -0.004,0.0762 l 0.0605,0 c -0.0192,-0.024 -0.0354,-0.0494 -0.0527,-0.0762 l -0.002,0 c 0.0403,-0.0199 0.0743,-0.0547 0.0977,-0.11718 0.0405,-0.10825 0.0558,-0.21744 0.0664,-0.32618 -0.0498,-0.0336 -0.10011,-0.0666 -0.15039,-0.0996 z m -120.58398,0.006 c 5.1e-4,0.0494 -0.002,0.101 0,0.14844 0.0168,-0.016 0.034,-0.0309 0.0508,-0.0469 -0.0168,-0.0337 -0.0355,-0.0673 -0.0508,-0.10157 z m 0,0.14844 c -0.1886,0.18113 -0.38364,0.35185 -0.57032,0.53711 0.0297,0.0125 0.0635,0.0283 0.0957,0.043 l 0.57617,0 c -0.0562,-0.17089 -0.0908,-0.36288 -0.10156,-0.58008 z m -0.57032,0.53711 c -0.20592,-0.0864 -0.35576,-0.12515 -0.3789,-0.0527 0.0333,0.0286 0.0669,0.0542 0.10351,0.0957 l 0.23047,0 c 0.0147,-0.0146 0.0302,-0.0283 0.0449,-0.043 z m 122.12696,-0.41992 c -0.006,0.11562 -0.0127,0.23035 -0.0176,0.3457 l 0.043,0 -0.0254,-0.3457 z"
       style="fill:#000000;stroke:none"
       inkscape:connector-curvature="0" />
    <g
       id="g4872">
      <path
         style="fill:#000000;stroke:none"
         inkscape:connector-curvature="0"
         id="path4399"
         d="m 281.68283,135.18462 c -0.9,1.5 0.9,2.9 4.4,3.6 3.3,0.5 3.3,0.5 0.8,-0.5 -1.6,-0.6 -2.8,-1.7 -2.8,-2.5 0,-1.5 -1.6,-1.9 -2.4,-0.6 z" />
      <path
         style="fill:#000000;stroke:none"
         inkscape:connector-curvature="0"
         id="path4401"
         d="m 283.08283,140.38462 c 0,0.6 0.7,1 1.5,1 0.8,0 1.5,-0.2 1.5,-0.4 0,-0.2 -0.7,-0.6 -1.5,-1 -0.8,-0.3 -1.5,-0.1 -1.5,0.4 z" />
      <path
         style="fill:#000000;stroke:none"
         inkscape:connector-curvature="0"
         id="path4403"
         d="m 283.58283,143.28462 c -0.6,1.1 0.9,2.3 1.9,1.4 0.9,-0.9 0.7,-2.3 -0.3,-2.3 -0.6,0 -1.2,0.4 -1.6,0.9 z" />
      <path
         style="fill:#000000;stroke:none"
         inkscape:connector-curvature="0"
         id="path4405"
         d="m 284.88283,149.68462 c -0.4,1.9 -0.1,2.7 0.8,2.7 1.5,0 1.6,-0.6 0.5,-3.5 -0.7,-1.7 -0.8,-1.7 -1.3,0.8 z" />
      <path
         style="fill:#000000;stroke:none"
         inkscape:connector-curvature="0"
         id="path4407"
         d="m 285.08283,154.38462 c 0,0.5 1.2,1 2.6,1 1.4,0 2.3,-0.4 1.9,-1 -0.3,-0.6 -1.5,-1 -2.6,-1 -1,0 -1.9,0.4 -1.9,1 z" />
      <path
         style="fill:#000000;stroke:none"
         inkscape:connector-curvature="0"
         id="path4409"
         d="m 285.58283,157.38462 c -0.3,0.5 0.3,1 1.5,1 1.2,0 1.8,-0.5 1.5,-1 -0.3,-0.6 -1,-1 -1.5,-1 -0.5,0 -1.2,0.4 -1.5,1 z" />
      <path
         style="fill:#000000;stroke:none"
         inkscape:connector-curvature="0"
         id="path4411"
         d="m 285.08283,160.28462 c 0,0.5 0.7,1.7 1.6,2.5 0.8,0.9 1.1,1.6 0.5,1.6 -0.6,0 -1.1,0.4 -1.1,1 0,0.5 0.9,1 2,1 1.6,0 1.9,-0.6 1.8,-3.5 -0.1,-3 -0.5,-3.5 -2.5,-3.5 -1.2,0 -2.3,0.4 -2.3,0.9 z" />
      <path
         style="fill:#000000;stroke:none"
         inkscape:connector-curvature="0"
         id="path4413"
         d="m 287.08283,168.38462 c 0,0.5 0.4,1 0.9,1 0.4,0 1.1,2.1 1.4,4.7 0.5,4.6 2.9,7.9 5,6.6 0.5,-0.3 0.3,-1 -0.6,-1.5 -1.8,-1 -4.1,-8.3 -3.3,-10.4 0.3,-0.9 -0.2,-1.4 -1.4,-1.4 -1.1,0 -2,0.4 -2,1 z" />
      <path
         style="fill:#000000;stroke:none"
         inkscape:connector-curvature="0"
         id="path4415"
         d="m 310.28283,175.38462 c 0,1.4 0.2,1.9 0.5,1.2 0.2,-0.6 0.2,-1.8 0,-2.5 -0.3,-0.6 -0.5,-0.1 -0.5,1.3 z" />
      <path
         style="fill:#000000;stroke:none"
         inkscape:connector-curvature="0"
         id="path4417"
         d="m 293.08283,175.28462 c 0,1.1 2.1,1.9 3.8,1.4 2.1,-0.8 1.3,-2.3 -1.3,-2.3 -1.4,0 -2.5,0.4 -2.5,0.9 z" />
      <path
         style="fill:#000000;stroke:none"
         inkscape:connector-curvature="0"
         id="path4419"
         d="m 280.98283,177.58462 c -0.8,3.7 -0.6,5.8 0.7,5.8 1.6,0 2,-4.5 0.4,-5.5 -0.5,-0.3 -1,-0.5 -1.1,-0.3 z" />
      <path
         style="fill:#000000;stroke:none"
         inkscape:connector-curvature="0"
         id="path4421"
         d="m 296.38283,179.78462 c 0.4,1.4 5.7,2.1 5.7,0.8 0,-0.5 -1.4,-1.2 -3,-1.4 -1.9,-0.3 -2.9,-0.1 -2.7,0.6 z" />
      <path
         style="fill:#000000;stroke:none"
         inkscape:connector-curvature="0"
         id="path4423"
         d="m 275.78283,180.08462 c -1,0.9 -0.8,4.3 0.2,4.3 0.5,0 1.1,-1.1 1.3,-2.5 0.5,-2.4 -0.2,-3.2 -1.5,-1.8 z" />
      <path
         style="fill:#000000;stroke:none"
         inkscape:connector-curvature="0"
         id="path4425"
         d="m 292.78283,182.58462 c -1.4,0.9 -0.6,1 4.8,0.9 3,-0.1 3.6,0.1 2.5,0.8 -0.8,0.6 -2.6,1.1 -3.9,1.1 -1.3,0 -2.1,0.3 -1.8,0.7 1,1 12,0.3 13.2,-0.8 0.5,-0.5 -0.3,-0.9 -2.4,-0.9 -1.8,0 -3,-0.4 -2.7,-0.9 0.7,-1.1 -8.1,-1.9 -9.7,-0.9 z" />
      <path
         style="fill:#000000;stroke:none"
         inkscape:connector-curvature="0"
         id="path4427"
         d="m 280.58283,187.88462 c 0.2,1.9 0,3.5 -0.5,3.5 -0.6,0 -1,0.4 -1,1 0,1.1 2.9,1.4 3.1,0.2 0.8,-4.9 0.5,-8.2 -0.7,-8.2 -1,0 -1.3,1 -0.9,3.5 z" />
      <path
         style="fill:#000000;stroke:none"
         inkscape:connector-curvature="0"
         id="path4429"
         d="m 310.98283,186.88462 c -0.5,0.4 -8.7,1.3 -13.1,1.5 -1,0 -1.8,0.4 -1.8,0.9 0,0.5 3.3,0.9 7.3,0.9 6.8,0 9.7,-0.9 9.7,-2.9 0,-1 -1.4,-1.2 -2.1,-0.4 z" />
      <path
         style="fill:#000000;stroke:none"
         inkscape:connector-curvature="0"
         id="path4431"
         d="m 304.38283,192.98462 c 7.2,1.5 10,1.4 8.4,-0.2 -0.4,-0.4 -4.2,-0.8 -8.4,-1 l -7.8,-0.3 7.8,1.5 z" />
      <path
         style="fill:#000000;stroke:none"
         inkscape:connector-curvature="0"
         id="path4433"
         d="m 278.58283,195.38462 c 0.3,0.5 1.2,1 2,1 0.8,0 1.7,-0.5 2,-1 0.4,-0.6 -0.5,-1 -2,-1 -1.5,0 -2.4,0.4 -2,1 z" />
      <path
         style="fill:#000000;stroke:none"
         inkscape:connector-curvature="0"
         id="path4435"
         d="m 298.08283,195.18462 c 0,0.5 2.3,0.9 5,0.9 2.8,0 5,-0.3 5,-0.8 0,-0.5 -2.2,-0.9 -5,-0.9 -2.7,0 -5,0.4 -5,0.8 z" />
      <path
         style="fill:#000000;stroke:none"
         inkscape:connector-curvature="0"
         id="path4437"
         d="m 286.58283,196.38462 c -0.3,0.5 0.3,1 1.4,1 1.2,0 2.1,-0.5 2.1,-1 0,-0.6 -0.6,-1 -1.4,-1 -0.8,0 -1.8,0.4 -2.1,1 z" />
      <path
         style="fill:#000000;stroke:none"
         inkscape:connector-curvature="0"
         id="path4439"
         d="m 279.08283,198.38462 c 0,0.5 0.6,1 1.4,1 0.8,0 1.8,-0.5 2.1,-1 0.3,-0.6 -0.3,-1 -1.4,-1 -1.2,0 -2.1,0.4 -2.1,1 z" />
      <path
         style="fill:#000000;stroke:none"
         inkscape:connector-curvature="0"
         id="path4441"
         d="m 287.48283,199.58462 c -0.4,0.6 -0.2,1.4 0.4,1.6 0.7,0.2 1,0.8 0.7,1.2 -0.3,0.5 -0.1,1.1 0.5,1.5 0.6,0.4 1,-0.4 1,-1.9 0,-2.8 -1.5,-4.2 -2.6,-2.4 z" />
      <path
         style="fill:#000000;stroke:none"
         inkscape:connector-curvature="0"
         id="path4443"
         d="m 286.08283,204.38462 c 0,0.5 0.5,1 1.1,1 0.5,0 0.7,-0.5 0.4,-1 -0.3,-0.6 -0.8,-1 -1.1,-1 -0.2,0 -0.4,0.4 -0.4,1 z" />
      <path
         style="fill:#000000;stroke:none"
         inkscape:connector-curvature="0"
         id="path4445"
         d="m 303.08283,204.38462 c 0,1.4 2.6,2.3 4.1,1.5 0.8,-0.6 0.7,-1 -0.2,-1.6 -1.9,-1.2 -3.9,-1.1 -3.9,0.1 z" />
    </g>
  </g>
</svg>
