<?xml version="1.0" encoding="UTF-8" standalone="no"?>
<svg
   xmlns:dc="http://purl.org/dc/elements/1.1/"
   xmlns:cc="http://creativecommons.org/ns#"
   xmlns:rdf="http://www.w3.org/1999/02/22-rdf-syntax-ns#"
   xmlns:svg="http://www.w3.org/2000/svg"
   xmlns="http://www.w3.org/2000/svg"
   xmlns:sodipodi="http://sodipodi.sourceforge.net/DTD/sodipodi-0.dtd"
   xmlns:inkscape="http://www.inkscape.org/namespaces/inkscape"
   version="1.0"
   width="173.000000pt"
   height="300.000000pt"
   viewBox="0 0 173.000000 300.000000"
   preserveAspectRatio="xMidYMid meet"
   id="svg4371"
   inkscape:version="0.91 r13725"
   sodipodi:docname="the-hermit-simple-lf.svg">
  <defs
     id="defs4547" />
  <sodipodi:namedview
     pagecolor="#ffffff"
     bordercolor="#666666"
     borderopacity="1"
     objecttolerance="10"
     gridtolerance="10"
     guidetolerance="10"
     inkscape:pageopacity="0"
     inkscape:pageshadow="2"
     inkscape:window-width="1072"
     inkscape:window-height="721"
     id="namedview4545"
     showgrid="false"
     inkscape:zoom="1.352"
     inkscape:cx="137.7108"
     inkscape:cy="157.07344"
     inkscape:window-x="0"
     inkscape:window-y="0"
     inkscape:window-maximized="0"
     inkscape:current-layer="svg4371" />
  <metadata
     id="metadata4373">
Created by potrace 1.10, written by Peter Selinger 2001-2011
<rdf:RDF>
  <cc:Work
     rdf:about="">
    <dc:format>image/svg+xml</dc:format>
    <dc:type
       rdf:resource="http://purl.org/dc/dcmitype/StillImage" />
    <dc:title></dc:title>
  </cc:Work>
</rdf:RDF>
</metadata>
  <g
     id="g4898"
     transform="matrix(1.0029843,0.02988106,-0.03007298,1.0094261,-194.28247,-65.288113)">
    <path
       style="fill:#000000;stroke:none"
       d="m 325.67031,55.395313 c -0.48561,1.183538 2.36411,0.669187 0,0 z m 32.32187,0.0625 c -0.0925,0.111298 0.17562,0.08229 0,0 z M 211.725,55.929691 c -3.27461,2.447697 2.94912,3.406611 0,0 z m 57.35469,0.1625 c -0.0462,0.281337 0.10009,0.02676 0,0 z m 0.0172,0.120313 c -0.2248,0.526439 0.57887,1.898929 0,0 z m -46.02031,0.135938 c -1.30483,2.021844 0.0775,0.628643 0,0 z m 46.84375,0.389062 c -0.56783,0.724547 1.06234,0.409426 0,0 z m -1.07656,0.02031 c -0.62635,0.504575 0.50354,0.507012 0,0 z m -62.38282,0.120312 0.0203,0.207813 -0.0203,-0.207813 z m 22.73438,0.160938 c -0.2608,1.685921 1.05312,0.416187 0,0 z m 0.77344,0.678124 c -0.42602,0.172096 0.40972,0.170616 0,0 z m 143.39843,9.023438 c -0.5742,1.188453 2.2175,-0.329245 0,0 z m -73.7,7.089062 c -9.58689,1.037666 -19.76198,0.271165 -27.86914,6.543526 -5.38466,6.69468 -11.75936,-9.764502 -11.82696,3.809992 0.65432,8.821848 3.6783,22.173052 -2.8039,24.346482 3.5403,3.91353 2.66916,-5.55223 4.6,2.3 -0.97616,3.44764 -7.03505,1.96046 -1.5,0.45 -8.02287,-0.97879 0.15635,13.14264 -11.2125,9.225 -0.81893,-4.28344 8.47696,-2.795 0.6375,-4.7375 2.81699,-1.88614 7.91646,1.6013 5.225,-5.975 -5.85283,-1.71133 1.55003,-6.29856 -2.75,-8.7625 4.5709,2.35299 2.35831,5.07091 6.8,3.1 5.80446,0.13565 -8.63829,-7.954738 -9.00156,-11.943754 -4.67631,-2.381752 -6.44846,-13.748015 -17.39844,-12.856246 -9.04244,-5.383919 -23.28446,5.316878 -12.9375,11.724998 4.54993,4.64896 15.90168,-6.347136 12.7375,3.875 5.43907,7.731932 8.53132,17.294212 8.14434,27.146872 -0.8494,10.36504 0.54691,19.8743 5.18066,27.05313 1.56929,7.50521 -3.58598,23.91391 11.63125,18.93593 1.08684,5.52387 -0.10366,21.23571 -0.20449,30.84649 -3.7681,12.33578 5.34274,19.94205 5.20762,31.68164 2.3729,9.52331 -3.56327,27.08243 6.64062,30.93594 9.28865,3.87531 3.43642,21.91181 5.95002,31.41899 -1.72188,7.15542 5.38109,24.31741 -2.84201,25.25054 -6.27894,-1.43915 -13.30555,-12.56877 -16.00801,-1.40704 -9.75814,7.44381 -21.7056,7.32715 -33.14218,5.95626 -5.22004,-3.50584 -10.17129,-3.57712 -15.26719,0.19218 3.98656,4.79534 10.78287,-3.566 17.2094,2.71406 11.3598,-0.388 24.78996,0.84674 33.41934,-8.87578 4.59625,-4.82768 9.02657,3.67352 13.90566,3.15078 -2.84865,3.06704 -13.77307,9.81512 -12.37031,10.25782 3.86238,-1.361 11.56015,0.59814 13.19682,0.11549 2.10484,-0.48655 7.85309,0.802 6.72344,-2.23603 -10.99527,6.83332 -13.55444,-10.02238 -1.61563,-6.20938 3.78147,-0.66175 17.53462,-7.63272 7.69531,0.42188 0.53455,9.87408 18.93304,-0.0307 25.84532,-0.75 4.14332,-6.55489 22.69206,-3.54437 15.7,3.5 1.80778,2.17372 -25.45167,-0.0133 -10.7,4.7 7.3776,0.7288 7.8075,-1.30356 13.55168,-2.44533 -0.93365,-7.04203 10.68588,6.11973 14.72978,2.89376 2.21638,-2.11659 -21.02965,-7.1893 -8.38282,-13.79844 7.84687,2.61979 18.1311,2.73629 24.91129,-0.61527 4.21371,4.10934 16.42867,4.1318 4.89027,-0.23317 -8.33532,-4.87544 -16.90888,6.89264 -25.9,-1.4 -5.2418,-1.45033 -15.50357,7.94519 -13.78811,-3.81993 -1.68763,-63.50544 -2.30371,-127.06518 -1.1302,-190.58387 4.49552,-15.64857 -9.17807,-26.131402 -21.88169,-29.496202 -4.92594,-4.297544 -5.38043,-10.360217 -4.00018,-16.401318 z m 24.22188,255.78749 c -0.49506,4.02584 1.79243,2.12882 0,0 z m 0.37969,2.92657 c -0.70624,0.58027 0.70429,0.5706 0,0 z m -0.45157,-2.9375 c -2.48864,1.16433 0.43591,4.68111 0,0 z m -0.58125,2.93906 c -0.76613,0.59193 0.76427,0.58435 0,0 z m -49.39062,-2.30313 c -1.02593,0.64604 1.29813,1.37994 0,0 z m -0.006,0.7 c -0.15805,-0.22678 -0.2316,0.291 0,0 z m -0.24063,-0.49062 c -0.14418,-1.04124 -0.44858,0.954 0,0 z m -0.57968,-0.14843 c -0.42371,0.16006 0.23814,0.78958 0,0 z m -0.10313,0.0672 -0.0125,0.0141 0.0125,-0.0141 z m -0.0125,0.0141 c -0.73701,0.55606 0.34183,0.43669 0,0 z m -65.22813,-7.31719 c -0.0453,0.16001 0.0579,0.30303 0,0 z m -0.0156,-0.002 c 0.0494,-0.33311 -0.62761,0.18466 0,0 z m 85.4329,-247.023433 c 12.78612,1.275601 -13.63476,3.674835 -0.45,5.312501 0.7686,3.39184 -19.42305,-2.094546 -6.175,2.262496 6.85288,1.59128 15.58369,6.340512 5.9,7.912504 3.47397,-7.262944 -13.37156,-8.762256 -17.4625,-7.612504 4.1351,1.320936 19.14865,3.580568 13.7625,8.612504 -6.05844,-5.2146 -17.45562,1.824552 -21.3,-1.11456 -1.52399,-8.897 8.90004,-10.10088 15.24864,-14.047355 3.69235,0.350303 6.8392,-1.636451 10.47636,-1.325586 z m 2.175,2.9875 c 4.96514,1.923521 -1.82229,2.750161 0,0 z m -32.53124,0.55 c 3.11532,7.853241 5.76874,21.578163 2.93124,28.450003 -0.43719,-3.42755 -2.9421,-6.2922 -0.55,-10.675002 -4.83027,-5.172976 -3.4642,-8.113848 -0.75,-5.825 -3.12526,-4.290776 -2.25617,-2.872392 -1.63124,-11.950001 z m -38.36876,0.550001 c -4.96677,2.814568 18.20821,-2.747014 12.89844,8.82344 -3.01966,-2.089488 -10.62344,2.261944 -12.54844,-3.64844 4.51713,2.858256 14.02179,-1.646192 3.65,-1.175 -3.57364,0.624528 -13.48728,-2.024336 -4,-4 z M 204.675,80.662496 c -1.87918,0.586448 -0.72184,2.436008 0,0 z m 168.50313,1.434376 c -0.13697,0.993904 3.04902,-0.509072 0,0 z m -154.59844,0.320312 c 3.62518,3.288304 5.58426,6.577024 5.78749,7.712504 2.21483,1.558192 -4.24781,0.234368 -4.6,-2.5 1.55649,-0.439312 -6.22453,-2.776024 -1.18749,-5.212504 z m 76.18749,0.612504 c 3.65037,1.747384 -1.73637,3.3256 0,0 z m 3.5,2 c 3.61205,1.843072 -1.97932,3.096608 0,0 z m -57.80624,0.112496 c 6.35033,2.333432 -3.31496,21.949686 -0.44376,6.987504 0.47374,-2.593656 -2.83072,-4.563944 0.44376,-6.987504 z m 4.12188,3.239064 c 1.59141,3.630432 6.46119,13.713212 6.78436,8.24844 -1.62005,4.873582 3.26364,9.546262 -1.6625,9.850002 -1.07966,-12.036914 -1.50051,24.38159 -3.19687,8.90937 -0.0409,-7.64896 0.33637,-12.9316 1.27187,-16.259372 -2.61099,3.375472 -7.68827,-1.39304 -4.4125,5.900002 3.3409,6.86645 0.392,11.84579 -2.45312,2.54531 -0.76139,-5.59548 -8.74054,-13.572496 0.72812,-8.107816 3.02553,-5.05028 1.6955,-3.281456 5.2625,-1.65 1.02479,-3.807144 -6.19962,-4.262184 -2.32186,-9.435936 z m 55.60156,1.664064 c 8.94483,6.048696 -3.4002,3.723952 0,0 z m -62.8172,0.984376 c 3.20769,1.287784 -3.48456,2.176184 0,0 z m 42.79064,0.254688 c 7.05442,2.036576 15.25564,8.16912 21.00936,5.545312 -5.62554,-2.023256 -11.40773,-3.990488 -1.45,-2.225 10.97095,3.964904 -10.98792,4.444352 1.61719,5.965622 4.53249,3.2247 16.79097,1.53402 5.24531,6.14687 0.873,-6.21403 -5.07794,8.10244 -8.03534,-1.95956 -4.06793,-6.576884 -15.82816,-8.586172 -18.38652,-13.473244 z m -46.89064,0.745312 c 3.61205,1.843072 -1.97932,3.096608 0,0 z M 272.0625,93 c 5.93788,0.05704 19.05609,6.203664 19.00468,8.12969 -7.80152,-3.76421 -14.49564,-4.354554 -20.25768,-7.846242 L 272.0625,93 Z m -35.09532,1.029688 c 4.93347,2.802688 -6.48319,1.824848 0,0 z m 67.96407,1.246872 c 5.50011,0.203976 14.96607,1.569168 5.03593,2.953128 -2.26599,5.778252 -7.90238,-3.340832 -1.6,0 0.0395,-1.713176 -3.32997,-2.29256 -3.43593,-2.953128 z m -37.76407,0.753128 c 4.2997,-0.117456 8.63084,-0.482896 4.675,3.609376 3.60033,4.668926 6.36229,-0.393928 1.5875,-0.384376 7.67049,-9.002784 8.75421,13.834012 17.9375,7.175002 3.3944,-3.63029 6.78188,3.82257 2.175,-0.2 1.49823,5.20397 4.91405,13.17673 0.23282,9.77187 -2.67083,5.22003 -4.6035,9.89857 -4.90782,1.62813 -5.614,1.76501 -2.07981,-4.10999 2.35,-3.4 -3.8007,-0.15599 -3.57417,-8.70044 -4.75,-1.2 -2.33072,-6.03856 -2.18189,-5.14059 -2.87968,-0.16407 -4.42138,-2.3236 -5.1516,10.35708 -8.75782,0.0406 1.40517,0.795 6.69507,3.57688 1.97813,-2.98751 2.12565,-5.64123 2.64258,5.70255 5.23593,-1.71562 -1.82856,-2.33112 -8.04902,-0.6523 -1.17656,-3.07344 -3.09623,-2.52883 -7.05415,5.47165 -9.3,-2.6 -1.60784,-2.06779 -2.90456,-4.352402 -4.4,-6.500002 z m -43.075,2.446872 c -10.19728,-3.329224 -16.35635,8.84009 -15.25156,15.33281 -2.99653,-6.84284 -8.15711,-3.32592 -4.09218,0.23119 1.24367,-2.88256 7.86166,5.83459 6.71874,-2.01094 0.76068,6.31666 3.21864,21.22447 -0.6875,23.13751 -0.085,-11.04881 -5.84649,-0.23113 -3.41253,-0.0375 -2.2799,1.03281 8.40545,5.1658 13.33731,4.78808 6.55817,0.73799 14.37339,-1.35666 14.10488,-7.62715 9.80314,3.44002 -9.53405,-7.0656 1.75781,-9.56093 8.42028,0.0153 -10.66357,-0.85248 -2.4875,-8.4 -3.94309,-1.87719 7.59349,-7.41189 -0.975,-11.11251 -2.30576,-2.77314 -4.97682,-5.58031 -9.01247,-4.74059 z m 59.1422,0.254688 c 3.82157,1.657792 15.3187,7.983182 4.3828,3.985932 -3.4802,0.63236 -6.99032,0.44138 -4.3828,-3.985932 z m 30.95468,0.695312 c 10.63696,1.44975 -10.47743,4.13792 0,7.2e-5 l 0,-7.2e-5 z M 221.9,100.43282 c -1.57937,4.26758 17.92114,2.30712 3.53457,4.04023 -4.6365,0.50017 -19.43398,-0.33063 -6.71739,-1.89336 1.50208,-0.12095 1.80342,-1.92533 3.18282,-2.14687 z m 97.89531,1.8828 c 5.2961,5.2645 -1.0382,7.84756 0,0 z m -4.91562,1.83282 c 4.57077,2.78987 9.43529,7.12918 7.81078,13.03896 -0.79484,39.69514 -0.33862,79.40352 -0.96078,119.09698 0.13708,4.06912 -2.77683,-4.08894 -3.58751,1.0078 -6.15343,-1.3026 -16.22856,1.73833 -4.275,1.53751 7.25891,-2.85162 10.68843,7.35437 1.87032,1.72187 -10.01955,-1.45143 -4.22513,2.04784 2.17968,2.92813 3.09093,2.674 -5.09081,8.65105 2.45,7.45 -7.64146,4.04623 -4.61648,-5.63837 -11.48749,-7.3 -4.03936,-10.76611 -11.41147,-19.50871 -13.51251,-30.7 -0.27184,-6.86763 -7.65647,-7.64953 -2.5166,-8.64785 -1.30371,-11.6932 -2.76445,-23.4946 -6.0584,-34.81466 1.68763,2.05792 10.09133,5.20868 3.7,0.6 1.72866,-6.66827 -0.22559,-11.19838 -7.71249,-9.23749 1.50501,-1.85271 13.73935,-2.46583 5.45156,-3.36719 -7.8469,1.45127 -5.84101,-2.56769 0.72344,-1.74532 -10.33072,-5.11406 -9.43003,9.8416 -0.18751,7.25 1.01292,5.35805 -8.06956,-1.90706 -3.9,5.06251 -2.49002,-0.51577 -10.0209,-4.73706 -3.39531,1.51093 1.31238,6.73065 -5.85247,-5.76445 -4.0311,3.78164 0.54208,14.60065 0.76959,29.64842 4.92641,43.70743 5.32519,-0.3738 -3.06746,-14.00204 -0.43867,-19.53008 1.08115,-8.05868 -4.12434,-22.27843 4.36367,-25.87617 -0.29437,12.77255 1.10661,25.76819 3.78751,38.27812 3.19377,11.90938 9.34598,18.59906 13.33281,29.86562 4.83093,5.43858 10.40213,13.69893 11.15468,16.66251 -2.36976,0.97462 -2.4374,5.89328 3.775,1.08593 7.28618,0.91963 -14.75057,7.14313 -1.675,5.01407 9.08994,-2.30087 -3.35132,5.11665 -5.1,3.6 5.58894,1.84318 4.44072,1.83945 1.07344,4.27187 4.35092,-0.48424 11.32196,0.54674 4.12656,1.52813 11.01925,4.48183 -10.8933,6.27877 -2.6,10.6 7.57032,-2.00987 5.22694,-0.61159 2.78751,1.175 10.22431,3.47264 -10.35106,-2.49071 -1.68751,5.275 -0.8477,1.80696 -2.08255,6.55587 -1.4,6.05 3.77395,0.14196 -5.12033,2.57218 1.5,2.2 -6.47607,2.22033 3.61974,1.28406 -2.9,4.625 6.34964,0.13925 -4.00836,2.79555 3.60625,1.90313 3.03583,4.33632 1.24264,3.48756 -1.50625,1.37187 -4.43101,0.0493 6.32621,7.58523 -3.25,4.61249 3.01191,-2.9118 -1.59735,-17.27062 -0.57368,-25.19169 1.03164,-5.19089 -1.55868,-16.88357 -4.07632,-9.7208 3.30699,2.38855 -5.63317,4.54341 1.3,5.93749 -8.83409,2.45017 7.7256,4.43205 -3.10679,5.38868 -3.96276,0.28342 9.57359,2.2166 -1.1057,2.14883 5.616,1.58414 -6.09216,3.12261 3.025,2.98749 4.07634,2.68484 -7.63511,1.197 -0.41251,3.53751 -5.90868,1.64439 9.28648,0.10242 2.08594,6.02656 0.32969,5.89921 2.96637,11.12211 -4.97343,8.42344 8.85908,3.04351 -5.08121,1.28013 3.45,5.175 2.87324,7.60527 -9.93308,7.20548 -2.56251,3.675 -4.334,-1.8249 -9.98724,10.44523 -16.7,5.6 2.69887,-8.15415 17.96173,-4.99359 17.9,-8.3 -3.14143,-4.19194 -8.36992,2.11208 -6.4,-3.7 1.54957,-3.30579 1.16232,-9.21798 -1.53749,-12.25 6.72355,-5.00439 -6.53478,-13.39827 -3.06251,-6.45 -7.81965,-5.15041 11.35736,-2.78115 2.4,-10.4 -5.44619,-1.62503 2.76492,3.92306 -3.6,3.3 -1.70849,8.71963 -1.21121,-15.12575 2.4,-5.8 1.12745,4.06808 4.84998,-6.59682 -2.90781,-5.41407 2.79079,-2.45124 -0.19181,-2.32624 0.50781,-4.18593 0.0364,-1.9178 -0.41292,-2.54306 1.57032,-5.83438 -4.66919,2.90364 -1.42372,-3.99991 -0.83281,-5.32813 -5.78303,-5.89308 2.68716,-7.85249 -2.67188,-11.15936 2.13402,-8.35152 -5.62291,-9.75991 -2.43281,-1.75 -1.53679,7.7622 3.2899,21.47536 -1.13282,24.42187 2.56177,2.70246 4.27416,3.39717 -1.6,3.85 -0.78713,-16.40404 0.31904,-33.09745 -2.60664,-49.28262 -2.63266,9.97476 -0.15036,25.022 -0.40127,36.86233 0.79462,6.37684 -2.16935,15.84063 7.10791,15.02029 -6.45164,-0.10753 -11.13337,1.37628 -1.175,3.05 5.65663,1.57157 -11.3613,0.96055 -3.83749,6.65 -8.63173,-3.06516 -2.74764,-19.94752 -5.38351,-28.4341 -0.82578,-28.52821 -5.02238,-56.92394 -4.75868,-85.4659 1.02116,-4.67351 3.47379,-6.83533 -0.31719,-6.23125 -3.60902,-6.4997 10.90729,-1.38458 1.97187,-4.76875 5.277,-1.96262 -5.05306,-3.87356 2.01407,-4.90156 -6.92719,-5.43388 -5.87959,-19.85127 -5.28907,-29.26096 3.17145,6.47965 1.17735,26.11487 7.475,25.33596 -2.67194,-8.44019 -2.33732,-17.42686 -3,-26.17344 -6.27554,-2.95979 -14.30168,-9.24227 -17.11249,-1.36251 7.78597,-0.72428 -5.92686,3.80555 4.32853,3.51925 -0.85813,-0.35384 -8.93673,3.18499 -0.45353,3.03075 -8.43807,2.59263 4.93941,3.79319 -3.7,5.45 10.17668,0.35744 -5.19917,3.61102 3.86249,4.93751 -10.44014,1.01297 2.4564,1.93091 -0.025,3.725 -8.90979,-0.96429 7.09109,4.68022 -3.1,5.9 8.02131,1.01047 -1.69609,3.49354 1.7,6.7 -2.90964,1.96061 8.81914,3.71786 -0.975,3.23749 -0.13421,6.09351 7.89454,5.26073 1.03751,7.39844 11.16395,2.2709 -8.6953,1.06645 2.71257,4.37503 6.80723,0.8168 -8.81184,1.77645 1.44992,3.31404 -0.18112,2.37824 -7.95692,1.67476 -0.19335,4.65302 -2.91676,-1.70081 -6.50605,2.39762 0.23086,2.65947 -4.82851,-0.17236 -5.644,0.68656 -3.36251,3.36251 -2.79353,1.85817 10.12987,1.77005 1.2,3.1 -8.12444,0.0839 12.2488,2.20504 -1.4,3.175 -1.50609,2.04108 10.49032,3.40349 0.65782,2.83906 -4.2831,4.04723 11.57564,4.88319 0.44218,5.98594 7.69318,2.15317 0.70935,2.52763 1.79477,4.16969 6.36376,1.41703 -4.86171,2.80272 3.20523,3.73031 -5.73647,1.48536 -2.67258,2.78342 0,3.7 -8.72354,1.85921 5.08878,2.51665 -2.95,4.28749 8.0333,1.62004 -2.57756,3.76752 3.95,6.11251 -5.65571,0.71887 -2.04373,3.13993 -3.23437,6.17344 5.84267,-0.4609 -5.24631,2.10086 2.46858,3.91772 2.65043,0.72007 -8.23985,2.52858 1.11579,3.09633 0.32939,2.11735 -8.67335,3.13161 -0.075,3.98751 0.70552,2.16187 -8.76788,3.10169 0,4 0.57971,2.08207 -8.1984,2.75126 0.15,4 0.072,2.06404 -8.96336,3.83469 -0.0375,3.43749 1.46713,2.07065 -6.01567,5.24819 1.41249,3.41251 -12.06254,9.51853 -6.97375,-14.34382 -8.64738,-20.78899 -0.68678,-13.7566 -1.91042,-27.51602 -2.94011,-41.21101 -3.81299,4.1682 -0.89127,-14.91604 -1.71251,-20.125 -1.88148,-9.92563 4.84553,-26.01913 -4.5,-32 5.1402,-2.14345 3.34283,-2.01711 0.2,-3.1 7.03383,-2.32065 -0.47412,-13.79118 4.375,-18.625 -0.91214,4.56401 16.47028,-6.46354 4.59219,-3.49375 0.3854,-2.8999 9.00315,-2.39935 -0.82187,-2.88438 -1.635,-2.12979 11.11504,-3.15182 2.35468,-2.59687 -8.98092,-2.17031 10.0314,-3.34469 9.06968,4.87032 2.09329,8.70206 7.65635,-5.54246 7.2147,5.04374 -0.79776,7.43731 -2.61975,14.80152 -1.98438,22.45873 2.18144,0.66319 11.47235,1.78321 9.08649,2.08158 -5.40369,-0.72848 -13.96505,2.5166 -2.77965,2.35852 11.89534,-1.223 -1.22632,-6.51908 -5.30684,-7.81289 2.65503,-1.03559 11.17772,2.26477 12.05938,-0.54688 -0.19321,4.68559 0.16234,26.94448 2.5189,12.19561 -1.23168,-7.00946 1.69332,-19.44408 -3.29077,-23.32373 2.09794,7.498 -2.41267,8.44979 -1.24239,0.63554 0.52504,-8.29651 9.782,7.1173 9.76895,-4.74023 4.4451,2.8624 2.04258,-11.20299 3.38593,-13.32031 1.88368,-5.38735 6.33064,-5.16693 10.31251,-8.08125 z m -46.26251,0.0813 c 3.93578,2.58797 8.41686,7.77493 0.825,3.3 -0.92408,-0.8092 -1.17636,-2.16873 -0.825,-3.3 z m -48.25,0.8 c 4.04179,2.63741 -3.85896,2.37769 0,0 z m 5.95157,0.38906 c 7.51151,4.94258 1.55648,14.50275 2.1875,22.37344 -6.63649,-2.52982 2.71465,-11.17036 -1.73907,-12.3625 -3.94612,-4.56547 -6.19152,-7.49431 -10.125,-3.9 0.73768,-10.02019 11.91569,6.23053 11.325,-4.4 -3.51215,-0.28873 -8.80203,-0.92129 -1.64843,-1.71094 z m 3.66563,0.49063 c 8.52312,4.04326 1.37021,7.19404 0,0 z m -14.3172,0.12031 c 7.65861,-0.48804 -6.54546,2.99025 -0.002,7.81721 1.5062,14.11525 -8.00224,-11.6146 0.002,-7.81721 z m 34.6,2 c 5.31787,2.1461 -3.3516,2.61037 0,0 z m 47.4,0.325 c -0.12428,6.57835 8.2842,-0.94575 1.4375,4.96251 1.28095,5.28268 -4.11094,-5.30273 -1.4375,-4.96251 z m -44.50312,2.25625 c 4.37132,3.02204 -10.445,2.51129 0,0 z m 119.85156,0.49375 c -0.0894,0.1245 0.0909,0.20769 0,0 z m -154.21249,1.47656 c 9.82659,0.28129 -5.97963,4.04779 0,0 z m 62.57656,0.44844 c 5.60507,0.92131 2.2366,1.52885 3.25781,6.92344 6.88439,-0.44823 2.6551,7.57509 1.22968,6.07656 2.52213,2.97275 -6.16229,-1.12563 -0.55,-4.075 -4.03918,-1.95555 -0.74412,-6.32857 -3.93749,-8.925 z m -58.01251,1 c -0.55976,5.14753 3.07302,24.37681 -6.4625,13.0375 -2.80926,-9.56877 2.56666,-7.11898 6.4625,-13.0375 z m 78.1,0 c 3.86202,3.53869 -5.09648,3.34285 0,0 z m -42.53749,0.0156 c 8.08244,2.56672 0.11643,10.03204 -1.10001,3.43437 5.77889,-1.37772 -3.6575,-2.03727 1.10001,-3.43437 z m -16.76875,0.6875 c 2.49799,4.97035 1.55421,28.55952 -0.0608,12.60679 -0.14305,-4.14693 -0.91807,-8.56307 0.0608,-12.60679 z m -23.79376,0.69687 c 6.85921,2.88927 -6.38513,1.8121 0,0 z m -8.2,1.6 c 0.96896,7.996 -9.3489,6.0812 -2.18139,2.39116 -5.92268,-2.03273 -4.61417,3.21182 -4.61861,7.74328 0.0694,-6.55532 11.44836,0.85586 6.8,-10.13444 z m 87.575,0.2375 c 2.50768,5.83204 -5.51245,8.52446 0,0 z m -3.675,1.7625 c 0.87134,5.59757 -7.0503,12.02881 0,0 z m 6.66251,0.2125 c 4.59909,7.47331 -2.38415,4.3511 0,0 z m -54.56251,1.7875 c 5.57535,1.00337 -0.20718,14.75345 0.5,3.675 0.56486,-1.20376 -4.52588,-4.24715 -0.5,-3.675 z m 9.5,0.1 c 0.077,4.21496 -11.06463,0.87583 -1.35,0.26251 l 1.35,-0.26251 z m -41.9,0.9 c 3.65037,1.74739 -1.73637,3.3256 0,0 z m 54.05,1.0375 c 7.03037,2.35938 -0.58955,10.76239 3.25,10.67501 -0.56593,10.15048 -1.67016,25.84566 0.8875,32.825 -0.17387,-6.65276 -0.45498,-18.5358 0.99676,-5.88194 0.13552,9.30695 -1.64423,19.33056 0.71574,27.34443 -1.51664,5.5253 1.40823,18.15098 1.7375,26.35469 1.7309,21.83261 1.81622,43.75323 2.6625,65.62031 5.23264,9.342 4.99569,20.9981 6.96641,31.83848 4.31211,2.53716 16.58966,4.07017 4.49609,5.48652 -7.81808,1.9694 -6.36826,-5.56036 -7.01394,-10.85912 0.70359,-4.14751 -3.3228,-22.43826 -3.72356,-14.70337 2.11342,1.31177 -0.53776,7.16715 0.075,8.86249 1.4434,3.0412 0.13057,2.71452 2.05,5.125 -5.14902,-0.90147 5.60256,15.01624 -3.04531,13.02032 -0.49829,-9.49555 -1.80549,-19.90625 -1.49101,-30.16231 -2.22599,-37.28398 -3.63651,-74.62842 -6.98828,-111.8418 -1.59453,-17.51742 -2.67464,-35.29865 -3.5254,-52.74121 l 0.80625,-0.69218 1.14375,-0.27032 z m 31.26251,0.0625 c 1.36772,3.6446 -5.80551,0.87628 0,0 z m -44.13125,1.29687 c -0.56294,2.42267 -8.50935,5.86801 -0.35782,7.09219 -1.39036,5.00388 5.94951,-2.21816 0.35156,3.03594 -8.36248,2.22276 -0.55412,2.53666 -2.05,4.225 -2.3945,0.82673 -1.00513,3.53019 -3.2,7.125 4.058,-5.79664 2.47186,2.26116 8.675,1.225 -11.47741,4.22252 -10.39472,-5.84666 -11.5,-12.1 -1.88926,2.63418 -1.7307,12.25851 -3.09375,2.02187 1.12063,-5.94433 8.76523,-0.20869 5.67188,-9.56406 -0.27713,-3.18484 3.45347,-2.76851 5.50313,-3.06094 z m 118.01718,0.64688 c -0.20257,0.8729 2.67672,-0.55526 0,0 z m 0.99844,0.0812 c 0.84652,0.91356 0.84588,-0.91818 0,0 z m -0.99844,0.10313 c -0.0687,0.73506 2.66414,-0.63401 0,0 z m 0.99844,0.025 c 0.84227,0.86321 0.84205,-0.86342 0,0 z m -76.08593,0.77187 c 2.53833,4.06809 -3.74159,2.30237 0,0 z m -83.01563,1.42813 c 1.35575,4.68429 -1.2552,2.92702 0,0 z m -11.3125,0.42031 c -1.6108,2.38256 3.59547,0.69546 0,0 z m 82.275,0.81406 c 6.40724,1.87607 -8.79046,2.85587 0.54218,3.9125 9.94228,2.62191 -10.38157,7.79109 -3.99217,-1.89129 0.7784,-1.11313 2.02106,-2.06387 3.44999,-2.02121 z m -68.15782,0.3125 c 8.58526,4.6823 -1.52364,5.56114 -2,2.7 6.65824,2.27564 0.45516,-1.41213 2,-2.7 z m -8.47187,2.00625 c 3.96703,3.24861 -4.90037,2.75277 0,0 z m 19.31251,0.11875 c 10.46884,5.45649 -9.18919,9.35095 -2.44064,0.57511 0.92618,2.79968 4.32821,4.27459 2.44064,-0.57511 z m 144.44062,2.2 c -0.0898,0.51978 1.73755,-0.3019 0,0 z m 1.68125,0.0359 c -0.79944,-0.13493 0.0377,0.23417 0,0 z m -151.075,0.68906 c 4.26719,5.02781 -6.4378,3.10345 0,0 z m -7.69219,0.67188 c 9.34005,1.02232 1.10261,6.1494 -2.26952,0.7638 l 0.58425,-0.40123 1.68527,-0.36257 z m 72.65625,4.3625 c 7.83444,2.76474 -6.02215,0.66311 0,2e-5 l 0,-2e-5 z m -83.14688,5.79375 c -1.92662,0.23756 0.99057,1.59846 0,0 z m -2.00469,0.36406 c -0.26084,0.42828 0.59284,0.0228 0,0 z m 46.12813,4.04844 c 9.849,0.89909 -6.20221,4.29911 5.07187,3.80937 7.97316,1.96419 -13.16052,3.60724 -0.2875,3.3 -7.65023,3.24795 -3.33056,7.62897 1.7875,8 -8.39648,6.19796 -7.02047,-3.50636 -7.661,-11.51794 0.55861,-0.70382 -0.50991,-3.3592 1.08913,-3.59143 z m 6.67187,1.70937 c 6.98361,2.41432 -4.9149,1.34139 0,0 z m 38.69532,1.48907 c 1.27082,3.76717 -1.26433,4.82801 0,0 z m -37.37188,3.60469 c 2.11,1.44323 -4.47588,0.002 0,-1.6e-4 l 0,1.6e-4 z m -0.22344,1.90624 c 1.02725,3.51716 0.82688,7.77881 -3.55781,1.94063 0.62748,-1.32377 2.18506,-1.90439 3.55781,-1.94063 z m 117.43282,3.325 c -3.31815,-0.96388 0.78855,1.98816 0,0 z m -1.44687,14.55 c -0.77715,1.53507 3.37877,1.85531 0,0 z m -167.96407,1.76876 c -0.27169,-0.0396 0.17053,0.37027 0,0 z m 61.97812,8.35624 c 3.61205,1.84308 -1.97932,3.09661 0,0 z m 105.59532,7.2125 c -0.56839,0.97422 0.64439,0.31468 0,0 z m -113.02188,7.47813 c 2.01901,5.34489 -0.0723,18.87198 -0.37344,5.50937 0.11319,-1.83213 -0.0819,-3.70779 0.37344,-5.50937 z m -54.32187,11.75937 c -0.18335,0.0308 0.0831,0.12365 0,0 z m 55.22969,2.72969 c 1.58555,2.10187 -1.36117,3.35287 0,0 z m -57.43126,1.00469 c -0.0499,0.0977 0.25396,0.12651 0,0 z m 169.46251,25.59687 c -0.0166,2.67504 0.004,0.63198 0,0 z m -51.14687,2.29531 c 2.90539,5.23512 -5.0874,4.85377 0,0 z m 51.74062,0.1672 c -1.12806,-0.0306 0.27445,1.31254 0,0 z m -0.30626,0.65468 c -0.0922,0.0112 0.0665,0.089 0,0 z m -0.0281,0.0218 c -0.0617,-1.61951 -0.70648,0.97967 0,0 z m -0.15624,-0.51249 c 0.26752,-0.13253 -0.17528,-0.12004 0,0 z m 0.0734,-0.0891 c 0.0299,0.016 0.0111,-0.049 0,0 z m -50.88907,4.68125 c 0.50476,4.57347 1.31174,14.83495 -1.5125,5.06251 -2.77249,4.62694 -7.51269,-1.92587 -0.1875,-1.03751 1.21775,-1.02027 0.47151,-2.99197 1.7,-4.025 z m 0.575,11.075 c 2.72775,3.75202 -3.54018,3.78934 0,0 z m 0.0328,4.22969 c 2.16711,2.11428 -3.99855,3.25907 0,0 z m -3.20781,0.69531 c 3.20082,3.99559 -1.88302,6.2164 0,0 z m 2.9,3 c 4.04178,2.63742 -3.85896,2.3777 0,0 z m 0.30781,3.30469 c 2.16711,2.11428 -3.99855,3.25906 0,0 z m -0.30781,3.69531 c 4.04178,2.63742 -3.85896,2.3777 0,0 z m 50.27812,0.17969 c -0.0424,0.0316 0.0337,0.002 0,0 z m 1.58594,0.36094 c 0.0465,0.0872 0.1011,-0.0626 0,0 z m -1.59843,0.35781 c -0.87619,1.45479 2.54287,0.11703 0,0 z m -78.14219,0.19531 c 2.10999,1.44324 -4.47589,0.002 0,-1.5e-4 l 0,1.5e-4 z m 24.62656,1.93281 c 3.99663,3.03815 -8.78315,1.60955 0,0 z m 3.85,2.975 c 3.5088,2.56346 -4.93873,1.83614 0,0 z m -34,2 c 4.93346,2.80269 -6.4832,1.82485 0,0 z m 33.3,1 c 3.61204,1.84307 -1.97932,3.09661 0,0 z m -117.69219,2.04219 c -0.37509,0.56093 1.56248,0.70488 0,0 z m 114.66251,1.10781 c 7.16336,-0.85408 5.39265,13.41059 -2.39532,9.09848 7.8056,0.22507 5.7467,-9.07737 -0.475,-8.35 l 0.81787,-0.55725 2.05245,-0.19119 0,-4e-5 z m -31.6672,1.84219 c 5.58336,1.64372 0.92162,4.91962 2.79688,11.50781 3.19274,8.21181 -9.85995,5.16419 -2.5,-0.5 3.67412,-3.21997 -1.24425,-11.74801 -2.4,-8.8 -0.12318,-1.14281 0.75966,-2.42697 2.10312,-2.20781 z m 20.05469,0.2375 c 3.36759,0.29226 2.61392,3.81482 0,0 z m 64.91251,0.56719 c -0.35781,1.27744 3.82997,-0.44551 0,0 z m -54.17032,0.20312 c 5.75046,1.63657 -7.3392,5.00152 0,0 z m 2.1,2 c 3.34101,2.81134 -4.97517,1.92543 0,0 z m -34.1,2 c 4.04178,2.63742 -3.85896,2.3777 0,0 z m 7.4,0 c 6.75305,2.08427 -3.51754,2.53275 0,0 z m -0.8125,2.55 c 7.36098,0.68628 -1.28113,3.78849 0,0 z m -6.5875,0.45 c 4.04178,2.63742 -3.85896,2.3777 0,0 z m 37,0 c 4.04178,2.63742 -3.85896,2.3777 0,0 z m -30.2125,2.025 c 10.6919,2.96763 -4.48228,2.354 0,0 z m 24.45156,0.0422 c 7.38357,0.56422 8.11731,3.23561 1.20156,2.10633 1.37587,1.53952 4.36826,3.96591 -1.97813,1.22656 -0.47635,-0.87763 -1.05033,-3.35906 0.77657,-3.33289 z m -24.85312,3.11875 c 6.23274,0.83503 4.44354,1.5173 1.81406,2.5125 3.95806,4.00086 2.10138,12.36786 -2.4,5.2 -10.05173,-0.60473 -5.25168,-3.57742 0.2,-1.9 3.31334,1.11982 0.78017,-1.5837 -0.38863,-5.33042 l 0.77457,-0.48208 z m 31.61406,0.8125 c 3.63558,1.8549 -3.81204,4.26143 0,0 z m -4,2 c 4.04178,2.63742 -3.85896,2.3777 0,0 z m 3.4,2 c 5.35855,2.18583 -3.53379,2.28894 0,0 z m -4.55625,1.3625 c 10.40138,2.59991 -5.81284,2.20112 0,0 z m 53.13281,0.15937 c -0.66124,6.8267 0.99993,3.68599 0,0 z m -59.41406,2.46563 c 9.47062,1.86991 -8.80818,2.10919 0.9375,3.4125 8.76946,3.75683 -5.1389,-1.80541 -2.9,3.2 -4.46692,5.50182 -2.04532,-9.12638 1.9625,-6.6125 z m 10.9375,1.0125 c 5.20048,2.5107 -5.01194,2.02366 0,0 z m -3.37656,0.0937 c 2.11,1.4432 -4.4759,0.002 0,-1.5e-4 l 0,1.5e-4 z m -0.52344,1.90625 c 1.78386,3.27105 -3.6539,1.82244 0,0 z m -115.82344,6.70469 c -0.50906,0.77449 1.62308,-0.15549 0,0 z m 0.20625,0.88749 c 0.11497,1.04613 -0.054,0.31367 0,0 z m -0.20781,0.4422 c -0.26074,0.37271 0.59364,0.1253 0,0 z m 0,0.28906 c -0.0695,0.63584 1.30328,-0.008 0,0 z m 0.58906,0.87187 c -0.91914,-0.25059 0.17791,0.40915 0,0 z m 2.21719,0 c -2.41541,0.96407 2.44939,0.33297 0,0 z m -2.80625,0.20625 c 2.31754,4.77047 3.93535,-0.98797 0.62502,0.39679 l -0.0156,-0.275 -0.60938,-0.12188 -4e-5,9e-5 z m 2.72344,1.67188 c -0.51379,-0.0398 0.29178,0.59672 0,0 z m 1.80937,1.24687 c -1.97864,-1.69293 -2.19979,2.91286 0,0 z m -1.65781,0.29375 c -1.23632,-0.34829 0.26508,0.78528 0,0 z m 110.35,0.48594 c 10.60699,2.07537 -1.56074,1.60895 -1.79329,0.0717 0.59776,-0.0239 1.19553,-0.0478 1.79329,-0.0717 z m 33.55468,3.09375 c -0.0893,0.37848 0.12179,-0.006 0,0 z m -33.53593,0.31563 c -5.55462,-0.66069 -1.24731,2.36688 0,0 z m -44.97187,0.2328 c -0.25868,0.56227 0.6485,-0.19088 0,0 z m 0.30624,0.0406 c 0.20039,0.63585 0.3193,-0.12121 0,0 z m 0.22969,0.11251 c -0.0623,0.27035 0.0856,0.0153 0,0 z m 97.4625,0.10469 c -0.287,0.19969 0.42197,0.0838 0,0 z m 0.13281,0.13593 c -0.33216,0.15875 0.16006,0.13931 0,0 z m 0.0203,0.0187 c -0.015,0.1878 0.22307,-0.0929 0,0 z m 0.0938,0.009 c 0.0793,0.0716 0.12653,-0.21636 0,0 z m 0.0782,-0.0641 c 0.0279,-0.009 -0.005,-0.0133 0,0 z m -0.25782,0.15782 c -0.32822,0.31513 0.19454,0.0666 0,0 z m -0.0313,-0.0219 c -0.16014,-0.0997 -0.052,0.23373 0,0 z m -96.25,-0.20156 c -0.57046,0.0983 0.45017,0.85297 0,0 z m 17.29843,0 c -2.17903,-0.0187 0.72252,3.76 0,0 z m 0.10469,0.47344 c 0.12646,0.55133 0.28654,-1.45535 0,0 z m -0.43906,1.11718 c -1.06412,0.74418 1.27108,0.6373 0,0 z m -0.2,-1.57813 c -0.30988,-0.15721 -0.20533,0.78051 0,0 z m 12.81563,0.0344 c -0.40209,0.14805 0.63751,0.16532 0,0 z m -29.78907,0.0641 c -1.01486,0.1344 0.0595,2.932 0,0 z m 29.84688,0.10782 c -0.62432,0.14458 -0.13167,0.39511 0,0 z m 48.35312,0.005 c -0.61263,0.12726 0.16952,1.57517 0,0 z m -0.15,0.66562 c -0.23876,0.15956 0.35349,0.51145 0,0 z m 3.05469,-0.55468 c -0.87814,-0.0772 0.1924,0.85077 0,0 z m -64.375,0.0203 c -0.77448,-0.071 -0.74883,2.14241 0,0 z m -10.35157,0.10468 c -0.77368,0.26909 0.46481,1.66593 0,0 z m 88.98126,0.0203 c -0.0241,0.13975 0.18952,0.11631 0,0 z m -89.92657,0.0766 c -0.71149,3.54014 1.64538,0.22235 0,0 z m 0.53126,0.39532 c -0.0573,1.17043 0.16352,-0.32148 0,0 z m -0.26563,1.11875 c -0.0719,0.0546 0.0719,0.0544 0,0 z m -0.55312,-1.33907 c -0.48856,0.42738 0.22488,2.40363 0,0 z m -0.15938,0.53125 c -0.10831,-1.06543 -0.008,1.55663 0,0 z m -16.34218,-0.525 c -0.058,0.15592 0.11482,-0.0138 0,0 z m -17.71564,0.10626 c -0.78068,-0.14691 0.95396,1.41435 0,0 z m 31.21564,0.0422 c -0.006,0.0213 0.008,-0.002 0,0 z m -0.13126,0.002 c -0.0677,0.30391 0.22657,0.12606 0,0 z m -39.33125,0.0594 c -0.48317,-0.19459 0.13608,0.81274 0,0 z m -0.05,0.29062 c -0.0703,0.0228 0.0366,0.31735 0,0 z m -0.0125,0.12813 c -1.39608,1.31756 1.59429,1.25966 0,0 z m 133.16563,-0.3875 c -0.36624,0.38619 0.093,0.20624 0,0 z m -0.0906,0.23125 c -0.33559,0.4372 0.3857,0.12788 0,0 z m -0.0297,-0.0141 c -0.0102,-0.009 -8.8e-4,0.024 0,0 z m -96.71881,-0.18583 c -0.3308,0.35356 0.36703,1.78138 0,0 z m 0.0172,0.80781 c -0.0448,0.53666 0.0582,0.14024 0,0 z m 0.005,0.25469 c -0.0938,0.0917 0.0938,0.0917 0,0 z m -28.2875,-0.97188 c -0.10021,7.1e-4 -0.0104,0.34151 0,0 z m 43.67031,0.0281 -0.0703,0.17188 0.0703,-0.17188 z m -12.26406,0.0453 c -0.21363,0.71926 0.0221,1.46995 0,0 z m -0.0578,0.89688 c -0.0815,0.0758 0.0815,0.0751 0,0 z m 55.425,-0.89063 c -0.87203,1.14501 1.21067,0.88922 0,0 z m -87.20156,0.0703 c -0.43263,0.47621 0.34285,0.57379 0,0 z m 107.67969,0.1625 c -0.60774,0.48618 0.56804,0.48603 0,0 z m -107.98907,0.0359 c -0.80403,0.43638 0.0989,1.26805 0,0 z m 107.67813,0.075 0.005,0.0234 -0.005,-0.0234 z m 9.50938,0.003 c -0.37906,0.26977 0.31558,0.30329 0,0 z m -72.34376,0.061 c -0.3826,1.03717 1.93302,0.40626 0,0 z m -51.41406,0.21093 c -0.79278,0.70994 0.88548,0.68547 0,0 z m 38.63594,0.27188 c -0.009,0.0501 0.0146,-0.002 0,0 z m 0.002,0.0187 c -0.0523,0.0501 0.0523,0.0501 0,0 z m -63.21407,0.18281 c -1.4916,0.0672 0.55502,0.44963 0,0 z m 161.95938,5.86094 c -0.85526,-0.22792 0.0625,0.28165 0,0 z m -170.55157,7.72031 c -3.23858,-0.3181 0.33594,1.19523 0,0 z m -1.23125,0.25938 c -0.58233,-0.48813 -1.42481,0.69614 0,0 z m 171.54531,4.41406 c -0.51126,-0.14594 0.0332,0.17474 0,0 z m -12.2,1.63282 c -0.0141,0.0338 0.0226,0.005 0,0 z m 1.60157,0.0531 c -0.14963,-0.15096 -0.58247,0.40644 0,0 z m 4.95625,0.5125 c -0.32586,-0.0486 0.15131,0.4057 0,0 z m -0.16875,0.0375 c -0.0335,-0.008 0.0221,0.0318 0,0 z m -0.16875,0.0375 c -1.30156,-0.11181 0.66788,1.55147 0,0 z m 0.225,0.61875 c 0.0739,0.27395 0.10388,-0.15305 0,0 z m 0.05,-0.0313 c 0.10354,-0.0372 -0.0475,-0.10743 0,0 z m 0.0282,-0.0156 c -0.0353,0.49618 0.17703,0.11208 0,0 z m 0.0641,0.15469 c 0.0529,0.27989 -0.002,-0.43292 0,0 z m 0.0187,0.0672 c -0.0349,0.0389 0.0828,0.15875 0,0 z m 0.0187,0.075 c -0.0691,0.43825 0.27373,0.0812 0,0 z m -0.77188,-0.41719 c -0.22224,0.17499 0.3636,0.47159 0,0 z m 0.62188,-0.16407 c -0.1748,0.40784 0.2683,0.20168 0,0 z m -5.925,0.19376 c -1.36552,0.96165 0.96848,0.42184 0,0 z m 8.27344,0.005 c 0.46488,1.46713 0.58814,0.0793 0,0 z m -0.92032,0.006 c -0.63656,1.69685 1.08339,-0.33164 0,0 z m -2.16875,0.0859 c -0.18547,0.97669 0.27113,0.20021 0,0 z m -96.46718,0.005 c -0.12907,0.24571 0.15888,0.0546 0,0 z m 0,0.11875 c -1.53038,0.4374 0.80258,0.88327 0,0 z m -0.45626,0.42969 c -0.62577,-0.30933 -0.15241,0.24087 0,0 z m 97.70157,-0.33593 c -0.38932,0.37049 0.39818,0.36952 0,0 z"
       id="path4377"
       inkscape:connector-curvature="0" />
    <g
       id="g4872">
      <path
         style="fill:#000000;stroke:none"
         d="m 281.68283,135.18462 c 0.95598,4.92056 11.04627,5.15996 2.4,0.6 0.18084,-1.44737 -1.85061,-1.88265 -2.4,-0.6 z"
         id="path4399"
         inkscape:connector-curvature="0" />
      <path
         style="fill:#000000;stroke:none"
         d="m 283.08283,140.38462 c 2.76337,3.41057 4.78793,-1.89587 0,0 z"
         id="path4401"
         inkscape:connector-curvature="0" />
      <path
         style="fill:#000000;stroke:none"
         d="m 283.58283,143.28462 c 1.01266,5.42341 4.58977,-3.50693 0,0 z"
         id="path4403"
         inkscape:connector-curvature="0" />
      <path
         style="fill:#000000;stroke:none"
         d="m 284.88283,149.68462 c 0.9086,8.46563 3.05337,-5.76134 0,0 z"
         id="path4405"
         inkscape:connector-curvature="0" />
      <path
         style="fill:#000000;stroke:none"
         d="m 285.08283,154.38462 c 5.83137,3.91252 4.68754,-3.58049 0,0 z"
         id="path4407"
         inkscape:connector-curvature="0" />
      <path
         style="fill:#000000;stroke:none"
         d="m 285.58283,157.38462 c 4.00852,4.36559 3.73711,-3.75691 0,0 z"
         id="path4409"
         inkscape:connector-curvature="0" />
      <path
         style="fill:#000000;stroke:none"
         d="m 285.08283,160.28462 c 0.80098,6.97574 6.92929,7.47379 3.52031,-0.775 -1.15377,-0.14857 -2.7763,-0.40157 -3.52031,0.775 z"
         id="path4411"
         inkscape:connector-curvature="0" />
      <path
         style="fill:#000000;stroke:none"
         d="m 287.08283,168.38462 c 1.54662,2.48109 5.38005,16.61602 6.7,10.8 -4.88755,-1.79449 -0.68634,-15.31219 -6.7,-10.8 z"
         id="path4413"
         inkscape:connector-curvature="0" />
      <path
         style="fill:#000000;stroke:none"
         d="m 310.28283,175.38462 c 0.60735,5.1527 0.55391,-5.16674 0,0 z"
         id="path4415"
         inkscape:connector-curvature="0" />
      <path
         style="fill:#000000;stroke:none"
         d="m 293.08283,175.28462 c 3.97599,5.30405 8.43244,-3.7469 0,0 z"
         id="path4417"
         inkscape:connector-curvature="0" />
      <path
         style="fill:#000000;stroke:none"
         d="m 280.98283,177.58462 c -3.06223,10.91472 6.36535,3.74719 0,0 z"
         id="path4419"
         inkscape:connector-curvature="0" />
      <path
         style="fill:#000000;stroke:none"
         d="m 296.38283,179.78462 c 7.59929,5.0618 6.90389,-2.95853 0,0 z"
         id="path4421"
         inkscape:connector-curvature="0" />
      <path
         style="fill:#000000;stroke:none"
         d="m 275.78283,180.08462 c -3.20318,11.03044 5.44285,-2.46082 0,0 z"
         id="path4423"
         inkscape:connector-curvature="0" />
      <path
         style="fill:#000000;stroke:none"
         d="m 292.78283,182.58462 c -0.30785,1.89215 14.23823,0.32208 3.4,2.8 -5.37296,2.93701 21.54411,-0.20553 6.34219,-1.54844 -1.52649,-2.62813 -7.08955,-1.58269 -9.74219,-1.25156 z"
         id="path4425"
         inkscape:connector-curvature="0" />
      <path
         style="fill:#000000;stroke:none"
         d="m 280.58283,187.88462 c -3.99513,9.71816 5.99587,2.79058 0.9,-3.5 -1.63173,-0.0678 -0.95816,3.15341 -0.9,3.5 z"
         id="path4427"
         inkscape:connector-curvature="0" />
      <path
         style="fill:#000000;stroke:none"
         d="m 310.98283,186.88462 c -5.55145,0.73554 -23.08562,2.54712 -7.6,3.3 1.86699,2.0013 14.97941,-3.54446 7.6,-3.3 z"
         id="path4429"
         inkscape:connector-curvature="0" />
      <path
         style="fill:#000000;stroke:none"
         d="m 304.38283,192.98462 c 5.32947,2.66878 13.18189,-0.69667 3.02813,-1.01562 -2.30569,-0.0303 -15.55774,-1.0974 -7.35537,0.18346 1.44242,0.27739 2.88483,0.55477 4.32724,0.83216 z"
         id="path4431"
         inkscape:connector-curvature="0" />
      <path
         style="fill:#000000;stroke:none"
         d="m 278.58283,195.38462 c 4.46122,3.83789 6.05221,-4.45837 0,0 z"
         id="path4433"
         inkscape:connector-curvature="0" />
      <path
         style="fill:#000000;stroke:none"
         d="m 298.08283,195.18462 c 6.23881,3.00253 14.12997,-1.60764 3.07969,-0.73125 l -1.59219,0.18125 -1.4875,0.55 z"
         id="path4435"
         inkscape:connector-curvature="0" />
      <path
         style="fill:#000000;stroke:none"
         d="m 286.58283,196.38462 c 3.0432,4.10373 5.65142,-3.80117 0,0 z"
         id="path4437"
         inkscape:connector-curvature="0" />
      <path
         style="fill:#000000;stroke:none"
         d="m 279.08283,198.38462 c 2.60714,3.77571 6.34207,-3.94456 0,0 z"
         id="path4439"
         inkscape:connector-curvature="0" />
      <path
         style="fill:#000000;stroke:none"
         d="m 287.48283,199.58462 c 0.57291,8.09973 6.73189,1.86488 0,0 z"
         id="path4441"
         inkscape:connector-curvature="0" />
      <path
         style="fill:#000000;stroke:none"
         d="m 286.08283,204.38462 c 2.62725,3.85446 1.19695,-3.51916 0,0 z"
         id="path4443"
         inkscape:connector-curvature="0" />
      <path
         style="fill:#000000;stroke:none"
         d="m 303.08283,204.38462 c 5.00349,6.15947 6.33449,-3.88921 0,0 z"
         id="path4445"
         inkscape:connector-curvature="0" />
    </g>
  </g>
</svg>
